G04 #@! TF.GenerationSoftware,KiCad,Pcbnew,5.1.2*
G04 #@! TF.CreationDate,2019-06-13T14:37:42+02:00*
G04 #@! TF.ProjectId,BodyTempUnit-e7,426f6479-5465-46d7-9055-6e69742d6537,rev?*
G04 #@! TF.SameCoordinates,Original*
G04 #@! TF.FileFunction,Soldermask,Bot*
G04 #@! TF.FilePolarity,Negative*
%FSLAX46Y46*%
G04 Gerber Fmt 4.6, Leading zero omitted, Abs format (unit mm)*
G04 Created by KiCad (PCBNEW 5.1.2) date 2019-06-13 14:37:42*
%MOMM*%
%LPD*%
G04 APERTURE LIST*
%ADD10C,0.100000*%
%ADD11C,0.050000*%
%ADD12C,0.010000*%
%ADD13C,0.150000*%
G04 APERTURE END LIST*
D10*
X87908333Y-133300000D02*
X87808333Y-133333333D01*
X87775000Y-133366666D01*
X87741666Y-133433333D01*
X87741666Y-133533333D01*
X87775000Y-133600000D01*
X87808333Y-133633333D01*
X87875000Y-133666666D01*
X88141666Y-133666666D01*
X88141666Y-132966666D01*
X87908333Y-132966666D01*
X87841666Y-133000000D01*
X87808333Y-133033333D01*
X87775000Y-133100000D01*
X87775000Y-133166666D01*
X87808333Y-133233333D01*
X87841666Y-133266666D01*
X87908333Y-133300000D01*
X88141666Y-133300000D01*
X87341666Y-133666666D02*
X87408333Y-133633333D01*
X87441666Y-133600000D01*
X87475000Y-133533333D01*
X87475000Y-133333333D01*
X87441666Y-133266666D01*
X87408333Y-133233333D01*
X87341666Y-133200000D01*
X87241666Y-133200000D01*
X87175000Y-133233333D01*
X87141666Y-133266666D01*
X87108333Y-133333333D01*
X87108333Y-133533333D01*
X87141666Y-133600000D01*
X87175000Y-133633333D01*
X87241666Y-133666666D01*
X87341666Y-133666666D01*
X86508333Y-133666666D02*
X86508333Y-132966666D01*
X86508333Y-133633333D02*
X86575000Y-133666666D01*
X86708333Y-133666666D01*
X86775000Y-133633333D01*
X86808333Y-133600000D01*
X86841666Y-133533333D01*
X86841666Y-133333333D01*
X86808333Y-133266666D01*
X86775000Y-133233333D01*
X86708333Y-133200000D01*
X86575000Y-133200000D01*
X86508333Y-133233333D01*
X86241666Y-133200000D02*
X86075000Y-133666666D01*
X85908333Y-133200000D02*
X86075000Y-133666666D01*
X86141666Y-133833333D01*
X86175000Y-133866666D01*
X86241666Y-133900000D01*
X85141666Y-133633333D02*
X85041666Y-133666666D01*
X84875000Y-133666666D01*
X84808333Y-133633333D01*
X84775000Y-133600000D01*
X84741666Y-133533333D01*
X84741666Y-133466666D01*
X84775000Y-133400000D01*
X84808333Y-133366666D01*
X84875000Y-133333333D01*
X85008333Y-133300000D01*
X85075000Y-133266666D01*
X85108333Y-133233333D01*
X85141666Y-133166666D01*
X85141666Y-133100000D01*
X85108333Y-133033333D01*
X85075000Y-133000000D01*
X85008333Y-132966666D01*
X84841666Y-132966666D01*
X84741666Y-133000000D01*
X84175000Y-133633333D02*
X84241666Y-133666666D01*
X84375000Y-133666666D01*
X84441666Y-133633333D01*
X84475000Y-133566666D01*
X84475000Y-133300000D01*
X84441666Y-133233333D01*
X84375000Y-133200000D01*
X84241666Y-133200000D01*
X84175000Y-133233333D01*
X84141666Y-133300000D01*
X84141666Y-133366666D01*
X84475000Y-133433333D01*
X83841666Y-133200000D02*
X83841666Y-133666666D01*
X83841666Y-133266666D02*
X83808333Y-133233333D01*
X83741666Y-133200000D01*
X83641666Y-133200000D01*
X83575000Y-133233333D01*
X83541666Y-133300000D01*
X83541666Y-133666666D01*
X83241666Y-133633333D02*
X83175000Y-133666666D01*
X83041666Y-133666666D01*
X82975000Y-133633333D01*
X82941666Y-133566666D01*
X82941666Y-133533333D01*
X82975000Y-133466666D01*
X83041666Y-133433333D01*
X83141666Y-133433333D01*
X83208333Y-133400000D01*
X83241666Y-133333333D01*
X83241666Y-133300000D01*
X83208333Y-133233333D01*
X83141666Y-133200000D01*
X83041666Y-133200000D01*
X82975000Y-133233333D01*
X82375000Y-133633333D02*
X82441666Y-133666666D01*
X82575000Y-133666666D01*
X82641666Y-133633333D01*
X82675000Y-133566666D01*
X82675000Y-133300000D01*
X82641666Y-133233333D01*
X82575000Y-133200000D01*
X82441666Y-133200000D01*
X82375000Y-133233333D01*
X82341666Y-133300000D01*
X82341666Y-133366666D01*
X82675000Y-133433333D01*
X81541666Y-133466666D02*
X81208333Y-133466666D01*
X81608333Y-133666666D02*
X81375000Y-132966666D01*
X81141666Y-133666666D01*
X80908333Y-133666666D02*
X80908333Y-133200000D01*
X80908333Y-133333333D02*
X80875000Y-133266666D01*
X80841666Y-133233333D01*
X80775000Y-133200000D01*
X80708333Y-133200000D01*
X80475000Y-133666666D02*
X80475000Y-133200000D01*
X80475000Y-133333333D02*
X80441666Y-133266666D01*
X80408333Y-133233333D01*
X80341666Y-133200000D01*
X80275000Y-133200000D01*
X79741666Y-133666666D02*
X79741666Y-133300000D01*
X79775000Y-133233333D01*
X79841666Y-133200000D01*
X79975000Y-133200000D01*
X80041666Y-133233333D01*
X79741666Y-133633333D02*
X79808333Y-133666666D01*
X79975000Y-133666666D01*
X80041666Y-133633333D01*
X80075000Y-133566666D01*
X80075000Y-133500000D01*
X80041666Y-133433333D01*
X79975000Y-133400000D01*
X79808333Y-133400000D01*
X79741666Y-133366666D01*
X79475000Y-133200000D02*
X79308333Y-133666666D01*
X79141666Y-133200000D02*
X79308333Y-133666666D01*
X79375000Y-133833333D01*
X79408333Y-133866666D01*
X79475000Y-133900000D01*
X78441666Y-132966666D02*
X78208333Y-133666666D01*
X77975000Y-132966666D01*
X77608333Y-132966666D02*
X77541666Y-132966666D01*
X77475000Y-133000000D01*
X77441666Y-133033333D01*
X77408333Y-133100000D01*
X77375000Y-133233333D01*
X77375000Y-133400000D01*
X77408333Y-133533333D01*
X77441666Y-133600000D01*
X77475000Y-133633333D01*
X77541666Y-133666666D01*
X77608333Y-133666666D01*
X77675000Y-133633333D01*
X77708333Y-133600000D01*
X77741666Y-133533333D01*
X77775000Y-133400000D01*
X77775000Y-133233333D01*
X77741666Y-133100000D01*
X77708333Y-133033333D01*
X77675000Y-133000000D01*
X77608333Y-132966666D01*
X77075000Y-133600000D02*
X77041666Y-133633333D01*
X77075000Y-133666666D01*
X77108333Y-133633333D01*
X77075000Y-133600000D01*
X77075000Y-133666666D01*
X76375000Y-133666666D02*
X76775000Y-133666666D01*
X76575000Y-133666666D02*
X76575000Y-132966666D01*
X76641666Y-133066666D01*
X76708333Y-133133333D01*
X76775000Y-133166666D01*
G36*
X80725000Y-110800000D02*
G01*
X74325000Y-110800000D01*
X74325000Y-105300000D01*
X80725000Y-105300000D01*
X80725000Y-110800000D01*
G37*
X80725000Y-110800000D02*
X74325000Y-110800000D01*
X74325000Y-105300000D01*
X80725000Y-105300000D01*
X80725000Y-110800000D01*
D11*
X88505000Y-135000033D02*
G75*
G03X90005000Y-133510000I0J1500033D01*
G01*
X64998200Y-133501400D02*
G75*
G03X66498200Y-135001400I1500000J0D01*
G01*
X82000000Y-112100000D02*
X82000000Y-111100000D01*
X73000000Y-112100000D02*
X73000000Y-111100000D01*
X72000000Y-109800000D02*
X73000000Y-109800000D01*
X82000000Y-110000000D02*
X83000000Y-110000000D01*
X83000000Y-106000000D02*
X83000000Y-110000000D01*
X82000000Y-106000000D02*
X83000000Y-106000000D01*
X82000000Y-106000000D02*
X82000000Y-110000000D01*
X72000000Y-106000000D02*
X72000000Y-109800000D01*
X73000000Y-106000000D02*
X72000000Y-106000000D01*
X73000000Y-109800000D02*
X73000000Y-106000000D01*
X82000000Y-112100000D02*
X73000000Y-112100000D01*
X66500000Y-105000000D02*
G75*
G03X65000000Y-106500000I0J-1500000D01*
G01*
X90000000Y-106500000D02*
G75*
G03X88500000Y-105000000I-1500000J0D01*
G01*
X90000000Y-106500000D02*
X90005000Y-133510000D01*
X65001100Y-106500000D02*
X64999600Y-133501400D01*
X66500000Y-105000000D02*
X88500000Y-105000000D01*
X88500000Y-107700000D02*
X88500000Y-119700000D01*
X86500000Y-119700000D02*
X86500000Y-107700000D01*
X88500000Y-119700000D02*
G75*
G02X86500000Y-119700000I-1000000J0D01*
G01*
X86500000Y-107700000D02*
G75*
G02X88500000Y-107700000I1000000J0D01*
G01*
X68500000Y-107700000D02*
X68500000Y-119700000D01*
X66500000Y-107700000D02*
G75*
G02X68500000Y-107700000I1000000J0D01*
G01*
X68500000Y-119700000D02*
G75*
G02X66500000Y-119700000I-1000000J0D01*
G01*
X66500000Y-119700000D02*
X66500000Y-107700000D01*
X73000000Y-111100000D02*
X82000000Y-111100000D01*
X88505000Y-135000000D02*
X66498200Y-135000000D01*
D12*
G36*
X70520390Y-130352813D02*
G01*
X70392678Y-130399832D01*
X70267293Y-130487206D01*
X70142997Y-130615894D01*
X70046430Y-130753403D01*
X70004231Y-130867239D01*
X70004000Y-130873900D01*
X70047980Y-130934724D01*
X70154558Y-130992016D01*
X70285700Y-131028289D01*
X70350208Y-131033055D01*
X70465971Y-131006657D01*
X70526968Y-130978461D01*
X70611922Y-130901151D01*
X70708608Y-130774382D01*
X70798619Y-130628551D01*
X70863548Y-130494054D01*
X70884990Y-130401288D01*
X70882686Y-130391037D01*
X70813646Y-130339138D01*
X70682453Y-130326584D01*
X70520390Y-130352813D01*
G37*
X70520390Y-130352813D02*
X70392678Y-130399832D01*
X70267293Y-130487206D01*
X70142997Y-130615894D01*
X70046430Y-130753403D01*
X70004231Y-130867239D01*
X70004000Y-130873900D01*
X70047980Y-130934724D01*
X70154558Y-130992016D01*
X70285700Y-131028289D01*
X70350208Y-131033055D01*
X70465971Y-131006657D01*
X70526968Y-130978461D01*
X70611922Y-130901151D01*
X70708608Y-130774382D01*
X70798619Y-130628551D01*
X70863548Y-130494054D01*
X70884990Y-130401288D01*
X70882686Y-130391037D01*
X70813646Y-130339138D01*
X70682453Y-130326584D01*
X70520390Y-130352813D01*
G36*
X69348137Y-126767900D02*
G01*
X69014827Y-126769856D01*
X68759662Y-126773946D01*
X68570917Y-126780851D01*
X68436867Y-126791252D01*
X68345786Y-126805827D01*
X68285947Y-126825257D01*
X68245626Y-126850223D01*
X68238465Y-126856299D01*
X68183783Y-126926264D01*
X68090256Y-127069006D01*
X67966006Y-127270279D01*
X67819150Y-127515838D01*
X67657810Y-127791439D01*
X67490104Y-128082835D01*
X67324152Y-128375781D01*
X67168075Y-128656032D01*
X67029990Y-128909343D01*
X66918019Y-129121468D01*
X66840281Y-129278162D01*
X66804896Y-129365179D01*
X66803600Y-129373668D01*
X66826194Y-129465851D01*
X66884510Y-129610125D01*
X66941879Y-129728188D01*
X67080157Y-129993200D01*
X67112868Y-129663000D01*
X67161915Y-129349803D01*
X67242936Y-129119211D01*
X67363698Y-128955156D01*
X67502691Y-128856394D01*
X67652808Y-128831909D01*
X67829060Y-128898360D01*
X68022652Y-129051277D01*
X68142518Y-129181532D01*
X68291000Y-129337783D01*
X68400433Y-129402981D01*
X68473945Y-129378508D01*
X68496491Y-129337699D01*
X68509069Y-129240044D01*
X68476509Y-129110363D01*
X68392949Y-128934090D01*
X68252525Y-128696659D01*
X68213742Y-128635279D01*
X68095990Y-128446835D01*
X68026304Y-128318997D01*
X67996530Y-128227743D01*
X67998516Y-128149051D01*
X68021136Y-128067843D01*
X68095215Y-127906427D01*
X68181924Y-127813173D01*
X68266564Y-127803136D01*
X68275087Y-127807741D01*
X68342219Y-127880274D01*
X68439376Y-128023854D01*
X68554890Y-128216871D01*
X68677098Y-128437719D01*
X68794333Y-128664791D01*
X68894930Y-128876479D01*
X68967222Y-129051175D01*
X68995057Y-129141287D01*
X69026759Y-129410253D01*
X69006725Y-129669024D01*
X68942802Y-129902206D01*
X68842835Y-130094408D01*
X68714668Y-130230237D01*
X68566147Y-130294301D01*
X68416702Y-130276010D01*
X68324088Y-130217597D01*
X68191823Y-130107960D01*
X68050110Y-129972391D01*
X67886956Y-129815408D01*
X67773749Y-129735873D01*
X67699071Y-129730258D01*
X67651506Y-129795036D01*
X67636321Y-129844546D01*
X67625095Y-129934348D01*
X67641632Y-130034449D01*
X67693233Y-130161904D01*
X67787198Y-130333766D01*
X67930828Y-130567090D01*
X67976033Y-130638089D01*
X68087158Y-130820980D01*
X68172895Y-130979443D01*
X68220458Y-131089039D01*
X68226000Y-131115893D01*
X68196600Y-131209866D01*
X68123528Y-131335502D01*
X68098839Y-131369527D01*
X67971677Y-131536244D01*
X68079231Y-131718534D01*
X68169832Y-131846990D01*
X68260283Y-131938004D01*
X68279253Y-131950312D01*
X68360386Y-131967422D01*
X68523122Y-131981970D01*
X68747472Y-131992837D01*
X69013450Y-131998908D01*
X69164886Y-131999800D01*
X69958052Y-131999800D01*
X70084527Y-131863330D01*
X70178286Y-131740162D01*
X70191215Y-131650094D01*
X70117308Y-131584436D01*
X69950559Y-131534499D01*
X69843640Y-131514842D01*
X69548493Y-131446385D01*
X69347425Y-131349586D01*
X69235322Y-131218084D01*
X69207069Y-131045520D01*
X69257552Y-130825533D01*
X69267582Y-130798456D01*
X69443926Y-130475069D01*
X69700317Y-130208178D01*
X70027803Y-130005269D01*
X70355505Y-129888660D01*
X70538685Y-129855034D01*
X70766560Y-129832782D01*
X71018580Y-129821498D01*
X71274192Y-129820775D01*
X71512845Y-129830207D01*
X71713987Y-129849388D01*
X71857065Y-129877912D01*
X71921529Y-129915372D01*
X71922870Y-129919642D01*
X71902843Y-129985436D01*
X71838272Y-130124462D01*
X71736489Y-130322594D01*
X71604825Y-130565704D01*
X71450610Y-130839665D01*
X71398284Y-130930526D01*
X71236379Y-131211187D01*
X71091379Y-131464547D01*
X70971223Y-131676567D01*
X70883853Y-131833210D01*
X70837208Y-131920438D01*
X70832261Y-131931184D01*
X70852467Y-131979140D01*
X70939832Y-132000913D01*
X71063702Y-131997798D01*
X71193423Y-131971091D01*
X71298339Y-131922087D01*
X71312336Y-131910900D01*
X71369065Y-131838915D01*
X71464232Y-131694141D01*
X71589728Y-131490873D01*
X71737447Y-131243407D01*
X71899281Y-130966038D01*
X72067122Y-130673062D01*
X72232863Y-130378775D01*
X72388396Y-130097473D01*
X72525614Y-129843453D01*
X72636409Y-129631008D01*
X72712674Y-129474437D01*
X72746300Y-129388033D01*
X72747200Y-129380835D01*
X72722298Y-129310542D01*
X72652995Y-129167423D01*
X72547395Y-128965632D01*
X72413605Y-128719326D01*
X72259729Y-128442659D01*
X72093873Y-128149785D01*
X71924141Y-127854861D01*
X71758639Y-127572040D01*
X71605472Y-127315478D01*
X71472744Y-127099330D01*
X71368562Y-126937750D01*
X71301031Y-126844893D01*
X71287102Y-126830900D01*
X71232209Y-126810787D01*
X71120650Y-126794964D01*
X70944025Y-126783081D01*
X70693932Y-126774785D01*
X70361971Y-126769724D01*
X69939743Y-126767546D01*
X69771319Y-126767399D01*
X69348137Y-126767900D01*
G37*
X69348137Y-126767900D02*
X69014827Y-126769856D01*
X68759662Y-126773946D01*
X68570917Y-126780851D01*
X68436867Y-126791252D01*
X68345786Y-126805827D01*
X68285947Y-126825257D01*
X68245626Y-126850223D01*
X68238465Y-126856299D01*
X68183783Y-126926264D01*
X68090256Y-127069006D01*
X67966006Y-127270279D01*
X67819150Y-127515838D01*
X67657810Y-127791439D01*
X67490104Y-128082835D01*
X67324152Y-128375781D01*
X67168075Y-128656032D01*
X67029990Y-128909343D01*
X66918019Y-129121468D01*
X66840281Y-129278162D01*
X66804896Y-129365179D01*
X66803600Y-129373668D01*
X66826194Y-129465851D01*
X66884510Y-129610125D01*
X66941879Y-129728188D01*
X67080157Y-129993200D01*
X67112868Y-129663000D01*
X67161915Y-129349803D01*
X67242936Y-129119211D01*
X67363698Y-128955156D01*
X67502691Y-128856394D01*
X67652808Y-128831909D01*
X67829060Y-128898360D01*
X68022652Y-129051277D01*
X68142518Y-129181532D01*
X68291000Y-129337783D01*
X68400433Y-129402981D01*
X68473945Y-129378508D01*
X68496491Y-129337699D01*
X68509069Y-129240044D01*
X68476509Y-129110363D01*
X68392949Y-128934090D01*
X68252525Y-128696659D01*
X68213742Y-128635279D01*
X68095990Y-128446835D01*
X68026304Y-128318997D01*
X67996530Y-128227743D01*
X67998516Y-128149051D01*
X68021136Y-128067843D01*
X68095215Y-127906427D01*
X68181924Y-127813173D01*
X68266564Y-127803136D01*
X68275087Y-127807741D01*
X68342219Y-127880274D01*
X68439376Y-128023854D01*
X68554890Y-128216871D01*
X68677098Y-128437719D01*
X68794333Y-128664791D01*
X68894930Y-128876479D01*
X68967222Y-129051175D01*
X68995057Y-129141287D01*
X69026759Y-129410253D01*
X69006725Y-129669024D01*
X68942802Y-129902206D01*
X68842835Y-130094408D01*
X68714668Y-130230237D01*
X68566147Y-130294301D01*
X68416702Y-130276010D01*
X68324088Y-130217597D01*
X68191823Y-130107960D01*
X68050110Y-129972391D01*
X67886956Y-129815408D01*
X67773749Y-129735873D01*
X67699071Y-129730258D01*
X67651506Y-129795036D01*
X67636321Y-129844546D01*
X67625095Y-129934348D01*
X67641632Y-130034449D01*
X67693233Y-130161904D01*
X67787198Y-130333766D01*
X67930828Y-130567090D01*
X67976033Y-130638089D01*
X68087158Y-130820980D01*
X68172895Y-130979443D01*
X68220458Y-131089039D01*
X68226000Y-131115893D01*
X68196600Y-131209866D01*
X68123528Y-131335502D01*
X68098839Y-131369527D01*
X67971677Y-131536244D01*
X68079231Y-131718534D01*
X68169832Y-131846990D01*
X68260283Y-131938004D01*
X68279253Y-131950312D01*
X68360386Y-131967422D01*
X68523122Y-131981970D01*
X68747472Y-131992837D01*
X69013450Y-131998908D01*
X69164886Y-131999800D01*
X69958052Y-131999800D01*
X70084527Y-131863330D01*
X70178286Y-131740162D01*
X70191215Y-131650094D01*
X70117308Y-131584436D01*
X69950559Y-131534499D01*
X69843640Y-131514842D01*
X69548493Y-131446385D01*
X69347425Y-131349586D01*
X69235322Y-131218084D01*
X69207069Y-131045520D01*
X69257552Y-130825533D01*
X69267582Y-130798456D01*
X69443926Y-130475069D01*
X69700317Y-130208178D01*
X70027803Y-130005269D01*
X70355505Y-129888660D01*
X70538685Y-129855034D01*
X70766560Y-129832782D01*
X71018580Y-129821498D01*
X71274192Y-129820775D01*
X71512845Y-129830207D01*
X71713987Y-129849388D01*
X71857065Y-129877912D01*
X71921529Y-129915372D01*
X71922870Y-129919642D01*
X71902843Y-129985436D01*
X71838272Y-130124462D01*
X71736489Y-130322594D01*
X71604825Y-130565704D01*
X71450610Y-130839665D01*
X71398284Y-130930526D01*
X71236379Y-131211187D01*
X71091379Y-131464547D01*
X70971223Y-131676567D01*
X70883853Y-131833210D01*
X70837208Y-131920438D01*
X70832261Y-131931184D01*
X70852467Y-131979140D01*
X70939832Y-132000913D01*
X71063702Y-131997798D01*
X71193423Y-131971091D01*
X71298339Y-131922087D01*
X71312336Y-131910900D01*
X71369065Y-131838915D01*
X71464232Y-131694141D01*
X71589728Y-131490873D01*
X71737447Y-131243407D01*
X71899281Y-130966038D01*
X72067122Y-130673062D01*
X72232863Y-130378775D01*
X72388396Y-130097473D01*
X72525614Y-129843453D01*
X72636409Y-129631008D01*
X72712674Y-129474437D01*
X72746300Y-129388033D01*
X72747200Y-129380835D01*
X72722298Y-129310542D01*
X72652995Y-129167423D01*
X72547395Y-128965632D01*
X72413605Y-128719326D01*
X72259729Y-128442659D01*
X72093873Y-128149785D01*
X71924141Y-127854861D01*
X71758639Y-127572040D01*
X71605472Y-127315478D01*
X71472744Y-127099330D01*
X71368562Y-126937750D01*
X71301031Y-126844893D01*
X71287102Y-126830900D01*
X71232209Y-126810787D01*
X71120650Y-126794964D01*
X70944025Y-126783081D01*
X70693932Y-126774785D01*
X70361971Y-126769724D01*
X69939743Y-126767546D01*
X69771319Y-126767399D01*
X69348137Y-126767900D01*
G36*
X66333016Y-133127460D02*
G01*
X66162008Y-133164203D01*
X66044138Y-133256682D01*
X66027022Y-133278533D01*
X65952541Y-133415281D01*
X65967516Y-133508402D01*
X66073872Y-133560534D01*
X66243206Y-133574600D01*
X66403432Y-133586199D01*
X66487496Y-133616222D01*
X66486902Y-133657504D01*
X66394763Y-133702373D01*
X66278003Y-133703381D01*
X66217610Y-133674713D01*
X66112198Y-133639673D01*
X66054947Y-133648890D01*
X66000948Y-133680027D01*
X66018489Y-133722992D01*
X66085328Y-133781574D01*
X66257683Y-133865194D01*
X66443416Y-133864914D01*
X66594620Y-133790500D01*
X66707834Y-133637696D01*
X66733602Y-133457879D01*
X66697424Y-133358700D01*
X66486100Y-133358700D01*
X66459666Y-133406873D01*
X66346400Y-133422200D01*
X66229953Y-133405426D01*
X66206700Y-133358700D01*
X66267931Y-133309113D01*
X66346400Y-133295200D01*
X66446944Y-133319147D01*
X66486100Y-133358700D01*
X66697424Y-133358700D01*
X66668914Y-133280545D01*
X66649408Y-133253659D01*
X66556734Y-133159738D01*
X66451181Y-133125518D01*
X66333016Y-133127460D01*
G37*
X66333016Y-133127460D02*
X66162008Y-133164203D01*
X66044138Y-133256682D01*
X66027022Y-133278533D01*
X65952541Y-133415281D01*
X65967516Y-133508402D01*
X66073872Y-133560534D01*
X66243206Y-133574600D01*
X66403432Y-133586199D01*
X66487496Y-133616222D01*
X66486902Y-133657504D01*
X66394763Y-133702373D01*
X66278003Y-133703381D01*
X66217610Y-133674713D01*
X66112198Y-133639673D01*
X66054947Y-133648890D01*
X66000948Y-133680027D01*
X66018489Y-133722992D01*
X66085328Y-133781574D01*
X66257683Y-133865194D01*
X66443416Y-133864914D01*
X66594620Y-133790500D01*
X66707834Y-133637696D01*
X66733602Y-133457879D01*
X66697424Y-133358700D01*
X66486100Y-133358700D01*
X66459666Y-133406873D01*
X66346400Y-133422200D01*
X66229953Y-133405426D01*
X66206700Y-133358700D01*
X66267931Y-133309113D01*
X66346400Y-133295200D01*
X66446944Y-133319147D01*
X66486100Y-133358700D01*
X66697424Y-133358700D01*
X66668914Y-133280545D01*
X66649408Y-133253659D01*
X66556734Y-133159738D01*
X66451181Y-133125518D01*
X66333016Y-133127460D01*
G36*
X66965414Y-133137339D02*
G01*
X66859674Y-133186949D01*
X66812975Y-133250915D01*
X66844582Y-133313923D01*
X66854930Y-133320927D01*
X66957030Y-133335719D01*
X67013083Y-133317237D01*
X67141840Y-133290822D01*
X67240385Y-133341659D01*
X67286615Y-133445725D01*
X67258423Y-133578998D01*
X67256788Y-133582098D01*
X67203796Y-133646732D01*
X67118748Y-133664004D01*
X67002970Y-133650152D01*
X66871787Y-133635673D01*
X66813756Y-133655339D01*
X66803600Y-133695347D01*
X66845944Y-133795989D01*
X66953817Y-133855818D01*
X67098487Y-133871925D01*
X67251220Y-133841402D01*
X67383281Y-133761340D01*
X67390110Y-133754709D01*
X67489372Y-133596788D01*
X67502847Y-133430250D01*
X67441001Y-133278994D01*
X67314304Y-133166915D01*
X67133224Y-133117913D01*
X67110934Y-133117400D01*
X66965414Y-133137339D01*
G37*
X66965414Y-133137339D02*
X66859674Y-133186949D01*
X66812975Y-133250915D01*
X66844582Y-133313923D01*
X66854930Y-133320927D01*
X66957030Y-133335719D01*
X67013083Y-133317237D01*
X67141840Y-133290822D01*
X67240385Y-133341659D01*
X67286615Y-133445725D01*
X67258423Y-133578998D01*
X67256788Y-133582098D01*
X67203796Y-133646732D01*
X67118748Y-133664004D01*
X67002970Y-133650152D01*
X66871787Y-133635673D01*
X66813756Y-133655339D01*
X66803600Y-133695347D01*
X66845944Y-133795989D01*
X66953817Y-133855818D01*
X67098487Y-133871925D01*
X67251220Y-133841402D01*
X67383281Y-133761340D01*
X67390110Y-133754709D01*
X67489372Y-133596788D01*
X67502847Y-133430250D01*
X67441001Y-133278994D01*
X67314304Y-133166915D01*
X67133224Y-133117913D01*
X67110934Y-133117400D01*
X66965414Y-133137339D01*
G36*
X67778157Y-133158657D02*
G01*
X67707279Y-133206300D01*
X67658372Y-133302996D01*
X67619695Y-133449449D01*
X67595772Y-133611458D01*
X67591129Y-133754818D01*
X67610291Y-133845329D01*
X67621187Y-133856958D01*
X67697003Y-133854744D01*
X67747779Y-133824966D01*
X67828282Y-133788452D01*
X67882713Y-133820592D01*
X68001106Y-133875303D01*
X68141319Y-133855512D01*
X68248106Y-133781440D01*
X68304058Y-133661401D01*
X68294712Y-133616152D01*
X68114645Y-133616152D01*
X68099000Y-133676200D01*
X68019715Y-133724327D01*
X67916230Y-133695195D01*
X67880560Y-133666040D01*
X67823454Y-133580719D01*
X67860444Y-133533655D01*
X67943602Y-133523800D01*
X68063915Y-133549934D01*
X68114645Y-133616152D01*
X68294712Y-133616152D01*
X68279406Y-133542055D01*
X68193059Y-133444593D01*
X68063925Y-133390203D01*
X67910911Y-133400075D01*
X67908480Y-133400837D01*
X67834274Y-133407873D01*
X67831027Y-133364030D01*
X67895921Y-133315224D01*
X68028381Y-133295246D01*
X68035923Y-133295200D01*
X68186673Y-133280950D01*
X68263634Y-133243445D01*
X68255307Y-133190550D01*
X68224529Y-133166215D01*
X68091178Y-133123512D01*
X67926745Y-133122205D01*
X67778157Y-133158657D01*
G37*
X67778157Y-133158657D02*
X67707279Y-133206300D01*
X67658372Y-133302996D01*
X67619695Y-133449449D01*
X67595772Y-133611458D01*
X67591129Y-133754818D01*
X67610291Y-133845329D01*
X67621187Y-133856958D01*
X67697003Y-133854744D01*
X67747779Y-133824966D01*
X67828282Y-133788452D01*
X67882713Y-133820592D01*
X68001106Y-133875303D01*
X68141319Y-133855512D01*
X68248106Y-133781440D01*
X68304058Y-133661401D01*
X68294712Y-133616152D01*
X68114645Y-133616152D01*
X68099000Y-133676200D01*
X68019715Y-133724327D01*
X67916230Y-133695195D01*
X67880560Y-133666040D01*
X67823454Y-133580719D01*
X67860444Y-133533655D01*
X67943602Y-133523800D01*
X68063915Y-133549934D01*
X68114645Y-133616152D01*
X68294712Y-133616152D01*
X68279406Y-133542055D01*
X68193059Y-133444593D01*
X68063925Y-133390203D01*
X67910911Y-133400075D01*
X67908480Y-133400837D01*
X67834274Y-133407873D01*
X67831027Y-133364030D01*
X67895921Y-133315224D01*
X68028381Y-133295246D01*
X68035923Y-133295200D01*
X68186673Y-133280950D01*
X68263634Y-133243445D01*
X68255307Y-133190550D01*
X68224529Y-133166215D01*
X68091178Y-133123512D01*
X67926745Y-133122205D01*
X67778157Y-133158657D01*
G36*
X69379658Y-132926900D02*
G01*
X69318897Y-133005830D01*
X69340390Y-133066835D01*
X69424830Y-133089115D01*
X69512474Y-133069993D01*
X69648518Y-133042409D01*
X69755504Y-133061733D01*
X69800737Y-133121768D01*
X69800800Y-133124640D01*
X69758092Y-133169711D01*
X69648760Y-133233668D01*
X69560520Y-133274806D01*
X69383716Y-133361058D01*
X69285618Y-133441819D01*
X69246443Y-133536546D01*
X69242778Y-133587300D01*
X69286331Y-133720686D01*
X69403407Y-133817400D01*
X69569731Y-133868302D01*
X69761027Y-133864250D01*
X69884502Y-133828939D01*
X70003628Y-133757803D01*
X70026808Y-133674686D01*
X70007109Y-133630429D01*
X69950378Y-133590224D01*
X69861401Y-133620155D01*
X69726923Y-133664357D01*
X69622615Y-133676200D01*
X69522022Y-133653842D01*
X69502380Y-133598259D01*
X69556455Y-133526683D01*
X69677016Y-133456345D01*
X69722153Y-133439064D01*
X69889223Y-133365097D01*
X69975875Y-133276501D01*
X70002995Y-133150904D01*
X70003223Y-133137973D01*
X69959549Y-133011714D01*
X69846040Y-132917557D01*
X69692008Y-132865424D01*
X69526767Y-132865238D01*
X69379658Y-132926900D01*
G37*
X69379658Y-132926900D02*
X69318897Y-133005830D01*
X69340390Y-133066835D01*
X69424830Y-133089115D01*
X69512474Y-133069993D01*
X69648518Y-133042409D01*
X69755504Y-133061733D01*
X69800737Y-133121768D01*
X69800800Y-133124640D01*
X69758092Y-133169711D01*
X69648760Y-133233668D01*
X69560520Y-133274806D01*
X69383716Y-133361058D01*
X69285618Y-133441819D01*
X69246443Y-133536546D01*
X69242778Y-133587300D01*
X69286331Y-133720686D01*
X69403407Y-133817400D01*
X69569731Y-133868302D01*
X69761027Y-133864250D01*
X69884502Y-133828939D01*
X70003628Y-133757803D01*
X70026808Y-133674686D01*
X70007109Y-133630429D01*
X69950378Y-133590224D01*
X69861401Y-133620155D01*
X69726923Y-133664357D01*
X69622615Y-133676200D01*
X69522022Y-133653842D01*
X69502380Y-133598259D01*
X69556455Y-133526683D01*
X69677016Y-133456345D01*
X69722153Y-133439064D01*
X69889223Y-133365097D01*
X69975875Y-133276501D01*
X70002995Y-133150904D01*
X70003223Y-133137973D01*
X69959549Y-133011714D01*
X69846040Y-132917557D01*
X69692008Y-132865424D01*
X69526767Y-132865238D01*
X69379658Y-132926900D01*
G36*
X70293909Y-133159405D02*
G01*
X70163185Y-133277203D01*
X70106877Y-133458464D01*
X70105600Y-133494712D01*
X70151071Y-133664667D01*
X70268343Y-133800750D01*
X70428705Y-133873972D01*
X70486600Y-133879400D01*
X70605583Y-133848622D01*
X70733169Y-133774568D01*
X70733750Y-133774112D01*
X70845556Y-133633441D01*
X70875196Y-133473358D01*
X70868511Y-133449416D01*
X70653037Y-133449416D01*
X70643815Y-133548103D01*
X70599042Y-133646184D01*
X70511082Y-133669869D01*
X70472129Y-133666703D01*
X70371428Y-133636851D01*
X70336428Y-133557105D01*
X70334200Y-133503936D01*
X70364404Y-133365798D01*
X70439881Y-133289551D01*
X70537928Y-133290418D01*
X70593834Y-133329861D01*
X70653037Y-133449416D01*
X70868511Y-133449416D01*
X70831992Y-133318634D01*
X70725267Y-133194042D01*
X70564344Y-133124353D01*
X70486600Y-133117400D01*
X70293909Y-133159405D01*
G37*
X70293909Y-133159405D02*
X70163185Y-133277203D01*
X70106877Y-133458464D01*
X70105600Y-133494712D01*
X70151071Y-133664667D01*
X70268343Y-133800750D01*
X70428705Y-133873972D01*
X70486600Y-133879400D01*
X70605583Y-133848622D01*
X70733169Y-133774568D01*
X70733750Y-133774112D01*
X70845556Y-133633441D01*
X70875196Y-133473358D01*
X70868511Y-133449416D01*
X70653037Y-133449416D01*
X70643815Y-133548103D01*
X70599042Y-133646184D01*
X70511082Y-133669869D01*
X70472129Y-133666703D01*
X70371428Y-133636851D01*
X70336428Y-133557105D01*
X70334200Y-133503936D01*
X70364404Y-133365798D01*
X70439881Y-133289551D01*
X70537928Y-133290418D01*
X70593834Y-133329861D01*
X70653037Y-133449416D01*
X70868511Y-133449416D01*
X70831992Y-133318634D01*
X70725267Y-133194042D01*
X70564344Y-133124353D01*
X70486600Y-133117400D01*
X70293909Y-133159405D01*
G36*
X71179800Y-132875538D02*
G01*
X71113097Y-132926382D01*
X71079967Y-133003618D01*
X71039649Y-133092721D01*
X70991067Y-133117400D01*
X70926802Y-133158141D01*
X70918400Y-133193600D01*
X70959064Y-133260949D01*
X70994600Y-133269800D01*
X71047585Y-133303353D01*
X71069418Y-133414581D01*
X71070800Y-133473000D01*
X71056261Y-133618988D01*
X71010855Y-133675057D01*
X71000036Y-133676200D01*
X70924160Y-133710591D01*
X70899729Y-133782419D01*
X70939980Y-133844663D01*
X70951163Y-133849795D01*
X71083099Y-133877296D01*
X71200704Y-133866871D01*
X71240134Y-133845533D01*
X71260365Y-133778377D01*
X71272472Y-133647594D01*
X71274000Y-133576293D01*
X71286721Y-133421390D01*
X71318804Y-133305567D01*
X71336228Y-133278692D01*
X71373052Y-133208014D01*
X71336228Y-133116821D01*
X71285752Y-133002384D01*
X71274000Y-132936564D01*
X71244778Y-132875012D01*
X71179800Y-132875538D01*
G37*
X71179800Y-132875538D02*
X71113097Y-132926382D01*
X71079967Y-133003618D01*
X71039649Y-133092721D01*
X70991067Y-133117400D01*
X70926802Y-133158141D01*
X70918400Y-133193600D01*
X70959064Y-133260949D01*
X70994600Y-133269800D01*
X71047585Y-133303353D01*
X71069418Y-133414581D01*
X71070800Y-133473000D01*
X71056261Y-133618988D01*
X71010855Y-133675057D01*
X71000036Y-133676200D01*
X70924160Y-133710591D01*
X70899729Y-133782419D01*
X70939980Y-133844663D01*
X70951163Y-133849795D01*
X71083099Y-133877296D01*
X71200704Y-133866871D01*
X71240134Y-133845533D01*
X71260365Y-133778377D01*
X71272472Y-133647594D01*
X71274000Y-133576293D01*
X71286721Y-133421390D01*
X71318804Y-133305567D01*
X71336228Y-133278692D01*
X71373052Y-133208014D01*
X71336228Y-133116821D01*
X71285752Y-133002384D01*
X71274000Y-132936564D01*
X71244778Y-132875012D01*
X71179800Y-132875538D01*
G36*
X71670265Y-133139817D02*
G01*
X71555964Y-133222625D01*
X71527717Y-133256298D01*
X71449043Y-133421879D01*
X71455052Y-133585404D01*
X71530163Y-133728392D01*
X71658796Y-133832363D01*
X71825369Y-133878835D01*
X72014301Y-133849327D01*
X72024369Y-133845399D01*
X72109922Y-133767360D01*
X72180284Y-133633411D01*
X72216102Y-133489158D01*
X72215617Y-133482150D01*
X71985064Y-133482150D01*
X71976319Y-133595102D01*
X71951334Y-133642333D01*
X71855489Y-133677069D01*
X71746000Y-133644451D01*
X71682370Y-133578280D01*
X71654269Y-133445984D01*
X71702156Y-133340614D01*
X71804394Y-133288522D01*
X71909000Y-133302229D01*
X71960530Y-133367698D01*
X71985064Y-133482150D01*
X72215617Y-133482150D01*
X72210409Y-133406961D01*
X72117762Y-133229542D01*
X71969593Y-133135990D01*
X71828614Y-133117400D01*
X71670265Y-133139817D01*
G37*
X71670265Y-133139817D02*
X71555964Y-133222625D01*
X71527717Y-133256298D01*
X71449043Y-133421879D01*
X71455052Y-133585404D01*
X71530163Y-133728392D01*
X71658796Y-133832363D01*
X71825369Y-133878835D01*
X72014301Y-133849327D01*
X72024369Y-133845399D01*
X72109922Y-133767360D01*
X72180284Y-133633411D01*
X72216102Y-133489158D01*
X72215617Y-133482150D01*
X71985064Y-133482150D01*
X71976319Y-133595102D01*
X71951334Y-133642333D01*
X71855489Y-133677069D01*
X71746000Y-133644451D01*
X71682370Y-133578280D01*
X71654269Y-133445984D01*
X71702156Y-133340614D01*
X71804394Y-133288522D01*
X71909000Y-133302229D01*
X71960530Y-133367698D01*
X71985064Y-133482150D01*
X72215617Y-133482150D01*
X72210409Y-133406961D01*
X72117762Y-133229542D01*
X71969593Y-133135990D01*
X71828614Y-133117400D01*
X71670265Y-133139817D01*
G36*
X72251141Y-133152013D02*
G01*
X72243483Y-133228124D01*
X72284567Y-133304139D01*
X72337791Y-133334532D01*
X72401849Y-133374562D01*
X72437056Y-133468828D01*
X72452091Y-133606700D01*
X72475430Y-133775483D01*
X72520892Y-133856960D01*
X72546478Y-133867999D01*
X72636820Y-133861511D01*
X72660778Y-133847289D01*
X72679288Y-133781381D01*
X72692169Y-133644952D01*
X72696400Y-133488338D01*
X72690042Y-133298821D01*
X72667729Y-133189126D01*
X72624606Y-133138086D01*
X72615074Y-133133803D01*
X72525794Y-133138232D01*
X72494424Y-133166221D01*
X72447316Y-133200724D01*
X72420352Y-133173623D01*
X72343400Y-133121791D01*
X72312402Y-133117400D01*
X72251141Y-133152013D01*
G37*
X72251141Y-133152013D02*
X72243483Y-133228124D01*
X72284567Y-133304139D01*
X72337791Y-133334532D01*
X72401849Y-133374562D01*
X72437056Y-133468828D01*
X72452091Y-133606700D01*
X72475430Y-133775483D01*
X72520892Y-133856960D01*
X72546478Y-133867999D01*
X72636820Y-133861511D01*
X72660778Y-133847289D01*
X72679288Y-133781381D01*
X72692169Y-133644952D01*
X72696400Y-133488338D01*
X72690042Y-133298821D01*
X72667729Y-133189126D01*
X72624606Y-133138086D01*
X72615074Y-133133803D01*
X72525794Y-133138232D01*
X72494424Y-133166221D01*
X72447316Y-133200724D01*
X72420352Y-133173623D01*
X72343400Y-133121791D01*
X72312402Y-133117400D01*
X72251141Y-133152013D01*
G36*
X73062633Y-132870660D02*
G01*
X72956067Y-132901061D01*
X72876992Y-132967530D01*
X72852488Y-132997250D01*
X72767321Y-133129459D01*
X72760234Y-133237524D01*
X72831226Y-133362313D01*
X72852488Y-133389949D01*
X72977231Y-133495512D01*
X73131888Y-133523800D01*
X73248609Y-133531909D01*
X73296480Y-133576992D01*
X73305984Y-133690178D01*
X73306000Y-133701600D01*
X73317366Y-133824143D01*
X73361734Y-133873588D01*
X73407600Y-133879400D01*
X73453842Y-133872427D01*
X73483445Y-133839251D01*
X73500085Y-133761482D01*
X73507442Y-133620730D01*
X73509192Y-133398606D01*
X73509200Y-133371400D01*
X73509200Y-133193600D01*
X73306000Y-133193600D01*
X73289598Y-133284363D01*
X73219873Y-133317567D01*
X73153600Y-133320600D01*
X73044684Y-133306931D01*
X73004840Y-133248827D01*
X73001200Y-133193600D01*
X73017603Y-133102836D01*
X73087328Y-133069632D01*
X73153600Y-133066600D01*
X73262517Y-133080268D01*
X73302361Y-133138372D01*
X73306000Y-133193600D01*
X73509200Y-133193600D01*
X73509200Y-132863400D01*
X73233488Y-132863400D01*
X73062633Y-132870660D01*
G37*
X73062633Y-132870660D02*
X72956067Y-132901061D01*
X72876992Y-132967530D01*
X72852488Y-132997250D01*
X72767321Y-133129459D01*
X72760234Y-133237524D01*
X72831226Y-133362313D01*
X72852488Y-133389949D01*
X72977231Y-133495512D01*
X73131888Y-133523800D01*
X73248609Y-133531909D01*
X73296480Y-133576992D01*
X73305984Y-133690178D01*
X73306000Y-133701600D01*
X73317366Y-133824143D01*
X73361734Y-133873588D01*
X73407600Y-133879400D01*
X73453842Y-133872427D01*
X73483445Y-133839251D01*
X73500085Y-133761482D01*
X73507442Y-133620730D01*
X73509192Y-133398606D01*
X73509200Y-133371400D01*
X73509200Y-133193600D01*
X73306000Y-133193600D01*
X73289598Y-133284363D01*
X73219873Y-133317567D01*
X73153600Y-133320600D01*
X73044684Y-133306931D01*
X73004840Y-133248827D01*
X73001200Y-133193600D01*
X73017603Y-133102836D01*
X73087328Y-133069632D01*
X73153600Y-133066600D01*
X73262517Y-133080268D01*
X73302361Y-133138372D01*
X73306000Y-133193600D01*
X73509200Y-133193600D01*
X73509200Y-132863400D01*
X73233488Y-132863400D01*
X73062633Y-132870660D01*
G36*
X68672602Y-133133074D02*
G01*
X68552180Y-133165977D01*
X68478418Y-133220582D01*
X68396934Y-133366305D01*
X68381303Y-133545132D01*
X68431398Y-133712905D01*
X68480000Y-133777800D01*
X68601467Y-133854044D01*
X68736415Y-133877171D01*
X68845218Y-133843315D01*
X68870702Y-133815900D01*
X68903127Y-133813163D01*
X68930401Y-133905591D01*
X68937200Y-133951629D01*
X68974436Y-134103075D01*
X69032339Y-134174193D01*
X69102165Y-134154601D01*
X69105475Y-134151391D01*
X69120480Y-134088512D01*
X69132256Y-133948053D01*
X69139208Y-133754022D01*
X69140400Y-133625908D01*
X69140400Y-133518232D01*
X68938105Y-133518232D01*
X68895855Y-133619645D01*
X68794397Y-133673790D01*
X68761963Y-133676200D01*
X68654338Y-133646376D01*
X68601382Y-133544900D01*
X68601797Y-133412697D01*
X68659204Y-133315815D01*
X68751169Y-133278801D01*
X68823854Y-133301506D01*
X68915865Y-133401527D01*
X68938105Y-133518232D01*
X69140400Y-133518232D01*
X69140400Y-133135350D01*
X68859418Y-133127957D01*
X68672602Y-133133074D01*
G37*
X68672602Y-133133074D02*
X68552180Y-133165977D01*
X68478418Y-133220582D01*
X68396934Y-133366305D01*
X68381303Y-133545132D01*
X68431398Y-133712905D01*
X68480000Y-133777800D01*
X68601467Y-133854044D01*
X68736415Y-133877171D01*
X68845218Y-133843315D01*
X68870702Y-133815900D01*
X68903127Y-133813163D01*
X68930401Y-133905591D01*
X68937200Y-133951629D01*
X68974436Y-134103075D01*
X69032339Y-134174193D01*
X69102165Y-134154601D01*
X69105475Y-134151391D01*
X69120480Y-134088512D01*
X69132256Y-133948053D01*
X69139208Y-133754022D01*
X69140400Y-133625908D01*
X69140400Y-133518232D01*
X68938105Y-133518232D01*
X68895855Y-133619645D01*
X68794397Y-133673790D01*
X68761963Y-133676200D01*
X68654338Y-133646376D01*
X68601382Y-133544900D01*
X68601797Y-133412697D01*
X68659204Y-133315815D01*
X68751169Y-133278801D01*
X68823854Y-133301506D01*
X68915865Y-133401527D01*
X68938105Y-133518232D01*
X69140400Y-133518232D01*
X69140400Y-133135350D01*
X68859418Y-133127957D01*
X68672602Y-133133074D01*
D13*
G36*
X79785721Y-122670174D02*
G01*
X79885995Y-122711709D01*
X79885996Y-122711710D01*
X79976242Y-122772010D01*
X80052990Y-122848758D01*
X80052991Y-122848760D01*
X80113291Y-122939005D01*
X80154826Y-123039279D01*
X80176000Y-123145730D01*
X80176000Y-123254270D01*
X80154826Y-123360721D01*
X80113291Y-123460995D01*
X80113290Y-123460996D01*
X80052990Y-123551242D01*
X79976242Y-123627990D01*
X79930812Y-123658345D01*
X79885995Y-123688291D01*
X79785721Y-123729826D01*
X79679270Y-123751000D01*
X79570730Y-123751000D01*
X79464279Y-123729826D01*
X79364005Y-123688291D01*
X79319188Y-123658345D01*
X79273758Y-123627990D01*
X79197010Y-123551242D01*
X79136710Y-123460996D01*
X79136709Y-123460995D01*
X79095174Y-123360721D01*
X79074000Y-123254270D01*
X79074000Y-123145730D01*
X79095174Y-123039279D01*
X79136709Y-122939005D01*
X79197009Y-122848760D01*
X79197010Y-122848758D01*
X79273758Y-122772010D01*
X79364004Y-122711710D01*
X79364005Y-122711709D01*
X79464279Y-122670174D01*
X79570730Y-122649000D01*
X79679270Y-122649000D01*
X79785721Y-122670174D01*
X79785721Y-122670174D01*
G37*
G36*
X70160721Y-120495174D02*
G01*
X70260995Y-120536709D01*
X70260996Y-120536710D01*
X70351242Y-120597010D01*
X70427990Y-120673758D01*
X70427991Y-120673760D01*
X70488291Y-120764005D01*
X70529826Y-120864279D01*
X70551000Y-120970730D01*
X70551000Y-121079270D01*
X70529826Y-121185721D01*
X70488291Y-121285995D01*
X70488290Y-121285996D01*
X70427990Y-121376242D01*
X70351242Y-121452990D01*
X70305812Y-121483345D01*
X70260995Y-121513291D01*
X70160721Y-121554826D01*
X70054270Y-121576000D01*
X69945730Y-121576000D01*
X69839279Y-121554826D01*
X69739005Y-121513291D01*
X69694188Y-121483345D01*
X69648758Y-121452990D01*
X69572010Y-121376242D01*
X69511710Y-121285996D01*
X69511709Y-121285995D01*
X69470174Y-121185721D01*
X69449000Y-121079270D01*
X69449000Y-120970730D01*
X69470174Y-120864279D01*
X69511709Y-120764005D01*
X69572009Y-120673760D01*
X69572010Y-120673758D01*
X69648758Y-120597010D01*
X69739004Y-120536710D01*
X69739005Y-120536709D01*
X69839279Y-120495174D01*
X69945730Y-120474000D01*
X70054270Y-120474000D01*
X70160721Y-120495174D01*
X70160721Y-120495174D01*
G37*
G36*
X85322578Y-116504197D02*
G01*
X85375350Y-116514694D01*
X85474770Y-116555875D01*
X85564246Y-116615661D01*
X85640339Y-116691754D01*
X85700125Y-116781230D01*
X85741306Y-116880650D01*
X85741306Y-116880651D01*
X85762300Y-116986193D01*
X85762300Y-117093807D01*
X85755848Y-117126242D01*
X85741306Y-117199350D01*
X85700125Y-117298770D01*
X85640339Y-117388246D01*
X85564246Y-117464339D01*
X85474770Y-117524125D01*
X85375350Y-117565306D01*
X85322578Y-117575803D01*
X85269807Y-117586300D01*
X85162193Y-117586300D01*
X85109422Y-117575803D01*
X85056650Y-117565306D01*
X84957230Y-117524125D01*
X84867754Y-117464339D01*
X84791661Y-117388246D01*
X84731875Y-117298770D01*
X84690694Y-117199350D01*
X84676152Y-117126242D01*
X84669700Y-117093807D01*
X84669700Y-116986193D01*
X84690694Y-116880651D01*
X84690694Y-116880650D01*
X84731875Y-116781230D01*
X84791661Y-116691754D01*
X84867754Y-116615661D01*
X84957230Y-116555875D01*
X85056650Y-116514694D01*
X85109422Y-116504197D01*
X85162193Y-116493700D01*
X85269807Y-116493700D01*
X85322578Y-116504197D01*
X85322578Y-116504197D01*
G37*
G36*
X83290578Y-116504197D02*
G01*
X83343350Y-116514694D01*
X83442770Y-116555875D01*
X83532246Y-116615661D01*
X83608339Y-116691754D01*
X83668125Y-116781230D01*
X83709306Y-116880650D01*
X83709306Y-116880651D01*
X83730300Y-116986193D01*
X83730300Y-117093807D01*
X83723848Y-117126242D01*
X83709306Y-117199350D01*
X83668125Y-117298770D01*
X83608339Y-117388246D01*
X83532246Y-117464339D01*
X83442770Y-117524125D01*
X83343350Y-117565306D01*
X83290578Y-117575803D01*
X83237807Y-117586300D01*
X83130193Y-117586300D01*
X83077422Y-117575803D01*
X83024650Y-117565306D01*
X82925230Y-117524125D01*
X82835754Y-117464339D01*
X82759661Y-117388246D01*
X82699875Y-117298770D01*
X82658694Y-117199350D01*
X82644152Y-117126242D01*
X82637700Y-117093807D01*
X82637700Y-116986193D01*
X82658694Y-116880651D01*
X82658694Y-116880650D01*
X82699875Y-116781230D01*
X82759661Y-116691754D01*
X82835754Y-116615661D01*
X82925230Y-116555875D01*
X83024650Y-116514694D01*
X83077422Y-116504197D01*
X83130193Y-116493700D01*
X83237807Y-116493700D01*
X83290578Y-116504197D01*
X83290578Y-116504197D01*
G37*
G36*
X70260721Y-116245174D02*
G01*
X70360995Y-116286709D01*
X70360996Y-116286710D01*
X70451242Y-116347010D01*
X70527990Y-116423758D01*
X70527991Y-116423760D01*
X70588291Y-116514005D01*
X70629826Y-116614279D01*
X70651000Y-116720730D01*
X70651000Y-116829270D01*
X70629826Y-116935721D01*
X70588291Y-117035995D01*
X70588290Y-117035996D01*
X70527990Y-117126242D01*
X70451242Y-117202990D01*
X70405812Y-117233345D01*
X70360995Y-117263291D01*
X70260721Y-117304826D01*
X70154270Y-117326000D01*
X70045730Y-117326000D01*
X69939279Y-117304826D01*
X69839005Y-117263291D01*
X69794188Y-117233345D01*
X69748758Y-117202990D01*
X69672010Y-117126242D01*
X69611710Y-117035996D01*
X69611709Y-117035995D01*
X69570174Y-116935721D01*
X69549000Y-116829270D01*
X69549000Y-116720730D01*
X69570174Y-116614279D01*
X69611709Y-116514005D01*
X69672009Y-116423760D01*
X69672010Y-116423758D01*
X69748758Y-116347010D01*
X69839004Y-116286710D01*
X69839005Y-116286709D01*
X69939279Y-116245174D01*
X70045730Y-116224000D01*
X70154270Y-116224000D01*
X70260721Y-116245174D01*
X70260721Y-116245174D01*
G37*
G36*
X84306578Y-111424197D02*
G01*
X84359350Y-111434694D01*
X84458770Y-111475875D01*
X84548246Y-111535661D01*
X84624339Y-111611754D01*
X84684125Y-111701230D01*
X84725306Y-111800650D01*
X84746300Y-111906194D01*
X84746300Y-112013806D01*
X84725306Y-112119350D01*
X84684125Y-112218770D01*
X84624339Y-112308246D01*
X84548246Y-112384339D01*
X84458770Y-112444125D01*
X84359350Y-112485306D01*
X84306578Y-112495803D01*
X84253807Y-112506300D01*
X84146193Y-112506300D01*
X84093422Y-112495803D01*
X84040650Y-112485306D01*
X83941230Y-112444125D01*
X83851754Y-112384339D01*
X83775661Y-112308246D01*
X83715875Y-112218770D01*
X83674694Y-112119350D01*
X83653700Y-112013806D01*
X83653700Y-111906194D01*
X83674694Y-111800650D01*
X83715875Y-111701230D01*
X83775661Y-111611754D01*
X83851754Y-111535661D01*
X83941230Y-111475875D01*
X84040650Y-111434694D01*
X84093422Y-111424197D01*
X84146193Y-111413700D01*
X84253807Y-111413700D01*
X84306578Y-111424197D01*
X84306578Y-111424197D01*
G37*
M02*
