G04 #@! TF.GenerationSoftware,KiCad,Pcbnew,5.1.2*
G04 #@! TF.CreationDate,2019-06-13T14:37:42+02:00*
G04 #@! TF.ProjectId,BodyTempUnit-e7,426f6479-5465-46d7-9055-6e69742d6537,rev?*
G04 #@! TF.SameCoordinates,Original*
G04 #@! TF.FileFunction,Copper,L3,Inr*
G04 #@! TF.FilePolarity,Positive*
%FSLAX46Y46*%
G04 Gerber Fmt 4.6, Leading zero omitted, Abs format (unit mm)*
G04 Created by KiCad (PCBNEW 5.1.2) date 2019-06-13 14:37:42*
%MOMM*%
%LPD*%
G04 APERTURE LIST*
%ADD10C,0.050000*%
%ADD11C,0.500000*%
%ADD12C,0.600000*%
%ADD13C,0.700000*%
%ADD14C,0.254000*%
G04 APERTURE END LIST*
D10*
X88505000Y-135000033D02*
G75*
G03X90005000Y-133510000I0J1500033D01*
G01*
X64998200Y-133501400D02*
G75*
G03X66498200Y-135001400I1500000J0D01*
G01*
X82000000Y-112100000D02*
X82000000Y-111100000D01*
X73000000Y-112100000D02*
X73000000Y-111100000D01*
X72000000Y-109800000D02*
X73000000Y-109800000D01*
X82000000Y-110000000D02*
X83000000Y-110000000D01*
X83000000Y-106000000D02*
X83000000Y-110000000D01*
X82000000Y-106000000D02*
X83000000Y-106000000D01*
X82000000Y-106000000D02*
X82000000Y-110000000D01*
X72000000Y-106000000D02*
X72000000Y-109800000D01*
X73000000Y-106000000D02*
X72000000Y-106000000D01*
X73000000Y-109800000D02*
X73000000Y-106000000D01*
X82000000Y-112100000D02*
X73000000Y-112100000D01*
X66500000Y-105000000D02*
G75*
G03X65000000Y-106500000I0J-1500000D01*
G01*
X90000000Y-106500000D02*
G75*
G03X88500000Y-105000000I-1500000J0D01*
G01*
X90000000Y-106500000D02*
X90005000Y-133510000D01*
X65001100Y-106500000D02*
X64999600Y-133501400D01*
X66500000Y-105000000D02*
X88500000Y-105000000D01*
X88500000Y-107700000D02*
X88500000Y-119700000D01*
X86500000Y-119700000D02*
X86500000Y-107700000D01*
X88500000Y-119700000D02*
G75*
G02X86500000Y-119700000I-1000000J0D01*
G01*
X86500000Y-107700000D02*
G75*
G02X88500000Y-107700000I1000000J0D01*
G01*
X68500000Y-107700000D02*
X68500000Y-119700000D01*
X66500000Y-107700000D02*
G75*
G02X68500000Y-107700000I1000000J0D01*
G01*
X68500000Y-119700000D02*
G75*
G02X66500000Y-119700000I-1000000J0D01*
G01*
X66500000Y-119700000D02*
X66500000Y-107700000D01*
X73000000Y-111100000D02*
X82000000Y-111100000D01*
X88505000Y-135000000D02*
X66498200Y-135000000D01*
D11*
X78501100Y-118233600D03*
X78501100Y-119233600D03*
X78501100Y-120233600D03*
X77501100Y-118233600D03*
X77501100Y-119233600D03*
X77501100Y-120233600D03*
X76501100Y-118233600D03*
X76501100Y-119233600D03*
X76501100Y-120233600D03*
D12*
X76600000Y-113400000D03*
X69425000Y-113125000D03*
X78300000Y-124725000D03*
X80675000Y-114524998D03*
D13*
X75625000Y-129800000D03*
X76625000Y-129800000D03*
X77625000Y-129800000D03*
D12*
X70725000Y-105900000D03*
X81825000Y-127800000D03*
X85600006Y-112500006D03*
X69500000Y-122800000D03*
X76625000Y-127300000D03*
X77500000Y-107700000D03*
X76700000Y-107300000D03*
X78300000Y-107300000D03*
X76700000Y-108100000D03*
X78300000Y-108100000D03*
X71125000Y-115425000D03*
X80641413Y-113358587D03*
X74525000Y-131200000D03*
X74525000Y-132200000D03*
X74525000Y-133200000D03*
X80325000Y-132400000D03*
X68525000Y-126000000D03*
X67725000Y-126000000D03*
X66925000Y-126000000D03*
X86225000Y-126000000D03*
X87025000Y-126000000D03*
X87825000Y-126000000D03*
X70825000Y-110400000D03*
X80615000Y-124850000D03*
X73555000Y-123510000D03*
X85825000Y-115600000D03*
X74825000Y-109000000D03*
X83315000Y-125030000D03*
X71225000Y-122900000D03*
X69250000Y-119875000D03*
X74200010Y-114200000D03*
X72924995Y-117675001D03*
X74300000Y-115100000D03*
X73600032Y-116874998D03*
X74345000Y-129710000D03*
X74799988Y-121675000D03*
X80950000Y-120550000D03*
X83225000Y-129800000D03*
X73975002Y-126375000D03*
X73725000Y-120650000D03*
X80200000Y-121900000D03*
X79600000Y-124799984D03*
X77000000Y-126400000D03*
X76790622Y-125109626D03*
X73505000Y-125659999D03*
X72950000Y-119800000D03*
X70925000Y-120550000D03*
X71574993Y-119849997D03*
X70100000Y-115650000D03*
X81905583Y-116760363D03*
X72975000Y-118750000D03*
X81725012Y-113500000D03*
X81824998Y-115700000D03*
X85824996Y-114500000D03*
X81250014Y-117500000D03*
X78500000Y-127700000D03*
X78800001Y-129150000D03*
D14*
G36*
X71073000Y-105552606D02*
G01*
X71073000Y-109715826D01*
X71037058Y-109700938D01*
X70896603Y-109673000D01*
X70753397Y-109673000D01*
X70612942Y-109700938D01*
X70480636Y-109755741D01*
X70361564Y-109835302D01*
X70260302Y-109936564D01*
X70180741Y-110055636D01*
X70125938Y-110187942D01*
X70098000Y-110328397D01*
X70098000Y-110471603D01*
X70125938Y-110612058D01*
X70180741Y-110744364D01*
X70260302Y-110863436D01*
X70361564Y-110964698D01*
X70480636Y-111044259D01*
X70612942Y-111099062D01*
X70753397Y-111127000D01*
X70896603Y-111127000D01*
X71037058Y-111099062D01*
X71073000Y-111084174D01*
X71073000Y-112100000D01*
X71075440Y-112124776D01*
X71082667Y-112148601D01*
X71094403Y-112170557D01*
X71110197Y-112189803D01*
X71610197Y-112689803D01*
X71629443Y-112705597D01*
X71651399Y-112717333D01*
X71675224Y-112724560D01*
X71700000Y-112727000D01*
X80278084Y-112727000D01*
X80177977Y-112793889D01*
X80076715Y-112895151D01*
X79997154Y-113014223D01*
X79942351Y-113146529D01*
X79914413Y-113286984D01*
X79914413Y-113430190D01*
X79942351Y-113570645D01*
X79997154Y-113702951D01*
X80076715Y-113822023D01*
X80177977Y-113923285D01*
X80297049Y-114002846D01*
X80429355Y-114057649D01*
X80569810Y-114085587D01*
X80713016Y-114085587D01*
X80853471Y-114057649D01*
X80985777Y-114002846D01*
X81104849Y-113923285D01*
X81122016Y-113906118D01*
X81160314Y-113963436D01*
X81261576Y-114064698D01*
X81380648Y-114144259D01*
X81512954Y-114199062D01*
X81653409Y-114227000D01*
X81796615Y-114227000D01*
X81937070Y-114199062D01*
X82069376Y-114144259D01*
X82188448Y-114064698D01*
X82289710Y-113963436D01*
X82369271Y-113844364D01*
X82424074Y-113712058D01*
X82452012Y-113571603D01*
X82452012Y-113428397D01*
X82424074Y-113287942D01*
X82369271Y-113155636D01*
X82289710Y-113036564D01*
X82188448Y-112935302D01*
X82069376Y-112855741D01*
X81937070Y-112800938D01*
X81796615Y-112773000D01*
X81653409Y-112773000D01*
X81512954Y-112800938D01*
X81380648Y-112855741D01*
X81261576Y-112935302D01*
X81244409Y-112952469D01*
X81206111Y-112895151D01*
X81104849Y-112793889D01*
X81004742Y-112727000D01*
X83100000Y-112727000D01*
X83124776Y-112724560D01*
X83148601Y-112717333D01*
X83170557Y-112705597D01*
X83189803Y-112689803D01*
X83422749Y-112456857D01*
X83483603Y-112547932D01*
X83612068Y-112676397D01*
X83763127Y-112777332D01*
X83930975Y-112846857D01*
X84109161Y-112882300D01*
X84290839Y-112882300D01*
X84469025Y-112846857D01*
X84636873Y-112777332D01*
X84787932Y-112676397D01*
X84916397Y-112547932D01*
X85017332Y-112396873D01*
X85086857Y-112229025D01*
X85122300Y-112050839D01*
X85122300Y-111869161D01*
X85086857Y-111690975D01*
X85017332Y-111523127D01*
X84916397Y-111372068D01*
X84787932Y-111243603D01*
X84636873Y-111142668D01*
X84469025Y-111073143D01*
X84290839Y-111037700D01*
X84109161Y-111037700D01*
X83930975Y-111073143D01*
X83763127Y-111142668D01*
X83727000Y-111166807D01*
X83727000Y-105552606D01*
X83827606Y-105452000D01*
X88477892Y-105452000D01*
X88703139Y-105474085D01*
X88898537Y-105533080D01*
X89078753Y-105628903D01*
X89236930Y-105757908D01*
X89367034Y-105915178D01*
X89464115Y-106094725D01*
X89524472Y-106289706D01*
X89548003Y-106513593D01*
X89552997Y-133486413D01*
X89529570Y-133709979D01*
X89469271Y-133904988D01*
X89372246Y-134084570D01*
X89242188Y-134241883D01*
X89084049Y-134370940D01*
X88903852Y-134466826D01*
X88708467Y-134525884D01*
X88483630Y-134548000D01*
X66506030Y-134548000D01*
X66295061Y-134527315D01*
X66099663Y-134468320D01*
X65919449Y-134372499D01*
X65761270Y-134243491D01*
X65631168Y-134086224D01*
X65534085Y-133906675D01*
X65473728Y-133711694D01*
X65451599Y-133501145D01*
X65451730Y-131128397D01*
X73798000Y-131128397D01*
X73798000Y-131271603D01*
X73825938Y-131412058D01*
X73880741Y-131544364D01*
X73960302Y-131663436D01*
X73996866Y-131700000D01*
X73960302Y-131736564D01*
X73880741Y-131855636D01*
X73825938Y-131987942D01*
X73798000Y-132128397D01*
X73798000Y-132271603D01*
X73825938Y-132412058D01*
X73880741Y-132544364D01*
X73960302Y-132663436D01*
X73996866Y-132700000D01*
X73960302Y-132736564D01*
X73880741Y-132855636D01*
X73825938Y-132987942D01*
X73798000Y-133128397D01*
X73798000Y-133271603D01*
X73825938Y-133412058D01*
X73880741Y-133544364D01*
X73960302Y-133663436D01*
X74061564Y-133764698D01*
X74180636Y-133844259D01*
X74312942Y-133899062D01*
X74453397Y-133927000D01*
X74596603Y-133927000D01*
X74737058Y-133899062D01*
X74869364Y-133844259D01*
X74988436Y-133764698D01*
X75089698Y-133663436D01*
X75169259Y-133544364D01*
X75224062Y-133412058D01*
X75252000Y-133271603D01*
X75252000Y-133128397D01*
X75224062Y-132987942D01*
X75169259Y-132855636D01*
X75089698Y-132736564D01*
X75053134Y-132700000D01*
X75089698Y-132663436D01*
X75169259Y-132544364D01*
X75224062Y-132412058D01*
X75240703Y-132328397D01*
X79598000Y-132328397D01*
X79598000Y-132471603D01*
X79625938Y-132612058D01*
X79680741Y-132744364D01*
X79760302Y-132863436D01*
X79861564Y-132964698D01*
X79980636Y-133044259D01*
X80112942Y-133099062D01*
X80253397Y-133127000D01*
X80396603Y-133127000D01*
X80537058Y-133099062D01*
X80669364Y-133044259D01*
X80788436Y-132964698D01*
X80889698Y-132863436D01*
X80969259Y-132744364D01*
X81024062Y-132612058D01*
X81052000Y-132471603D01*
X81052000Y-132328397D01*
X81024062Y-132187942D01*
X80969259Y-132055636D01*
X80889698Y-131936564D01*
X80788436Y-131835302D01*
X80669364Y-131755741D01*
X80537058Y-131700938D01*
X80396603Y-131673000D01*
X80253397Y-131673000D01*
X80112942Y-131700938D01*
X79980636Y-131755741D01*
X79861564Y-131835302D01*
X79760302Y-131936564D01*
X79680741Y-132055636D01*
X79625938Y-132187942D01*
X79598000Y-132328397D01*
X75240703Y-132328397D01*
X75252000Y-132271603D01*
X75252000Y-132128397D01*
X75224062Y-131987942D01*
X75169259Y-131855636D01*
X75089698Y-131736564D01*
X75053134Y-131700000D01*
X75089698Y-131663436D01*
X75169259Y-131544364D01*
X75224062Y-131412058D01*
X75252000Y-131271603D01*
X75252000Y-131128397D01*
X75224062Y-130987942D01*
X75169259Y-130855636D01*
X75089698Y-130736564D01*
X74988436Y-130635302D01*
X74869364Y-130555741D01*
X74737058Y-130500938D01*
X74596603Y-130473000D01*
X74453397Y-130473000D01*
X74312942Y-130500938D01*
X74180636Y-130555741D01*
X74061564Y-130635302D01*
X73960302Y-130736564D01*
X73880741Y-130855636D01*
X73825938Y-130987942D01*
X73798000Y-131128397D01*
X65451730Y-131128397D01*
X65451813Y-129638397D01*
X73618000Y-129638397D01*
X73618000Y-129781603D01*
X73645938Y-129922058D01*
X73700741Y-130054364D01*
X73780302Y-130173436D01*
X73881564Y-130274698D01*
X74000636Y-130354259D01*
X74132942Y-130409062D01*
X74273397Y-130437000D01*
X74416603Y-130437000D01*
X74557058Y-130409062D01*
X74689364Y-130354259D01*
X74808436Y-130274698D01*
X74909698Y-130173436D01*
X74989259Y-130054364D01*
X75044062Y-129922058D01*
X75072000Y-129781603D01*
X75072000Y-129638397D01*
X75044062Y-129497942D01*
X74989259Y-129365636D01*
X74909698Y-129246564D01*
X74808436Y-129145302D01*
X74708306Y-129078397D01*
X78073001Y-129078397D01*
X78073001Y-129221603D01*
X78100939Y-129362058D01*
X78155742Y-129494364D01*
X78235303Y-129613436D01*
X78336565Y-129714698D01*
X78455637Y-129794259D01*
X78587943Y-129849062D01*
X78728398Y-129877000D01*
X78871604Y-129877000D01*
X79012059Y-129849062D01*
X79144365Y-129794259D01*
X79242934Y-129728397D01*
X82498000Y-129728397D01*
X82498000Y-129871603D01*
X82525938Y-130012058D01*
X82580741Y-130144364D01*
X82660302Y-130263436D01*
X82761564Y-130364698D01*
X82880636Y-130444259D01*
X83012942Y-130499062D01*
X83153397Y-130527000D01*
X83296603Y-130527000D01*
X83437058Y-130499062D01*
X83569364Y-130444259D01*
X83688436Y-130364698D01*
X83789698Y-130263436D01*
X83869259Y-130144364D01*
X83924062Y-130012058D01*
X83952000Y-129871603D01*
X83952000Y-129728397D01*
X83924062Y-129587942D01*
X83869259Y-129455636D01*
X83789698Y-129336564D01*
X83688436Y-129235302D01*
X83569364Y-129155741D01*
X83437058Y-129100938D01*
X83296603Y-129073000D01*
X83153397Y-129073000D01*
X83012942Y-129100938D01*
X82880636Y-129155741D01*
X82761564Y-129235302D01*
X82660302Y-129336564D01*
X82580741Y-129455636D01*
X82525938Y-129587942D01*
X82498000Y-129728397D01*
X79242934Y-129728397D01*
X79263437Y-129714698D01*
X79364699Y-129613436D01*
X79444260Y-129494364D01*
X79499063Y-129362058D01*
X79527001Y-129221603D01*
X79527001Y-129078397D01*
X79499063Y-128937942D01*
X79444260Y-128805636D01*
X79364699Y-128686564D01*
X79263437Y-128585302D01*
X79144365Y-128505741D01*
X79012059Y-128450938D01*
X78871604Y-128423000D01*
X78728398Y-128423000D01*
X78587943Y-128450938D01*
X78455637Y-128505741D01*
X78336565Y-128585302D01*
X78235303Y-128686564D01*
X78155742Y-128805636D01*
X78100939Y-128937942D01*
X78073001Y-129078397D01*
X74708306Y-129078397D01*
X74689364Y-129065741D01*
X74557058Y-129010938D01*
X74416603Y-128983000D01*
X74273397Y-128983000D01*
X74132942Y-129010938D01*
X74000636Y-129065741D01*
X73881564Y-129145302D01*
X73780302Y-129246564D01*
X73700741Y-129365636D01*
X73645938Y-129497942D01*
X73618000Y-129638397D01*
X65451813Y-129638397D01*
X65451946Y-127228397D01*
X75898000Y-127228397D01*
X75898000Y-127371603D01*
X75925938Y-127512058D01*
X75980741Y-127644364D01*
X76060302Y-127763436D01*
X76161564Y-127864698D01*
X76280636Y-127944259D01*
X76412942Y-127999062D01*
X76553397Y-128027000D01*
X76696603Y-128027000D01*
X76837058Y-127999062D01*
X76969364Y-127944259D01*
X77088436Y-127864698D01*
X77189698Y-127763436D01*
X77269259Y-127644364D01*
X77275872Y-127628397D01*
X77773000Y-127628397D01*
X77773000Y-127771603D01*
X77800938Y-127912058D01*
X77855741Y-128044364D01*
X77935302Y-128163436D01*
X78036564Y-128264698D01*
X78155636Y-128344259D01*
X78287942Y-128399062D01*
X78428397Y-128427000D01*
X78571603Y-128427000D01*
X78712058Y-128399062D01*
X78844364Y-128344259D01*
X78963436Y-128264698D01*
X79064698Y-128163436D01*
X79144259Y-128044364D01*
X79199062Y-127912058D01*
X79227000Y-127771603D01*
X79227000Y-127628397D01*
X79199062Y-127487942D01*
X79144259Y-127355636D01*
X79064698Y-127236564D01*
X78963436Y-127135302D01*
X78844364Y-127055741D01*
X78712058Y-127000938D01*
X78571603Y-126973000D01*
X78428397Y-126973000D01*
X78287942Y-127000938D01*
X78155636Y-127055741D01*
X78036564Y-127135302D01*
X77935302Y-127236564D01*
X77855741Y-127355636D01*
X77800938Y-127487942D01*
X77773000Y-127628397D01*
X77275872Y-127628397D01*
X77324062Y-127512058D01*
X77352000Y-127371603D01*
X77352000Y-127228397D01*
X77324062Y-127087942D01*
X77311591Y-127057834D01*
X77344364Y-127044259D01*
X77463436Y-126964698D01*
X77564698Y-126863436D01*
X77644259Y-126744364D01*
X77699062Y-126612058D01*
X77727000Y-126471603D01*
X77727000Y-126328397D01*
X77699062Y-126187942D01*
X77644259Y-126055636D01*
X77564698Y-125936564D01*
X77556531Y-125928397D01*
X85498000Y-125928397D01*
X85498000Y-126071603D01*
X85525938Y-126212058D01*
X85580741Y-126344364D01*
X85660302Y-126463436D01*
X85761564Y-126564698D01*
X85880636Y-126644259D01*
X86012942Y-126699062D01*
X86153397Y-126727000D01*
X86296603Y-126727000D01*
X86437058Y-126699062D01*
X86569364Y-126644259D01*
X86625000Y-126607084D01*
X86680636Y-126644259D01*
X86812942Y-126699062D01*
X86953397Y-126727000D01*
X87096603Y-126727000D01*
X87237058Y-126699062D01*
X87369364Y-126644259D01*
X87425000Y-126607084D01*
X87480636Y-126644259D01*
X87612942Y-126699062D01*
X87753397Y-126727000D01*
X87896603Y-126727000D01*
X88037058Y-126699062D01*
X88169364Y-126644259D01*
X88288436Y-126564698D01*
X88389698Y-126463436D01*
X88469259Y-126344364D01*
X88524062Y-126212058D01*
X88552000Y-126071603D01*
X88552000Y-125928397D01*
X88524062Y-125787942D01*
X88469259Y-125655636D01*
X88389698Y-125536564D01*
X88288436Y-125435302D01*
X88169364Y-125355741D01*
X88037058Y-125300938D01*
X87896603Y-125273000D01*
X87753397Y-125273000D01*
X87612942Y-125300938D01*
X87480636Y-125355741D01*
X87425000Y-125392916D01*
X87369364Y-125355741D01*
X87237058Y-125300938D01*
X87096603Y-125273000D01*
X86953397Y-125273000D01*
X86812942Y-125300938D01*
X86680636Y-125355741D01*
X86625000Y-125392916D01*
X86569364Y-125355741D01*
X86437058Y-125300938D01*
X86296603Y-125273000D01*
X86153397Y-125273000D01*
X86012942Y-125300938D01*
X85880636Y-125355741D01*
X85761564Y-125435302D01*
X85660302Y-125536564D01*
X85580741Y-125655636D01*
X85525938Y-125787942D01*
X85498000Y-125928397D01*
X77556531Y-125928397D01*
X77463436Y-125835302D01*
X77344364Y-125755741D01*
X77213397Y-125701493D01*
X77254058Y-125674324D01*
X77355320Y-125573062D01*
X77434881Y-125453990D01*
X77489684Y-125321684D01*
X77517622Y-125181229D01*
X77517622Y-125038023D01*
X77489684Y-124897568D01*
X77434881Y-124765262D01*
X77410239Y-124728381D01*
X78873000Y-124728381D01*
X78873000Y-124871587D01*
X78900938Y-125012042D01*
X78955741Y-125144348D01*
X79035302Y-125263420D01*
X79136564Y-125364682D01*
X79255636Y-125444243D01*
X79387942Y-125499046D01*
X79528397Y-125526984D01*
X79671603Y-125526984D01*
X79812058Y-125499046D01*
X79944364Y-125444243D01*
X80063436Y-125364682D01*
X80082492Y-125345626D01*
X80151564Y-125414698D01*
X80270636Y-125494259D01*
X80402942Y-125549062D01*
X80543397Y-125577000D01*
X80686603Y-125577000D01*
X80827058Y-125549062D01*
X80959364Y-125494259D01*
X81078436Y-125414698D01*
X81179698Y-125313436D01*
X81259259Y-125194364D01*
X81314062Y-125062058D01*
X81334681Y-124958397D01*
X82588000Y-124958397D01*
X82588000Y-125101603D01*
X82615938Y-125242058D01*
X82670741Y-125374364D01*
X82750302Y-125493436D01*
X82851564Y-125594698D01*
X82970636Y-125674259D01*
X83102942Y-125729062D01*
X83243397Y-125757000D01*
X83386603Y-125757000D01*
X83527058Y-125729062D01*
X83659364Y-125674259D01*
X83778436Y-125594698D01*
X83879698Y-125493436D01*
X83959259Y-125374364D01*
X84014062Y-125242058D01*
X84042000Y-125101603D01*
X84042000Y-124958397D01*
X84014062Y-124817942D01*
X83959259Y-124685636D01*
X83879698Y-124566564D01*
X83778436Y-124465302D01*
X83659364Y-124385741D01*
X83527058Y-124330938D01*
X83386603Y-124303000D01*
X83243397Y-124303000D01*
X83102942Y-124330938D01*
X82970636Y-124385741D01*
X82851564Y-124465302D01*
X82750302Y-124566564D01*
X82670741Y-124685636D01*
X82615938Y-124817942D01*
X82588000Y-124958397D01*
X81334681Y-124958397D01*
X81342000Y-124921603D01*
X81342000Y-124778397D01*
X81314062Y-124637942D01*
X81259259Y-124505636D01*
X81179698Y-124386564D01*
X81078436Y-124285302D01*
X80959364Y-124205741D01*
X80827058Y-124150938D01*
X80686603Y-124123000D01*
X80543397Y-124123000D01*
X80402942Y-124150938D01*
X80270636Y-124205741D01*
X80151564Y-124285302D01*
X80132508Y-124304358D01*
X80063436Y-124235286D01*
X79944364Y-124155725D01*
X79812058Y-124100922D01*
X79671603Y-124072984D01*
X79528397Y-124072984D01*
X79387942Y-124100922D01*
X79255636Y-124155725D01*
X79136564Y-124235286D01*
X79035302Y-124336548D01*
X78955741Y-124455620D01*
X78900938Y-124587926D01*
X78873000Y-124728381D01*
X77410239Y-124728381D01*
X77355320Y-124646190D01*
X77254058Y-124544928D01*
X77134986Y-124465367D01*
X77002680Y-124410564D01*
X76862225Y-124382626D01*
X76719019Y-124382626D01*
X76578564Y-124410564D01*
X76446258Y-124465367D01*
X76327186Y-124544928D01*
X76225924Y-124646190D01*
X76146363Y-124765262D01*
X76091560Y-124897568D01*
X76063622Y-125038023D01*
X76063622Y-125181229D01*
X76091560Y-125321684D01*
X76146363Y-125453990D01*
X76225924Y-125573062D01*
X76327186Y-125674324D01*
X76446258Y-125753885D01*
X76577225Y-125808133D01*
X76536564Y-125835302D01*
X76435302Y-125936564D01*
X76355741Y-126055636D01*
X76300938Y-126187942D01*
X76273000Y-126328397D01*
X76273000Y-126471603D01*
X76300938Y-126612058D01*
X76313409Y-126642166D01*
X76280636Y-126655741D01*
X76161564Y-126735302D01*
X76060302Y-126836564D01*
X75980741Y-126955636D01*
X75925938Y-127087942D01*
X75898000Y-127228397D01*
X65451946Y-127228397D01*
X65452019Y-125928397D01*
X66198000Y-125928397D01*
X66198000Y-126071603D01*
X66225938Y-126212058D01*
X66280741Y-126344364D01*
X66360302Y-126463436D01*
X66461564Y-126564698D01*
X66580636Y-126644259D01*
X66712942Y-126699062D01*
X66853397Y-126727000D01*
X66996603Y-126727000D01*
X67137058Y-126699062D01*
X67269364Y-126644259D01*
X67325000Y-126607084D01*
X67380636Y-126644259D01*
X67512942Y-126699062D01*
X67653397Y-126727000D01*
X67796603Y-126727000D01*
X67937058Y-126699062D01*
X68069364Y-126644259D01*
X68125000Y-126607084D01*
X68180636Y-126644259D01*
X68312942Y-126699062D01*
X68453397Y-126727000D01*
X68596603Y-126727000D01*
X68737058Y-126699062D01*
X68869364Y-126644259D01*
X68988436Y-126564698D01*
X69089698Y-126463436D01*
X69169259Y-126344364D01*
X69224062Y-126212058D01*
X69252000Y-126071603D01*
X69252000Y-125928397D01*
X69224062Y-125787942D01*
X69169259Y-125655636D01*
X69124331Y-125588396D01*
X72778000Y-125588396D01*
X72778000Y-125731602D01*
X72805938Y-125872057D01*
X72860741Y-126004363D01*
X72940302Y-126123435D01*
X73041564Y-126224697D01*
X73160636Y-126304258D01*
X73248002Y-126340446D01*
X73248002Y-126446603D01*
X73275940Y-126587058D01*
X73330743Y-126719364D01*
X73410304Y-126838436D01*
X73511566Y-126939698D01*
X73630638Y-127019259D01*
X73762944Y-127074062D01*
X73903399Y-127102000D01*
X74046605Y-127102000D01*
X74187060Y-127074062D01*
X74319366Y-127019259D01*
X74438438Y-126939698D01*
X74539700Y-126838436D01*
X74619261Y-126719364D01*
X74674064Y-126587058D01*
X74702002Y-126446603D01*
X74702002Y-126303397D01*
X74674064Y-126162942D01*
X74619261Y-126030636D01*
X74539700Y-125911564D01*
X74438438Y-125810302D01*
X74319366Y-125730741D01*
X74232000Y-125694553D01*
X74232000Y-125588396D01*
X74204062Y-125447941D01*
X74149259Y-125315635D01*
X74069698Y-125196563D01*
X73968436Y-125095301D01*
X73849364Y-125015740D01*
X73717058Y-124960937D01*
X73576603Y-124932999D01*
X73433397Y-124932999D01*
X73292942Y-124960937D01*
X73160636Y-125015740D01*
X73041564Y-125095301D01*
X72940302Y-125196563D01*
X72860741Y-125315635D01*
X72805938Y-125447941D01*
X72778000Y-125588396D01*
X69124331Y-125588396D01*
X69089698Y-125536564D01*
X68988436Y-125435302D01*
X68869364Y-125355741D01*
X68737058Y-125300938D01*
X68596603Y-125273000D01*
X68453397Y-125273000D01*
X68312942Y-125300938D01*
X68180636Y-125355741D01*
X68125000Y-125392916D01*
X68069364Y-125355741D01*
X67937058Y-125300938D01*
X67796603Y-125273000D01*
X67653397Y-125273000D01*
X67512942Y-125300938D01*
X67380636Y-125355741D01*
X67325000Y-125392916D01*
X67269364Y-125355741D01*
X67137058Y-125300938D01*
X66996603Y-125273000D01*
X66853397Y-125273000D01*
X66712942Y-125300938D01*
X66580636Y-125355741D01*
X66461564Y-125435302D01*
X66360302Y-125536564D01*
X66280741Y-125655636D01*
X66225938Y-125787942D01*
X66198000Y-125928397D01*
X65452019Y-125928397D01*
X65452191Y-122828397D01*
X70498000Y-122828397D01*
X70498000Y-122971603D01*
X70525938Y-123112058D01*
X70580741Y-123244364D01*
X70660302Y-123363436D01*
X70761564Y-123464698D01*
X70880636Y-123544259D01*
X71012942Y-123599062D01*
X71153397Y-123627000D01*
X71296603Y-123627000D01*
X71437058Y-123599062D01*
X71569364Y-123544259D01*
X71688436Y-123464698D01*
X71714737Y-123438397D01*
X72828000Y-123438397D01*
X72828000Y-123581603D01*
X72855938Y-123722058D01*
X72910741Y-123854364D01*
X72990302Y-123973436D01*
X73091564Y-124074698D01*
X73210636Y-124154259D01*
X73342942Y-124209062D01*
X73483397Y-124237000D01*
X73626603Y-124237000D01*
X73767058Y-124209062D01*
X73899364Y-124154259D01*
X74018436Y-124074698D01*
X74119698Y-123973436D01*
X74199259Y-123854364D01*
X74254062Y-123722058D01*
X74282000Y-123581603D01*
X74282000Y-123438397D01*
X74254062Y-123297942D01*
X74199259Y-123165636D01*
X74119698Y-123046564D01*
X74018436Y-122945302D01*
X73899364Y-122865741D01*
X73767058Y-122810938D01*
X73626603Y-122783000D01*
X73483397Y-122783000D01*
X73342942Y-122810938D01*
X73210636Y-122865741D01*
X73091564Y-122945302D01*
X72990302Y-123046564D01*
X72910741Y-123165636D01*
X72855938Y-123297942D01*
X72828000Y-123438397D01*
X71714737Y-123438397D01*
X71789698Y-123363436D01*
X71869259Y-123244364D01*
X71924062Y-123112058D01*
X71952000Y-122971603D01*
X71952000Y-122828397D01*
X71924062Y-122687942D01*
X71869259Y-122555636D01*
X71789698Y-122436564D01*
X71688436Y-122335302D01*
X71569364Y-122255741D01*
X71437058Y-122200938D01*
X71296603Y-122173000D01*
X71153397Y-122173000D01*
X71012942Y-122200938D01*
X70880636Y-122255741D01*
X70761564Y-122335302D01*
X70660302Y-122436564D01*
X70580741Y-122555636D01*
X70525938Y-122687942D01*
X70498000Y-122828397D01*
X65452191Y-122828397D01*
X65452259Y-121603397D01*
X74072988Y-121603397D01*
X74072988Y-121746603D01*
X74100926Y-121887058D01*
X74155729Y-122019364D01*
X74235290Y-122138436D01*
X74336552Y-122239698D01*
X74455624Y-122319259D01*
X74587930Y-122374062D01*
X74728385Y-122402000D01*
X74871591Y-122402000D01*
X75012046Y-122374062D01*
X75144352Y-122319259D01*
X75263424Y-122239698D01*
X75364686Y-122138436D01*
X75444247Y-122019364D01*
X75499050Y-121887058D01*
X75510718Y-121828397D01*
X79473000Y-121828397D01*
X79473000Y-121971603D01*
X79500938Y-122112058D01*
X79555741Y-122244364D01*
X79635302Y-122363436D01*
X79736564Y-122464698D01*
X79855636Y-122544259D01*
X79987942Y-122599062D01*
X80128397Y-122627000D01*
X80271603Y-122627000D01*
X80412058Y-122599062D01*
X80544364Y-122544259D01*
X80663436Y-122464698D01*
X80764698Y-122363436D01*
X80844259Y-122244364D01*
X80899062Y-122112058D01*
X80927000Y-121971603D01*
X80927000Y-121828397D01*
X80899062Y-121687942D01*
X80844259Y-121555636D01*
X80764698Y-121436564D01*
X80663436Y-121335302D01*
X80544364Y-121255741D01*
X80412058Y-121200938D01*
X80271603Y-121173000D01*
X80128397Y-121173000D01*
X79987942Y-121200938D01*
X79855636Y-121255741D01*
X79736564Y-121335302D01*
X79635302Y-121436564D01*
X79555741Y-121555636D01*
X79500938Y-121687942D01*
X79473000Y-121828397D01*
X75510718Y-121828397D01*
X75526988Y-121746603D01*
X75526988Y-121603397D01*
X75499050Y-121462942D01*
X75444247Y-121330636D01*
X75364686Y-121211564D01*
X75263424Y-121110302D01*
X75144352Y-121030741D01*
X75012046Y-120975938D01*
X74871591Y-120948000D01*
X74728385Y-120948000D01*
X74587930Y-120975938D01*
X74455624Y-121030741D01*
X74336552Y-121110302D01*
X74235290Y-121211564D01*
X74155729Y-121330636D01*
X74100926Y-121462942D01*
X74072988Y-121603397D01*
X65452259Y-121603397D01*
X65452364Y-119722204D01*
X66048000Y-119722204D01*
X66050254Y-119745089D01*
X66050254Y-119758069D01*
X66050914Y-119764346D01*
X66072669Y-119958296D01*
X66081182Y-119998344D01*
X66089144Y-120038556D01*
X66091010Y-120044585D01*
X66150023Y-120230615D01*
X66166181Y-120268314D01*
X66181773Y-120306143D01*
X66184771Y-120311687D01*
X66184775Y-120311697D01*
X66184781Y-120311705D01*
X66278797Y-120482720D01*
X66301936Y-120516514D01*
X66324612Y-120550644D01*
X66328632Y-120555503D01*
X66328635Y-120555508D01*
X66328639Y-120555512D01*
X66454084Y-120705012D01*
X66483370Y-120733692D01*
X66512222Y-120762746D01*
X66517101Y-120766724D01*
X66517111Y-120766734D01*
X66517122Y-120766741D01*
X66669213Y-120889025D01*
X66703492Y-120911457D01*
X66737453Y-120934364D01*
X66743020Y-120937324D01*
X66743028Y-120937329D01*
X66743036Y-120937332D01*
X66915981Y-121027747D01*
X66953982Y-121043101D01*
X66991734Y-121058970D01*
X66997764Y-121060790D01*
X66997773Y-121060794D01*
X66997782Y-121060796D01*
X67185002Y-121115897D01*
X67225206Y-121123566D01*
X67265370Y-121131811D01*
X67271652Y-121132427D01*
X67466013Y-121150116D01*
X67506981Y-121149830D01*
X67547948Y-121150116D01*
X67554229Y-121149500D01*
X67748326Y-121129099D01*
X67788470Y-121120859D01*
X67828696Y-121113185D01*
X67834736Y-121111362D01*
X67834742Y-121111360D01*
X68021176Y-121053649D01*
X68058982Y-121037757D01*
X68096925Y-121022427D01*
X68102493Y-121019467D01*
X68102498Y-121019465D01*
X68102502Y-121019462D01*
X68274174Y-120926640D01*
X68308138Y-120903732D01*
X68342419Y-120881298D01*
X68347300Y-120877317D01*
X68347308Y-120877311D01*
X68347315Y-120877304D01*
X68497687Y-120752906D01*
X68526554Y-120723836D01*
X68555823Y-120695174D01*
X68559846Y-120690311D01*
X68683196Y-120539069D01*
X68705862Y-120504954D01*
X68729012Y-120471144D01*
X68732014Y-120465593D01*
X68759939Y-120413073D01*
X68786564Y-120439698D01*
X68905636Y-120519259D01*
X69037942Y-120574062D01*
X69178397Y-120602000D01*
X69321603Y-120602000D01*
X69462058Y-120574062D01*
X69594364Y-120519259D01*
X69655518Y-120478397D01*
X70198000Y-120478397D01*
X70198000Y-120621603D01*
X70225938Y-120762058D01*
X70280741Y-120894364D01*
X70360302Y-121013436D01*
X70461564Y-121114698D01*
X70580636Y-121194259D01*
X70712942Y-121249062D01*
X70853397Y-121277000D01*
X70996603Y-121277000D01*
X71137058Y-121249062D01*
X71269364Y-121194259D01*
X71388436Y-121114698D01*
X71489698Y-121013436D01*
X71569259Y-120894364D01*
X71624062Y-120762058D01*
X71652000Y-120621603D01*
X71652000Y-120575922D01*
X71787051Y-120549059D01*
X71919357Y-120494256D01*
X72038429Y-120414695D01*
X72139691Y-120313433D01*
X72219252Y-120194361D01*
X72272851Y-120064961D01*
X72305741Y-120144364D01*
X72385302Y-120263436D01*
X72486564Y-120364698D01*
X72605636Y-120444259D01*
X72737942Y-120499062D01*
X72878397Y-120527000D01*
X73008223Y-120527000D01*
X72998000Y-120578397D01*
X72998000Y-120721603D01*
X73025938Y-120862058D01*
X73080741Y-120994364D01*
X73160302Y-121113436D01*
X73261564Y-121214698D01*
X73380636Y-121294259D01*
X73512942Y-121349062D01*
X73653397Y-121377000D01*
X73796603Y-121377000D01*
X73937058Y-121349062D01*
X74069364Y-121294259D01*
X74188436Y-121214698D01*
X74289698Y-121113436D01*
X74369259Y-120994364D01*
X74424062Y-120862058D01*
X74452000Y-120721603D01*
X74452000Y-120578397D01*
X74424062Y-120437942D01*
X74369259Y-120305636D01*
X74289698Y-120186564D01*
X74188436Y-120085302D01*
X74069364Y-120005741D01*
X73937058Y-119950938D01*
X73796603Y-119923000D01*
X73666777Y-119923000D01*
X73677000Y-119871603D01*
X73677000Y-119728397D01*
X73649062Y-119587942D01*
X73594259Y-119455636D01*
X73514698Y-119336564D01*
X73465634Y-119287500D01*
X73539698Y-119213436D01*
X73619259Y-119094364D01*
X73674062Y-118962058D01*
X73702000Y-118821603D01*
X73702000Y-118678397D01*
X73674062Y-118537942D01*
X73619259Y-118405636D01*
X73539698Y-118286564D01*
X73440632Y-118187498D01*
X73461209Y-118166921D01*
X75824100Y-118166921D01*
X75824100Y-118300279D01*
X75850116Y-118431074D01*
X75901150Y-118554280D01*
X75975240Y-118665163D01*
X76043677Y-118733600D01*
X75975240Y-118802037D01*
X75901150Y-118912920D01*
X75850116Y-119036126D01*
X75824100Y-119166921D01*
X75824100Y-119300279D01*
X75850116Y-119431074D01*
X75901150Y-119554280D01*
X75975240Y-119665163D01*
X76043677Y-119733600D01*
X75975240Y-119802037D01*
X75901150Y-119912920D01*
X75850116Y-120036126D01*
X75824100Y-120166921D01*
X75824100Y-120300279D01*
X75850116Y-120431074D01*
X75901150Y-120554280D01*
X75975240Y-120665163D01*
X76069537Y-120759460D01*
X76180420Y-120833550D01*
X76303626Y-120884584D01*
X76434421Y-120910600D01*
X76567779Y-120910600D01*
X76698574Y-120884584D01*
X76821780Y-120833550D01*
X76932663Y-120759460D01*
X77001100Y-120691023D01*
X77069537Y-120759460D01*
X77180420Y-120833550D01*
X77303626Y-120884584D01*
X77434421Y-120910600D01*
X77567779Y-120910600D01*
X77698574Y-120884584D01*
X77821780Y-120833550D01*
X77932663Y-120759460D01*
X78001100Y-120691023D01*
X78069537Y-120759460D01*
X78180420Y-120833550D01*
X78303626Y-120884584D01*
X78434421Y-120910600D01*
X78567779Y-120910600D01*
X78698574Y-120884584D01*
X78821780Y-120833550D01*
X78932663Y-120759460D01*
X79026960Y-120665163D01*
X79101050Y-120554280D01*
X79132482Y-120478397D01*
X80223000Y-120478397D01*
X80223000Y-120621603D01*
X80250938Y-120762058D01*
X80305741Y-120894364D01*
X80385302Y-121013436D01*
X80486564Y-121114698D01*
X80605636Y-121194259D01*
X80737942Y-121249062D01*
X80878397Y-121277000D01*
X81021603Y-121277000D01*
X81162058Y-121249062D01*
X81294364Y-121194259D01*
X81413436Y-121114698D01*
X81514698Y-121013436D01*
X81594259Y-120894364D01*
X81649062Y-120762058D01*
X81677000Y-120621603D01*
X81677000Y-120478397D01*
X81649062Y-120337942D01*
X81594259Y-120205636D01*
X81514698Y-120086564D01*
X81413436Y-119985302D01*
X81294364Y-119905741D01*
X81162058Y-119850938D01*
X81021603Y-119823000D01*
X80878397Y-119823000D01*
X80737942Y-119850938D01*
X80605636Y-119905741D01*
X80486564Y-119985302D01*
X80385302Y-120086564D01*
X80305741Y-120205636D01*
X80250938Y-120337942D01*
X80223000Y-120478397D01*
X79132482Y-120478397D01*
X79152084Y-120431074D01*
X79178100Y-120300279D01*
X79178100Y-120166921D01*
X79152084Y-120036126D01*
X79101050Y-119912920D01*
X79026960Y-119802037D01*
X78958523Y-119733600D01*
X79026960Y-119665163D01*
X79101050Y-119554280D01*
X79152084Y-119431074D01*
X79178100Y-119300279D01*
X79178100Y-119166921D01*
X79152084Y-119036126D01*
X79101050Y-118912920D01*
X79026960Y-118802037D01*
X78958523Y-118733600D01*
X79026960Y-118665163D01*
X79101050Y-118554280D01*
X79152084Y-118431074D01*
X79178100Y-118300279D01*
X79178100Y-118166921D01*
X79152084Y-118036126D01*
X79101050Y-117912920D01*
X79026960Y-117802037D01*
X78932663Y-117707740D01*
X78821780Y-117633650D01*
X78698574Y-117582616D01*
X78567779Y-117556600D01*
X78434421Y-117556600D01*
X78303626Y-117582616D01*
X78180420Y-117633650D01*
X78069537Y-117707740D01*
X78001100Y-117776177D01*
X77932663Y-117707740D01*
X77821780Y-117633650D01*
X77698574Y-117582616D01*
X77567779Y-117556600D01*
X77434421Y-117556600D01*
X77303626Y-117582616D01*
X77180420Y-117633650D01*
X77069537Y-117707740D01*
X77001100Y-117776177D01*
X76932663Y-117707740D01*
X76821780Y-117633650D01*
X76698574Y-117582616D01*
X76567779Y-117556600D01*
X76434421Y-117556600D01*
X76303626Y-117582616D01*
X76180420Y-117633650D01*
X76069537Y-117707740D01*
X75975240Y-117802037D01*
X75901150Y-117912920D01*
X75850116Y-118036126D01*
X75824100Y-118166921D01*
X73461209Y-118166921D01*
X73489693Y-118138437D01*
X73569254Y-118019365D01*
X73624057Y-117887059D01*
X73651995Y-117746604D01*
X73651995Y-117603398D01*
X73651717Y-117601998D01*
X73671635Y-117601998D01*
X73812090Y-117574060D01*
X73944396Y-117519257D01*
X74063468Y-117439696D01*
X74074767Y-117428397D01*
X80523014Y-117428397D01*
X80523014Y-117571603D01*
X80550952Y-117712058D01*
X80605755Y-117844364D01*
X80685316Y-117963436D01*
X80786578Y-118064698D01*
X80905650Y-118144259D01*
X81037956Y-118199062D01*
X81178411Y-118227000D01*
X81321617Y-118227000D01*
X81462072Y-118199062D01*
X81594378Y-118144259D01*
X81713450Y-118064698D01*
X81814712Y-117963436D01*
X81894273Y-117844364D01*
X81949076Y-117712058D01*
X81977014Y-117571603D01*
X81977014Y-117487363D01*
X81977186Y-117487363D01*
X82117641Y-117459425D01*
X82249947Y-117404622D01*
X82317926Y-117359200D01*
X82366668Y-117476873D01*
X82467603Y-117627932D01*
X82596068Y-117756397D01*
X82747127Y-117857332D01*
X82914975Y-117926857D01*
X83093161Y-117962300D01*
X83274839Y-117962300D01*
X83453025Y-117926857D01*
X83620873Y-117857332D01*
X83771932Y-117756397D01*
X83900397Y-117627932D01*
X84001332Y-117476873D01*
X84070857Y-117309025D01*
X84106300Y-117130839D01*
X84106300Y-116949161D01*
X84293700Y-116949161D01*
X84293700Y-117130839D01*
X84329143Y-117309025D01*
X84398668Y-117476873D01*
X84499603Y-117627932D01*
X84628068Y-117756397D01*
X84779127Y-117857332D01*
X84946975Y-117926857D01*
X85125161Y-117962300D01*
X85306839Y-117962300D01*
X85485025Y-117926857D01*
X85652873Y-117857332D01*
X85803932Y-117756397D01*
X85932397Y-117627932D01*
X86033332Y-117476873D01*
X86048000Y-117441461D01*
X86048000Y-119722204D01*
X86050254Y-119745089D01*
X86050254Y-119758069D01*
X86050914Y-119764346D01*
X86072669Y-119958296D01*
X86081182Y-119998344D01*
X86089144Y-120038556D01*
X86091010Y-120044585D01*
X86150023Y-120230615D01*
X86166181Y-120268314D01*
X86181773Y-120306143D01*
X86184771Y-120311687D01*
X86184775Y-120311697D01*
X86184781Y-120311705D01*
X86278797Y-120482720D01*
X86301936Y-120516514D01*
X86324612Y-120550644D01*
X86328632Y-120555503D01*
X86328635Y-120555508D01*
X86328639Y-120555512D01*
X86454084Y-120705012D01*
X86483370Y-120733692D01*
X86512222Y-120762746D01*
X86517101Y-120766724D01*
X86517111Y-120766734D01*
X86517122Y-120766741D01*
X86669213Y-120889025D01*
X86703492Y-120911457D01*
X86737453Y-120934364D01*
X86743020Y-120937324D01*
X86743028Y-120937329D01*
X86743036Y-120937332D01*
X86915981Y-121027747D01*
X86953982Y-121043101D01*
X86991734Y-121058970D01*
X86997764Y-121060790D01*
X86997773Y-121060794D01*
X86997782Y-121060796D01*
X87185002Y-121115897D01*
X87225206Y-121123566D01*
X87265370Y-121131811D01*
X87271652Y-121132427D01*
X87466013Y-121150116D01*
X87506981Y-121149830D01*
X87547948Y-121150116D01*
X87554229Y-121149500D01*
X87748326Y-121129099D01*
X87788470Y-121120859D01*
X87828696Y-121113185D01*
X87834736Y-121111362D01*
X87834742Y-121111360D01*
X88021176Y-121053649D01*
X88058982Y-121037757D01*
X88096925Y-121022427D01*
X88102493Y-121019467D01*
X88102498Y-121019465D01*
X88102502Y-121019462D01*
X88274174Y-120926640D01*
X88308138Y-120903732D01*
X88342419Y-120881298D01*
X88347300Y-120877317D01*
X88347308Y-120877311D01*
X88347315Y-120877304D01*
X88497687Y-120752906D01*
X88526554Y-120723836D01*
X88555823Y-120695174D01*
X88559846Y-120690311D01*
X88683196Y-120539069D01*
X88705862Y-120504954D01*
X88729012Y-120471144D01*
X88732014Y-120465593D01*
X88823639Y-120293270D01*
X88839260Y-120255370D01*
X88855388Y-120217741D01*
X88857251Y-120211722D01*
X88857255Y-120211712D01*
X88857257Y-120211702D01*
X88913664Y-120024876D01*
X88921626Y-119984663D01*
X88930138Y-119944618D01*
X88930798Y-119938342D01*
X88949843Y-119744108D01*
X88949843Y-119744105D01*
X88952000Y-119722205D01*
X88952000Y-107677795D01*
X88949746Y-107654910D01*
X88949746Y-107641930D01*
X88949086Y-107635654D01*
X88927331Y-107441704D01*
X88918818Y-107401656D01*
X88910856Y-107361444D01*
X88908990Y-107355415D01*
X88849977Y-107169385D01*
X88833836Y-107131726D01*
X88818227Y-107093857D01*
X88815226Y-107088305D01*
X88721203Y-106917280D01*
X88698082Y-106883513D01*
X88675389Y-106849356D01*
X88671366Y-106844494D01*
X88671365Y-106844492D01*
X88671361Y-106844488D01*
X88545916Y-106694988D01*
X88516630Y-106666308D01*
X88487778Y-106637254D01*
X88482893Y-106633270D01*
X88482889Y-106633266D01*
X88482885Y-106633263D01*
X88330787Y-106510975D01*
X88296517Y-106488549D01*
X88262546Y-106465635D01*
X88256980Y-106462676D01*
X88256972Y-106462671D01*
X88256964Y-106462668D01*
X88084018Y-106372253D01*
X88046017Y-106356899D01*
X88008265Y-106341030D01*
X88002236Y-106339210D01*
X88002227Y-106339206D01*
X88002218Y-106339204D01*
X87814998Y-106284103D01*
X87774786Y-106276432D01*
X87734629Y-106268189D01*
X87728348Y-106267573D01*
X87533986Y-106249884D01*
X87493019Y-106250170D01*
X87452052Y-106249884D01*
X87445771Y-106250500D01*
X87251674Y-106270901D01*
X87211530Y-106279141D01*
X87171304Y-106286815D01*
X87165264Y-106288638D01*
X87165258Y-106288640D01*
X86978824Y-106346351D01*
X86941018Y-106362243D01*
X86903075Y-106377573D01*
X86897511Y-106380531D01*
X86897502Y-106380535D01*
X86897495Y-106380540D01*
X86725826Y-106473360D01*
X86691862Y-106496268D01*
X86657581Y-106518702D01*
X86652690Y-106522691D01*
X86502313Y-106647095D01*
X86473448Y-106676161D01*
X86444177Y-106704826D01*
X86440159Y-106709683D01*
X86440153Y-106709689D01*
X86440149Y-106709696D01*
X86316804Y-106860931D01*
X86294150Y-106895028D01*
X86270988Y-106928855D01*
X86267991Y-106934399D01*
X86267986Y-106934407D01*
X86267983Y-106934415D01*
X86176361Y-107106729D01*
X86160739Y-107144631D01*
X86144612Y-107182259D01*
X86142749Y-107188278D01*
X86142745Y-107188288D01*
X86142743Y-107188298D01*
X86086337Y-107375124D01*
X86078380Y-107415307D01*
X86069862Y-107455382D01*
X86069202Y-107461659D01*
X86050157Y-107655892D01*
X86050157Y-107655905D01*
X86048001Y-107677795D01*
X86048000Y-113805472D01*
X86037054Y-113800938D01*
X85896599Y-113773000D01*
X85753393Y-113773000D01*
X85612938Y-113800938D01*
X85480632Y-113855741D01*
X85361560Y-113935302D01*
X85260298Y-114036564D01*
X85180737Y-114155636D01*
X85125934Y-114287942D01*
X85097996Y-114428397D01*
X85097996Y-114571603D01*
X85125934Y-114712058D01*
X85180737Y-114844364D01*
X85260298Y-114963436D01*
X85346864Y-115050002D01*
X85260302Y-115136564D01*
X85180741Y-115255636D01*
X85125938Y-115387942D01*
X85098000Y-115528397D01*
X85098000Y-115671603D01*
X85125938Y-115812058D01*
X85180741Y-115944364D01*
X85260302Y-116063436D01*
X85316485Y-116119619D01*
X85306839Y-116117700D01*
X85125161Y-116117700D01*
X84946975Y-116153143D01*
X84779127Y-116222668D01*
X84628068Y-116323603D01*
X84499603Y-116452068D01*
X84398668Y-116603127D01*
X84329143Y-116770975D01*
X84293700Y-116949161D01*
X84106300Y-116949161D01*
X84070857Y-116770975D01*
X84001332Y-116603127D01*
X83900397Y-116452068D01*
X83771932Y-116323603D01*
X83620873Y-116222668D01*
X83453025Y-116153143D01*
X83274839Y-116117700D01*
X83093161Y-116117700D01*
X82914975Y-116153143D01*
X82747127Y-116222668D01*
X82596068Y-116323603D01*
X82531349Y-116388322D01*
X82470281Y-116296927D01*
X82369019Y-116195665D01*
X82362094Y-116191038D01*
X82389696Y-116163436D01*
X82469257Y-116044364D01*
X82524060Y-115912058D01*
X82551998Y-115771603D01*
X82551998Y-115628397D01*
X82524060Y-115487942D01*
X82469257Y-115355636D01*
X82389696Y-115236564D01*
X82288434Y-115135302D01*
X82169362Y-115055741D01*
X82037056Y-115000938D01*
X81896601Y-114973000D01*
X81753395Y-114973000D01*
X81612940Y-115000938D01*
X81480634Y-115055741D01*
X81361562Y-115135302D01*
X81260300Y-115236564D01*
X81180739Y-115355636D01*
X81125936Y-115487942D01*
X81097998Y-115628397D01*
X81097998Y-115771603D01*
X81125936Y-115912058D01*
X81180739Y-116044364D01*
X81260300Y-116163436D01*
X81361562Y-116264698D01*
X81368487Y-116269325D01*
X81340885Y-116296927D01*
X81261324Y-116415999D01*
X81206521Y-116548305D01*
X81178583Y-116688760D01*
X81178583Y-116773000D01*
X81178411Y-116773000D01*
X81037956Y-116800938D01*
X80905650Y-116855741D01*
X80786578Y-116935302D01*
X80685316Y-117036564D01*
X80605755Y-117155636D01*
X80550952Y-117287942D01*
X80523014Y-117428397D01*
X74074767Y-117428397D01*
X74164730Y-117338434D01*
X74244291Y-117219362D01*
X74299094Y-117087056D01*
X74327032Y-116946601D01*
X74327032Y-116803395D01*
X74299094Y-116662940D01*
X74244291Y-116530634D01*
X74164730Y-116411562D01*
X74063468Y-116310300D01*
X73944396Y-116230739D01*
X73812090Y-116175936D01*
X73671635Y-116147998D01*
X73528429Y-116147998D01*
X73387974Y-116175936D01*
X73255668Y-116230739D01*
X73136596Y-116310300D01*
X73035334Y-116411562D01*
X72955773Y-116530634D01*
X72900970Y-116662940D01*
X72873032Y-116803395D01*
X72873032Y-116946601D01*
X72873310Y-116948001D01*
X72853392Y-116948001D01*
X72712937Y-116975939D01*
X72580631Y-117030742D01*
X72461559Y-117110303D01*
X72360297Y-117211565D01*
X72280736Y-117330637D01*
X72225933Y-117462943D01*
X72197995Y-117603398D01*
X72197995Y-117746604D01*
X72225933Y-117887059D01*
X72280736Y-118019365D01*
X72360297Y-118138437D01*
X72459363Y-118237503D01*
X72410302Y-118286564D01*
X72330741Y-118405636D01*
X72275938Y-118537942D01*
X72248000Y-118678397D01*
X72248000Y-118821603D01*
X72275938Y-118962058D01*
X72330741Y-119094364D01*
X72410302Y-119213436D01*
X72459366Y-119262500D01*
X72385302Y-119336564D01*
X72305741Y-119455636D01*
X72252142Y-119585036D01*
X72219252Y-119505633D01*
X72139691Y-119386561D01*
X72038429Y-119285299D01*
X71919357Y-119205738D01*
X71787051Y-119150935D01*
X71646596Y-119122997D01*
X71503390Y-119122997D01*
X71362935Y-119150935D01*
X71230629Y-119205738D01*
X71111557Y-119285299D01*
X71010295Y-119386561D01*
X70930734Y-119505633D01*
X70875931Y-119637939D01*
X70847993Y-119778394D01*
X70847993Y-119824075D01*
X70712942Y-119850938D01*
X70580636Y-119905741D01*
X70461564Y-119985302D01*
X70360302Y-120086564D01*
X70280741Y-120205636D01*
X70225938Y-120337942D01*
X70198000Y-120478397D01*
X69655518Y-120478397D01*
X69713436Y-120439698D01*
X69814698Y-120338436D01*
X69894259Y-120219364D01*
X69949062Y-120087058D01*
X69977000Y-119946603D01*
X69977000Y-119803397D01*
X69949062Y-119662942D01*
X69894259Y-119530636D01*
X69814698Y-119411564D01*
X69713436Y-119310302D01*
X69594364Y-119230741D01*
X69462058Y-119175938D01*
X69321603Y-119148000D01*
X69178397Y-119148000D01*
X69037942Y-119175938D01*
X68952000Y-119211536D01*
X68952000Y-115578397D01*
X69373000Y-115578397D01*
X69373000Y-115721603D01*
X69400938Y-115862058D01*
X69455741Y-115994364D01*
X69535302Y-116113436D01*
X69636564Y-116214698D01*
X69755636Y-116294259D01*
X69887942Y-116349062D01*
X70028397Y-116377000D01*
X70171603Y-116377000D01*
X70312058Y-116349062D01*
X70444364Y-116294259D01*
X70563436Y-116214698D01*
X70664698Y-116113436D01*
X70720890Y-116029338D01*
X70780636Y-116069259D01*
X70912942Y-116124062D01*
X71053397Y-116152000D01*
X71196603Y-116152000D01*
X71337058Y-116124062D01*
X71469364Y-116069259D01*
X71588436Y-115989698D01*
X71689698Y-115888436D01*
X71769259Y-115769364D01*
X71824062Y-115637058D01*
X71852000Y-115496603D01*
X71852000Y-115353397D01*
X71824062Y-115212942D01*
X71769259Y-115080636D01*
X71689698Y-114961564D01*
X71588436Y-114860302D01*
X71469364Y-114780741D01*
X71337058Y-114725938D01*
X71196603Y-114698000D01*
X71053397Y-114698000D01*
X70912942Y-114725938D01*
X70780636Y-114780741D01*
X70661564Y-114860302D01*
X70560302Y-114961564D01*
X70504110Y-115045662D01*
X70444364Y-115005741D01*
X70312058Y-114950938D01*
X70171603Y-114923000D01*
X70028397Y-114923000D01*
X69887942Y-114950938D01*
X69755636Y-115005741D01*
X69636564Y-115085302D01*
X69535302Y-115186564D01*
X69455741Y-115305636D01*
X69400938Y-115437942D01*
X69373000Y-115578397D01*
X68952000Y-115578397D01*
X68952000Y-114128397D01*
X73473010Y-114128397D01*
X73473010Y-114271603D01*
X73500948Y-114412058D01*
X73555751Y-114544364D01*
X73635312Y-114663436D01*
X73684488Y-114712612D01*
X73655741Y-114755636D01*
X73600938Y-114887942D01*
X73573000Y-115028397D01*
X73573000Y-115171603D01*
X73600938Y-115312058D01*
X73655741Y-115444364D01*
X73735302Y-115563436D01*
X73836564Y-115664698D01*
X73955636Y-115744259D01*
X74087942Y-115799062D01*
X74228397Y-115827000D01*
X74371603Y-115827000D01*
X74512058Y-115799062D01*
X74644364Y-115744259D01*
X74763436Y-115664698D01*
X74864698Y-115563436D01*
X74944259Y-115444364D01*
X74999062Y-115312058D01*
X75027000Y-115171603D01*
X75027000Y-115028397D01*
X74999062Y-114887942D01*
X74944259Y-114755636D01*
X74864698Y-114636564D01*
X74815522Y-114587388D01*
X74844269Y-114544364D01*
X74899072Y-114412058D01*
X74927010Y-114271603D01*
X74927010Y-114128397D01*
X74899072Y-113987942D01*
X74844269Y-113855636D01*
X74764708Y-113736564D01*
X74663446Y-113635302D01*
X74544374Y-113555741D01*
X74412068Y-113500938D01*
X74271613Y-113473000D01*
X74128407Y-113473000D01*
X73987952Y-113500938D01*
X73855646Y-113555741D01*
X73736574Y-113635302D01*
X73635312Y-113736564D01*
X73555751Y-113855636D01*
X73500948Y-113987942D01*
X73473010Y-114128397D01*
X68952000Y-114128397D01*
X68952000Y-107677795D01*
X68949746Y-107654910D01*
X68949746Y-107641930D01*
X68949086Y-107635654D01*
X68927331Y-107441704D01*
X68918818Y-107401656D01*
X68910856Y-107361444D01*
X68908990Y-107355415D01*
X68849977Y-107169385D01*
X68833836Y-107131726D01*
X68818227Y-107093857D01*
X68815226Y-107088305D01*
X68721203Y-106917280D01*
X68698082Y-106883513D01*
X68675389Y-106849356D01*
X68671366Y-106844494D01*
X68671365Y-106844492D01*
X68671361Y-106844488D01*
X68545916Y-106694988D01*
X68516630Y-106666308D01*
X68487778Y-106637254D01*
X68482893Y-106633270D01*
X68482889Y-106633266D01*
X68482885Y-106633263D01*
X68330787Y-106510975D01*
X68296517Y-106488549D01*
X68262546Y-106465635D01*
X68256980Y-106462676D01*
X68256972Y-106462671D01*
X68256964Y-106462668D01*
X68084018Y-106372253D01*
X68046017Y-106356899D01*
X68008265Y-106341030D01*
X68002236Y-106339210D01*
X68002227Y-106339206D01*
X68002218Y-106339204D01*
X67814998Y-106284103D01*
X67774786Y-106276432D01*
X67734629Y-106268189D01*
X67728348Y-106267573D01*
X67533986Y-106249884D01*
X67493019Y-106250170D01*
X67452052Y-106249884D01*
X67445771Y-106250500D01*
X67251674Y-106270901D01*
X67211530Y-106279141D01*
X67171304Y-106286815D01*
X67165264Y-106288638D01*
X67165258Y-106288640D01*
X66978824Y-106346351D01*
X66941018Y-106362243D01*
X66903075Y-106377573D01*
X66897511Y-106380531D01*
X66897502Y-106380535D01*
X66897495Y-106380540D01*
X66725826Y-106473360D01*
X66691862Y-106496268D01*
X66657581Y-106518702D01*
X66652690Y-106522691D01*
X66502313Y-106647095D01*
X66473448Y-106676161D01*
X66444177Y-106704826D01*
X66440159Y-106709683D01*
X66440153Y-106709689D01*
X66440149Y-106709696D01*
X66316804Y-106860931D01*
X66294150Y-106895028D01*
X66270988Y-106928855D01*
X66267991Y-106934399D01*
X66267986Y-106934407D01*
X66267983Y-106934415D01*
X66176361Y-107106729D01*
X66160739Y-107144631D01*
X66144612Y-107182259D01*
X66142749Y-107188278D01*
X66142745Y-107188288D01*
X66142743Y-107188298D01*
X66086337Y-107375124D01*
X66078380Y-107415307D01*
X66069862Y-107455382D01*
X66069202Y-107461659D01*
X66050157Y-107655892D01*
X66050157Y-107655905D01*
X66048001Y-107677795D01*
X66048000Y-119722204D01*
X65452364Y-119722204D01*
X65453099Y-106510898D01*
X65474085Y-106296861D01*
X65533080Y-106101463D01*
X65628903Y-105921247D01*
X65757908Y-105763070D01*
X65915178Y-105632966D01*
X66094725Y-105535885D01*
X66289706Y-105475528D01*
X66513568Y-105452000D01*
X70972394Y-105452000D01*
X71073000Y-105552606D01*
X71073000Y-105552606D01*
G37*
X71073000Y-105552606D02*
X71073000Y-109715826D01*
X71037058Y-109700938D01*
X70896603Y-109673000D01*
X70753397Y-109673000D01*
X70612942Y-109700938D01*
X70480636Y-109755741D01*
X70361564Y-109835302D01*
X70260302Y-109936564D01*
X70180741Y-110055636D01*
X70125938Y-110187942D01*
X70098000Y-110328397D01*
X70098000Y-110471603D01*
X70125938Y-110612058D01*
X70180741Y-110744364D01*
X70260302Y-110863436D01*
X70361564Y-110964698D01*
X70480636Y-111044259D01*
X70612942Y-111099062D01*
X70753397Y-111127000D01*
X70896603Y-111127000D01*
X71037058Y-111099062D01*
X71073000Y-111084174D01*
X71073000Y-112100000D01*
X71075440Y-112124776D01*
X71082667Y-112148601D01*
X71094403Y-112170557D01*
X71110197Y-112189803D01*
X71610197Y-112689803D01*
X71629443Y-112705597D01*
X71651399Y-112717333D01*
X71675224Y-112724560D01*
X71700000Y-112727000D01*
X80278084Y-112727000D01*
X80177977Y-112793889D01*
X80076715Y-112895151D01*
X79997154Y-113014223D01*
X79942351Y-113146529D01*
X79914413Y-113286984D01*
X79914413Y-113430190D01*
X79942351Y-113570645D01*
X79997154Y-113702951D01*
X80076715Y-113822023D01*
X80177977Y-113923285D01*
X80297049Y-114002846D01*
X80429355Y-114057649D01*
X80569810Y-114085587D01*
X80713016Y-114085587D01*
X80853471Y-114057649D01*
X80985777Y-114002846D01*
X81104849Y-113923285D01*
X81122016Y-113906118D01*
X81160314Y-113963436D01*
X81261576Y-114064698D01*
X81380648Y-114144259D01*
X81512954Y-114199062D01*
X81653409Y-114227000D01*
X81796615Y-114227000D01*
X81937070Y-114199062D01*
X82069376Y-114144259D01*
X82188448Y-114064698D01*
X82289710Y-113963436D01*
X82369271Y-113844364D01*
X82424074Y-113712058D01*
X82452012Y-113571603D01*
X82452012Y-113428397D01*
X82424074Y-113287942D01*
X82369271Y-113155636D01*
X82289710Y-113036564D01*
X82188448Y-112935302D01*
X82069376Y-112855741D01*
X81937070Y-112800938D01*
X81796615Y-112773000D01*
X81653409Y-112773000D01*
X81512954Y-112800938D01*
X81380648Y-112855741D01*
X81261576Y-112935302D01*
X81244409Y-112952469D01*
X81206111Y-112895151D01*
X81104849Y-112793889D01*
X81004742Y-112727000D01*
X83100000Y-112727000D01*
X83124776Y-112724560D01*
X83148601Y-112717333D01*
X83170557Y-112705597D01*
X83189803Y-112689803D01*
X83422749Y-112456857D01*
X83483603Y-112547932D01*
X83612068Y-112676397D01*
X83763127Y-112777332D01*
X83930975Y-112846857D01*
X84109161Y-112882300D01*
X84290839Y-112882300D01*
X84469025Y-112846857D01*
X84636873Y-112777332D01*
X84787932Y-112676397D01*
X84916397Y-112547932D01*
X85017332Y-112396873D01*
X85086857Y-112229025D01*
X85122300Y-112050839D01*
X85122300Y-111869161D01*
X85086857Y-111690975D01*
X85017332Y-111523127D01*
X84916397Y-111372068D01*
X84787932Y-111243603D01*
X84636873Y-111142668D01*
X84469025Y-111073143D01*
X84290839Y-111037700D01*
X84109161Y-111037700D01*
X83930975Y-111073143D01*
X83763127Y-111142668D01*
X83727000Y-111166807D01*
X83727000Y-105552606D01*
X83827606Y-105452000D01*
X88477892Y-105452000D01*
X88703139Y-105474085D01*
X88898537Y-105533080D01*
X89078753Y-105628903D01*
X89236930Y-105757908D01*
X89367034Y-105915178D01*
X89464115Y-106094725D01*
X89524472Y-106289706D01*
X89548003Y-106513593D01*
X89552997Y-133486413D01*
X89529570Y-133709979D01*
X89469271Y-133904988D01*
X89372246Y-134084570D01*
X89242188Y-134241883D01*
X89084049Y-134370940D01*
X88903852Y-134466826D01*
X88708467Y-134525884D01*
X88483630Y-134548000D01*
X66506030Y-134548000D01*
X66295061Y-134527315D01*
X66099663Y-134468320D01*
X65919449Y-134372499D01*
X65761270Y-134243491D01*
X65631168Y-134086224D01*
X65534085Y-133906675D01*
X65473728Y-133711694D01*
X65451599Y-133501145D01*
X65451730Y-131128397D01*
X73798000Y-131128397D01*
X73798000Y-131271603D01*
X73825938Y-131412058D01*
X73880741Y-131544364D01*
X73960302Y-131663436D01*
X73996866Y-131700000D01*
X73960302Y-131736564D01*
X73880741Y-131855636D01*
X73825938Y-131987942D01*
X73798000Y-132128397D01*
X73798000Y-132271603D01*
X73825938Y-132412058D01*
X73880741Y-132544364D01*
X73960302Y-132663436D01*
X73996866Y-132700000D01*
X73960302Y-132736564D01*
X73880741Y-132855636D01*
X73825938Y-132987942D01*
X73798000Y-133128397D01*
X73798000Y-133271603D01*
X73825938Y-133412058D01*
X73880741Y-133544364D01*
X73960302Y-133663436D01*
X74061564Y-133764698D01*
X74180636Y-133844259D01*
X74312942Y-133899062D01*
X74453397Y-133927000D01*
X74596603Y-133927000D01*
X74737058Y-133899062D01*
X74869364Y-133844259D01*
X74988436Y-133764698D01*
X75089698Y-133663436D01*
X75169259Y-133544364D01*
X75224062Y-133412058D01*
X75252000Y-133271603D01*
X75252000Y-133128397D01*
X75224062Y-132987942D01*
X75169259Y-132855636D01*
X75089698Y-132736564D01*
X75053134Y-132700000D01*
X75089698Y-132663436D01*
X75169259Y-132544364D01*
X75224062Y-132412058D01*
X75240703Y-132328397D01*
X79598000Y-132328397D01*
X79598000Y-132471603D01*
X79625938Y-132612058D01*
X79680741Y-132744364D01*
X79760302Y-132863436D01*
X79861564Y-132964698D01*
X79980636Y-133044259D01*
X80112942Y-133099062D01*
X80253397Y-133127000D01*
X80396603Y-133127000D01*
X80537058Y-133099062D01*
X80669364Y-133044259D01*
X80788436Y-132964698D01*
X80889698Y-132863436D01*
X80969259Y-132744364D01*
X81024062Y-132612058D01*
X81052000Y-132471603D01*
X81052000Y-132328397D01*
X81024062Y-132187942D01*
X80969259Y-132055636D01*
X80889698Y-131936564D01*
X80788436Y-131835302D01*
X80669364Y-131755741D01*
X80537058Y-131700938D01*
X80396603Y-131673000D01*
X80253397Y-131673000D01*
X80112942Y-131700938D01*
X79980636Y-131755741D01*
X79861564Y-131835302D01*
X79760302Y-131936564D01*
X79680741Y-132055636D01*
X79625938Y-132187942D01*
X79598000Y-132328397D01*
X75240703Y-132328397D01*
X75252000Y-132271603D01*
X75252000Y-132128397D01*
X75224062Y-131987942D01*
X75169259Y-131855636D01*
X75089698Y-131736564D01*
X75053134Y-131700000D01*
X75089698Y-131663436D01*
X75169259Y-131544364D01*
X75224062Y-131412058D01*
X75252000Y-131271603D01*
X75252000Y-131128397D01*
X75224062Y-130987942D01*
X75169259Y-130855636D01*
X75089698Y-130736564D01*
X74988436Y-130635302D01*
X74869364Y-130555741D01*
X74737058Y-130500938D01*
X74596603Y-130473000D01*
X74453397Y-130473000D01*
X74312942Y-130500938D01*
X74180636Y-130555741D01*
X74061564Y-130635302D01*
X73960302Y-130736564D01*
X73880741Y-130855636D01*
X73825938Y-130987942D01*
X73798000Y-131128397D01*
X65451730Y-131128397D01*
X65451813Y-129638397D01*
X73618000Y-129638397D01*
X73618000Y-129781603D01*
X73645938Y-129922058D01*
X73700741Y-130054364D01*
X73780302Y-130173436D01*
X73881564Y-130274698D01*
X74000636Y-130354259D01*
X74132942Y-130409062D01*
X74273397Y-130437000D01*
X74416603Y-130437000D01*
X74557058Y-130409062D01*
X74689364Y-130354259D01*
X74808436Y-130274698D01*
X74909698Y-130173436D01*
X74989259Y-130054364D01*
X75044062Y-129922058D01*
X75072000Y-129781603D01*
X75072000Y-129638397D01*
X75044062Y-129497942D01*
X74989259Y-129365636D01*
X74909698Y-129246564D01*
X74808436Y-129145302D01*
X74708306Y-129078397D01*
X78073001Y-129078397D01*
X78073001Y-129221603D01*
X78100939Y-129362058D01*
X78155742Y-129494364D01*
X78235303Y-129613436D01*
X78336565Y-129714698D01*
X78455637Y-129794259D01*
X78587943Y-129849062D01*
X78728398Y-129877000D01*
X78871604Y-129877000D01*
X79012059Y-129849062D01*
X79144365Y-129794259D01*
X79242934Y-129728397D01*
X82498000Y-129728397D01*
X82498000Y-129871603D01*
X82525938Y-130012058D01*
X82580741Y-130144364D01*
X82660302Y-130263436D01*
X82761564Y-130364698D01*
X82880636Y-130444259D01*
X83012942Y-130499062D01*
X83153397Y-130527000D01*
X83296603Y-130527000D01*
X83437058Y-130499062D01*
X83569364Y-130444259D01*
X83688436Y-130364698D01*
X83789698Y-130263436D01*
X83869259Y-130144364D01*
X83924062Y-130012058D01*
X83952000Y-129871603D01*
X83952000Y-129728397D01*
X83924062Y-129587942D01*
X83869259Y-129455636D01*
X83789698Y-129336564D01*
X83688436Y-129235302D01*
X83569364Y-129155741D01*
X83437058Y-129100938D01*
X83296603Y-129073000D01*
X83153397Y-129073000D01*
X83012942Y-129100938D01*
X82880636Y-129155741D01*
X82761564Y-129235302D01*
X82660302Y-129336564D01*
X82580741Y-129455636D01*
X82525938Y-129587942D01*
X82498000Y-129728397D01*
X79242934Y-129728397D01*
X79263437Y-129714698D01*
X79364699Y-129613436D01*
X79444260Y-129494364D01*
X79499063Y-129362058D01*
X79527001Y-129221603D01*
X79527001Y-129078397D01*
X79499063Y-128937942D01*
X79444260Y-128805636D01*
X79364699Y-128686564D01*
X79263437Y-128585302D01*
X79144365Y-128505741D01*
X79012059Y-128450938D01*
X78871604Y-128423000D01*
X78728398Y-128423000D01*
X78587943Y-128450938D01*
X78455637Y-128505741D01*
X78336565Y-128585302D01*
X78235303Y-128686564D01*
X78155742Y-128805636D01*
X78100939Y-128937942D01*
X78073001Y-129078397D01*
X74708306Y-129078397D01*
X74689364Y-129065741D01*
X74557058Y-129010938D01*
X74416603Y-128983000D01*
X74273397Y-128983000D01*
X74132942Y-129010938D01*
X74000636Y-129065741D01*
X73881564Y-129145302D01*
X73780302Y-129246564D01*
X73700741Y-129365636D01*
X73645938Y-129497942D01*
X73618000Y-129638397D01*
X65451813Y-129638397D01*
X65451946Y-127228397D01*
X75898000Y-127228397D01*
X75898000Y-127371603D01*
X75925938Y-127512058D01*
X75980741Y-127644364D01*
X76060302Y-127763436D01*
X76161564Y-127864698D01*
X76280636Y-127944259D01*
X76412942Y-127999062D01*
X76553397Y-128027000D01*
X76696603Y-128027000D01*
X76837058Y-127999062D01*
X76969364Y-127944259D01*
X77088436Y-127864698D01*
X77189698Y-127763436D01*
X77269259Y-127644364D01*
X77275872Y-127628397D01*
X77773000Y-127628397D01*
X77773000Y-127771603D01*
X77800938Y-127912058D01*
X77855741Y-128044364D01*
X77935302Y-128163436D01*
X78036564Y-128264698D01*
X78155636Y-128344259D01*
X78287942Y-128399062D01*
X78428397Y-128427000D01*
X78571603Y-128427000D01*
X78712058Y-128399062D01*
X78844364Y-128344259D01*
X78963436Y-128264698D01*
X79064698Y-128163436D01*
X79144259Y-128044364D01*
X79199062Y-127912058D01*
X79227000Y-127771603D01*
X79227000Y-127628397D01*
X79199062Y-127487942D01*
X79144259Y-127355636D01*
X79064698Y-127236564D01*
X78963436Y-127135302D01*
X78844364Y-127055741D01*
X78712058Y-127000938D01*
X78571603Y-126973000D01*
X78428397Y-126973000D01*
X78287942Y-127000938D01*
X78155636Y-127055741D01*
X78036564Y-127135302D01*
X77935302Y-127236564D01*
X77855741Y-127355636D01*
X77800938Y-127487942D01*
X77773000Y-127628397D01*
X77275872Y-127628397D01*
X77324062Y-127512058D01*
X77352000Y-127371603D01*
X77352000Y-127228397D01*
X77324062Y-127087942D01*
X77311591Y-127057834D01*
X77344364Y-127044259D01*
X77463436Y-126964698D01*
X77564698Y-126863436D01*
X77644259Y-126744364D01*
X77699062Y-126612058D01*
X77727000Y-126471603D01*
X77727000Y-126328397D01*
X77699062Y-126187942D01*
X77644259Y-126055636D01*
X77564698Y-125936564D01*
X77556531Y-125928397D01*
X85498000Y-125928397D01*
X85498000Y-126071603D01*
X85525938Y-126212058D01*
X85580741Y-126344364D01*
X85660302Y-126463436D01*
X85761564Y-126564698D01*
X85880636Y-126644259D01*
X86012942Y-126699062D01*
X86153397Y-126727000D01*
X86296603Y-126727000D01*
X86437058Y-126699062D01*
X86569364Y-126644259D01*
X86625000Y-126607084D01*
X86680636Y-126644259D01*
X86812942Y-126699062D01*
X86953397Y-126727000D01*
X87096603Y-126727000D01*
X87237058Y-126699062D01*
X87369364Y-126644259D01*
X87425000Y-126607084D01*
X87480636Y-126644259D01*
X87612942Y-126699062D01*
X87753397Y-126727000D01*
X87896603Y-126727000D01*
X88037058Y-126699062D01*
X88169364Y-126644259D01*
X88288436Y-126564698D01*
X88389698Y-126463436D01*
X88469259Y-126344364D01*
X88524062Y-126212058D01*
X88552000Y-126071603D01*
X88552000Y-125928397D01*
X88524062Y-125787942D01*
X88469259Y-125655636D01*
X88389698Y-125536564D01*
X88288436Y-125435302D01*
X88169364Y-125355741D01*
X88037058Y-125300938D01*
X87896603Y-125273000D01*
X87753397Y-125273000D01*
X87612942Y-125300938D01*
X87480636Y-125355741D01*
X87425000Y-125392916D01*
X87369364Y-125355741D01*
X87237058Y-125300938D01*
X87096603Y-125273000D01*
X86953397Y-125273000D01*
X86812942Y-125300938D01*
X86680636Y-125355741D01*
X86625000Y-125392916D01*
X86569364Y-125355741D01*
X86437058Y-125300938D01*
X86296603Y-125273000D01*
X86153397Y-125273000D01*
X86012942Y-125300938D01*
X85880636Y-125355741D01*
X85761564Y-125435302D01*
X85660302Y-125536564D01*
X85580741Y-125655636D01*
X85525938Y-125787942D01*
X85498000Y-125928397D01*
X77556531Y-125928397D01*
X77463436Y-125835302D01*
X77344364Y-125755741D01*
X77213397Y-125701493D01*
X77254058Y-125674324D01*
X77355320Y-125573062D01*
X77434881Y-125453990D01*
X77489684Y-125321684D01*
X77517622Y-125181229D01*
X77517622Y-125038023D01*
X77489684Y-124897568D01*
X77434881Y-124765262D01*
X77410239Y-124728381D01*
X78873000Y-124728381D01*
X78873000Y-124871587D01*
X78900938Y-125012042D01*
X78955741Y-125144348D01*
X79035302Y-125263420D01*
X79136564Y-125364682D01*
X79255636Y-125444243D01*
X79387942Y-125499046D01*
X79528397Y-125526984D01*
X79671603Y-125526984D01*
X79812058Y-125499046D01*
X79944364Y-125444243D01*
X80063436Y-125364682D01*
X80082492Y-125345626D01*
X80151564Y-125414698D01*
X80270636Y-125494259D01*
X80402942Y-125549062D01*
X80543397Y-125577000D01*
X80686603Y-125577000D01*
X80827058Y-125549062D01*
X80959364Y-125494259D01*
X81078436Y-125414698D01*
X81179698Y-125313436D01*
X81259259Y-125194364D01*
X81314062Y-125062058D01*
X81334681Y-124958397D01*
X82588000Y-124958397D01*
X82588000Y-125101603D01*
X82615938Y-125242058D01*
X82670741Y-125374364D01*
X82750302Y-125493436D01*
X82851564Y-125594698D01*
X82970636Y-125674259D01*
X83102942Y-125729062D01*
X83243397Y-125757000D01*
X83386603Y-125757000D01*
X83527058Y-125729062D01*
X83659364Y-125674259D01*
X83778436Y-125594698D01*
X83879698Y-125493436D01*
X83959259Y-125374364D01*
X84014062Y-125242058D01*
X84042000Y-125101603D01*
X84042000Y-124958397D01*
X84014062Y-124817942D01*
X83959259Y-124685636D01*
X83879698Y-124566564D01*
X83778436Y-124465302D01*
X83659364Y-124385741D01*
X83527058Y-124330938D01*
X83386603Y-124303000D01*
X83243397Y-124303000D01*
X83102942Y-124330938D01*
X82970636Y-124385741D01*
X82851564Y-124465302D01*
X82750302Y-124566564D01*
X82670741Y-124685636D01*
X82615938Y-124817942D01*
X82588000Y-124958397D01*
X81334681Y-124958397D01*
X81342000Y-124921603D01*
X81342000Y-124778397D01*
X81314062Y-124637942D01*
X81259259Y-124505636D01*
X81179698Y-124386564D01*
X81078436Y-124285302D01*
X80959364Y-124205741D01*
X80827058Y-124150938D01*
X80686603Y-124123000D01*
X80543397Y-124123000D01*
X80402942Y-124150938D01*
X80270636Y-124205741D01*
X80151564Y-124285302D01*
X80132508Y-124304358D01*
X80063436Y-124235286D01*
X79944364Y-124155725D01*
X79812058Y-124100922D01*
X79671603Y-124072984D01*
X79528397Y-124072984D01*
X79387942Y-124100922D01*
X79255636Y-124155725D01*
X79136564Y-124235286D01*
X79035302Y-124336548D01*
X78955741Y-124455620D01*
X78900938Y-124587926D01*
X78873000Y-124728381D01*
X77410239Y-124728381D01*
X77355320Y-124646190D01*
X77254058Y-124544928D01*
X77134986Y-124465367D01*
X77002680Y-124410564D01*
X76862225Y-124382626D01*
X76719019Y-124382626D01*
X76578564Y-124410564D01*
X76446258Y-124465367D01*
X76327186Y-124544928D01*
X76225924Y-124646190D01*
X76146363Y-124765262D01*
X76091560Y-124897568D01*
X76063622Y-125038023D01*
X76063622Y-125181229D01*
X76091560Y-125321684D01*
X76146363Y-125453990D01*
X76225924Y-125573062D01*
X76327186Y-125674324D01*
X76446258Y-125753885D01*
X76577225Y-125808133D01*
X76536564Y-125835302D01*
X76435302Y-125936564D01*
X76355741Y-126055636D01*
X76300938Y-126187942D01*
X76273000Y-126328397D01*
X76273000Y-126471603D01*
X76300938Y-126612058D01*
X76313409Y-126642166D01*
X76280636Y-126655741D01*
X76161564Y-126735302D01*
X76060302Y-126836564D01*
X75980741Y-126955636D01*
X75925938Y-127087942D01*
X75898000Y-127228397D01*
X65451946Y-127228397D01*
X65452019Y-125928397D01*
X66198000Y-125928397D01*
X66198000Y-126071603D01*
X66225938Y-126212058D01*
X66280741Y-126344364D01*
X66360302Y-126463436D01*
X66461564Y-126564698D01*
X66580636Y-126644259D01*
X66712942Y-126699062D01*
X66853397Y-126727000D01*
X66996603Y-126727000D01*
X67137058Y-126699062D01*
X67269364Y-126644259D01*
X67325000Y-126607084D01*
X67380636Y-126644259D01*
X67512942Y-126699062D01*
X67653397Y-126727000D01*
X67796603Y-126727000D01*
X67937058Y-126699062D01*
X68069364Y-126644259D01*
X68125000Y-126607084D01*
X68180636Y-126644259D01*
X68312942Y-126699062D01*
X68453397Y-126727000D01*
X68596603Y-126727000D01*
X68737058Y-126699062D01*
X68869364Y-126644259D01*
X68988436Y-126564698D01*
X69089698Y-126463436D01*
X69169259Y-126344364D01*
X69224062Y-126212058D01*
X69252000Y-126071603D01*
X69252000Y-125928397D01*
X69224062Y-125787942D01*
X69169259Y-125655636D01*
X69124331Y-125588396D01*
X72778000Y-125588396D01*
X72778000Y-125731602D01*
X72805938Y-125872057D01*
X72860741Y-126004363D01*
X72940302Y-126123435D01*
X73041564Y-126224697D01*
X73160636Y-126304258D01*
X73248002Y-126340446D01*
X73248002Y-126446603D01*
X73275940Y-126587058D01*
X73330743Y-126719364D01*
X73410304Y-126838436D01*
X73511566Y-126939698D01*
X73630638Y-127019259D01*
X73762944Y-127074062D01*
X73903399Y-127102000D01*
X74046605Y-127102000D01*
X74187060Y-127074062D01*
X74319366Y-127019259D01*
X74438438Y-126939698D01*
X74539700Y-126838436D01*
X74619261Y-126719364D01*
X74674064Y-126587058D01*
X74702002Y-126446603D01*
X74702002Y-126303397D01*
X74674064Y-126162942D01*
X74619261Y-126030636D01*
X74539700Y-125911564D01*
X74438438Y-125810302D01*
X74319366Y-125730741D01*
X74232000Y-125694553D01*
X74232000Y-125588396D01*
X74204062Y-125447941D01*
X74149259Y-125315635D01*
X74069698Y-125196563D01*
X73968436Y-125095301D01*
X73849364Y-125015740D01*
X73717058Y-124960937D01*
X73576603Y-124932999D01*
X73433397Y-124932999D01*
X73292942Y-124960937D01*
X73160636Y-125015740D01*
X73041564Y-125095301D01*
X72940302Y-125196563D01*
X72860741Y-125315635D01*
X72805938Y-125447941D01*
X72778000Y-125588396D01*
X69124331Y-125588396D01*
X69089698Y-125536564D01*
X68988436Y-125435302D01*
X68869364Y-125355741D01*
X68737058Y-125300938D01*
X68596603Y-125273000D01*
X68453397Y-125273000D01*
X68312942Y-125300938D01*
X68180636Y-125355741D01*
X68125000Y-125392916D01*
X68069364Y-125355741D01*
X67937058Y-125300938D01*
X67796603Y-125273000D01*
X67653397Y-125273000D01*
X67512942Y-125300938D01*
X67380636Y-125355741D01*
X67325000Y-125392916D01*
X67269364Y-125355741D01*
X67137058Y-125300938D01*
X66996603Y-125273000D01*
X66853397Y-125273000D01*
X66712942Y-125300938D01*
X66580636Y-125355741D01*
X66461564Y-125435302D01*
X66360302Y-125536564D01*
X66280741Y-125655636D01*
X66225938Y-125787942D01*
X66198000Y-125928397D01*
X65452019Y-125928397D01*
X65452191Y-122828397D01*
X70498000Y-122828397D01*
X70498000Y-122971603D01*
X70525938Y-123112058D01*
X70580741Y-123244364D01*
X70660302Y-123363436D01*
X70761564Y-123464698D01*
X70880636Y-123544259D01*
X71012942Y-123599062D01*
X71153397Y-123627000D01*
X71296603Y-123627000D01*
X71437058Y-123599062D01*
X71569364Y-123544259D01*
X71688436Y-123464698D01*
X71714737Y-123438397D01*
X72828000Y-123438397D01*
X72828000Y-123581603D01*
X72855938Y-123722058D01*
X72910741Y-123854364D01*
X72990302Y-123973436D01*
X73091564Y-124074698D01*
X73210636Y-124154259D01*
X73342942Y-124209062D01*
X73483397Y-124237000D01*
X73626603Y-124237000D01*
X73767058Y-124209062D01*
X73899364Y-124154259D01*
X74018436Y-124074698D01*
X74119698Y-123973436D01*
X74199259Y-123854364D01*
X74254062Y-123722058D01*
X74282000Y-123581603D01*
X74282000Y-123438397D01*
X74254062Y-123297942D01*
X74199259Y-123165636D01*
X74119698Y-123046564D01*
X74018436Y-122945302D01*
X73899364Y-122865741D01*
X73767058Y-122810938D01*
X73626603Y-122783000D01*
X73483397Y-122783000D01*
X73342942Y-122810938D01*
X73210636Y-122865741D01*
X73091564Y-122945302D01*
X72990302Y-123046564D01*
X72910741Y-123165636D01*
X72855938Y-123297942D01*
X72828000Y-123438397D01*
X71714737Y-123438397D01*
X71789698Y-123363436D01*
X71869259Y-123244364D01*
X71924062Y-123112058D01*
X71952000Y-122971603D01*
X71952000Y-122828397D01*
X71924062Y-122687942D01*
X71869259Y-122555636D01*
X71789698Y-122436564D01*
X71688436Y-122335302D01*
X71569364Y-122255741D01*
X71437058Y-122200938D01*
X71296603Y-122173000D01*
X71153397Y-122173000D01*
X71012942Y-122200938D01*
X70880636Y-122255741D01*
X70761564Y-122335302D01*
X70660302Y-122436564D01*
X70580741Y-122555636D01*
X70525938Y-122687942D01*
X70498000Y-122828397D01*
X65452191Y-122828397D01*
X65452259Y-121603397D01*
X74072988Y-121603397D01*
X74072988Y-121746603D01*
X74100926Y-121887058D01*
X74155729Y-122019364D01*
X74235290Y-122138436D01*
X74336552Y-122239698D01*
X74455624Y-122319259D01*
X74587930Y-122374062D01*
X74728385Y-122402000D01*
X74871591Y-122402000D01*
X75012046Y-122374062D01*
X75144352Y-122319259D01*
X75263424Y-122239698D01*
X75364686Y-122138436D01*
X75444247Y-122019364D01*
X75499050Y-121887058D01*
X75510718Y-121828397D01*
X79473000Y-121828397D01*
X79473000Y-121971603D01*
X79500938Y-122112058D01*
X79555741Y-122244364D01*
X79635302Y-122363436D01*
X79736564Y-122464698D01*
X79855636Y-122544259D01*
X79987942Y-122599062D01*
X80128397Y-122627000D01*
X80271603Y-122627000D01*
X80412058Y-122599062D01*
X80544364Y-122544259D01*
X80663436Y-122464698D01*
X80764698Y-122363436D01*
X80844259Y-122244364D01*
X80899062Y-122112058D01*
X80927000Y-121971603D01*
X80927000Y-121828397D01*
X80899062Y-121687942D01*
X80844259Y-121555636D01*
X80764698Y-121436564D01*
X80663436Y-121335302D01*
X80544364Y-121255741D01*
X80412058Y-121200938D01*
X80271603Y-121173000D01*
X80128397Y-121173000D01*
X79987942Y-121200938D01*
X79855636Y-121255741D01*
X79736564Y-121335302D01*
X79635302Y-121436564D01*
X79555741Y-121555636D01*
X79500938Y-121687942D01*
X79473000Y-121828397D01*
X75510718Y-121828397D01*
X75526988Y-121746603D01*
X75526988Y-121603397D01*
X75499050Y-121462942D01*
X75444247Y-121330636D01*
X75364686Y-121211564D01*
X75263424Y-121110302D01*
X75144352Y-121030741D01*
X75012046Y-120975938D01*
X74871591Y-120948000D01*
X74728385Y-120948000D01*
X74587930Y-120975938D01*
X74455624Y-121030741D01*
X74336552Y-121110302D01*
X74235290Y-121211564D01*
X74155729Y-121330636D01*
X74100926Y-121462942D01*
X74072988Y-121603397D01*
X65452259Y-121603397D01*
X65452364Y-119722204D01*
X66048000Y-119722204D01*
X66050254Y-119745089D01*
X66050254Y-119758069D01*
X66050914Y-119764346D01*
X66072669Y-119958296D01*
X66081182Y-119998344D01*
X66089144Y-120038556D01*
X66091010Y-120044585D01*
X66150023Y-120230615D01*
X66166181Y-120268314D01*
X66181773Y-120306143D01*
X66184771Y-120311687D01*
X66184775Y-120311697D01*
X66184781Y-120311705D01*
X66278797Y-120482720D01*
X66301936Y-120516514D01*
X66324612Y-120550644D01*
X66328632Y-120555503D01*
X66328635Y-120555508D01*
X66328639Y-120555512D01*
X66454084Y-120705012D01*
X66483370Y-120733692D01*
X66512222Y-120762746D01*
X66517101Y-120766724D01*
X66517111Y-120766734D01*
X66517122Y-120766741D01*
X66669213Y-120889025D01*
X66703492Y-120911457D01*
X66737453Y-120934364D01*
X66743020Y-120937324D01*
X66743028Y-120937329D01*
X66743036Y-120937332D01*
X66915981Y-121027747D01*
X66953982Y-121043101D01*
X66991734Y-121058970D01*
X66997764Y-121060790D01*
X66997773Y-121060794D01*
X66997782Y-121060796D01*
X67185002Y-121115897D01*
X67225206Y-121123566D01*
X67265370Y-121131811D01*
X67271652Y-121132427D01*
X67466013Y-121150116D01*
X67506981Y-121149830D01*
X67547948Y-121150116D01*
X67554229Y-121149500D01*
X67748326Y-121129099D01*
X67788470Y-121120859D01*
X67828696Y-121113185D01*
X67834736Y-121111362D01*
X67834742Y-121111360D01*
X68021176Y-121053649D01*
X68058982Y-121037757D01*
X68096925Y-121022427D01*
X68102493Y-121019467D01*
X68102498Y-121019465D01*
X68102502Y-121019462D01*
X68274174Y-120926640D01*
X68308138Y-120903732D01*
X68342419Y-120881298D01*
X68347300Y-120877317D01*
X68347308Y-120877311D01*
X68347315Y-120877304D01*
X68497687Y-120752906D01*
X68526554Y-120723836D01*
X68555823Y-120695174D01*
X68559846Y-120690311D01*
X68683196Y-120539069D01*
X68705862Y-120504954D01*
X68729012Y-120471144D01*
X68732014Y-120465593D01*
X68759939Y-120413073D01*
X68786564Y-120439698D01*
X68905636Y-120519259D01*
X69037942Y-120574062D01*
X69178397Y-120602000D01*
X69321603Y-120602000D01*
X69462058Y-120574062D01*
X69594364Y-120519259D01*
X69655518Y-120478397D01*
X70198000Y-120478397D01*
X70198000Y-120621603D01*
X70225938Y-120762058D01*
X70280741Y-120894364D01*
X70360302Y-121013436D01*
X70461564Y-121114698D01*
X70580636Y-121194259D01*
X70712942Y-121249062D01*
X70853397Y-121277000D01*
X70996603Y-121277000D01*
X71137058Y-121249062D01*
X71269364Y-121194259D01*
X71388436Y-121114698D01*
X71489698Y-121013436D01*
X71569259Y-120894364D01*
X71624062Y-120762058D01*
X71652000Y-120621603D01*
X71652000Y-120575922D01*
X71787051Y-120549059D01*
X71919357Y-120494256D01*
X72038429Y-120414695D01*
X72139691Y-120313433D01*
X72219252Y-120194361D01*
X72272851Y-120064961D01*
X72305741Y-120144364D01*
X72385302Y-120263436D01*
X72486564Y-120364698D01*
X72605636Y-120444259D01*
X72737942Y-120499062D01*
X72878397Y-120527000D01*
X73008223Y-120527000D01*
X72998000Y-120578397D01*
X72998000Y-120721603D01*
X73025938Y-120862058D01*
X73080741Y-120994364D01*
X73160302Y-121113436D01*
X73261564Y-121214698D01*
X73380636Y-121294259D01*
X73512942Y-121349062D01*
X73653397Y-121377000D01*
X73796603Y-121377000D01*
X73937058Y-121349062D01*
X74069364Y-121294259D01*
X74188436Y-121214698D01*
X74289698Y-121113436D01*
X74369259Y-120994364D01*
X74424062Y-120862058D01*
X74452000Y-120721603D01*
X74452000Y-120578397D01*
X74424062Y-120437942D01*
X74369259Y-120305636D01*
X74289698Y-120186564D01*
X74188436Y-120085302D01*
X74069364Y-120005741D01*
X73937058Y-119950938D01*
X73796603Y-119923000D01*
X73666777Y-119923000D01*
X73677000Y-119871603D01*
X73677000Y-119728397D01*
X73649062Y-119587942D01*
X73594259Y-119455636D01*
X73514698Y-119336564D01*
X73465634Y-119287500D01*
X73539698Y-119213436D01*
X73619259Y-119094364D01*
X73674062Y-118962058D01*
X73702000Y-118821603D01*
X73702000Y-118678397D01*
X73674062Y-118537942D01*
X73619259Y-118405636D01*
X73539698Y-118286564D01*
X73440632Y-118187498D01*
X73461209Y-118166921D01*
X75824100Y-118166921D01*
X75824100Y-118300279D01*
X75850116Y-118431074D01*
X75901150Y-118554280D01*
X75975240Y-118665163D01*
X76043677Y-118733600D01*
X75975240Y-118802037D01*
X75901150Y-118912920D01*
X75850116Y-119036126D01*
X75824100Y-119166921D01*
X75824100Y-119300279D01*
X75850116Y-119431074D01*
X75901150Y-119554280D01*
X75975240Y-119665163D01*
X76043677Y-119733600D01*
X75975240Y-119802037D01*
X75901150Y-119912920D01*
X75850116Y-120036126D01*
X75824100Y-120166921D01*
X75824100Y-120300279D01*
X75850116Y-120431074D01*
X75901150Y-120554280D01*
X75975240Y-120665163D01*
X76069537Y-120759460D01*
X76180420Y-120833550D01*
X76303626Y-120884584D01*
X76434421Y-120910600D01*
X76567779Y-120910600D01*
X76698574Y-120884584D01*
X76821780Y-120833550D01*
X76932663Y-120759460D01*
X77001100Y-120691023D01*
X77069537Y-120759460D01*
X77180420Y-120833550D01*
X77303626Y-120884584D01*
X77434421Y-120910600D01*
X77567779Y-120910600D01*
X77698574Y-120884584D01*
X77821780Y-120833550D01*
X77932663Y-120759460D01*
X78001100Y-120691023D01*
X78069537Y-120759460D01*
X78180420Y-120833550D01*
X78303626Y-120884584D01*
X78434421Y-120910600D01*
X78567779Y-120910600D01*
X78698574Y-120884584D01*
X78821780Y-120833550D01*
X78932663Y-120759460D01*
X79026960Y-120665163D01*
X79101050Y-120554280D01*
X79132482Y-120478397D01*
X80223000Y-120478397D01*
X80223000Y-120621603D01*
X80250938Y-120762058D01*
X80305741Y-120894364D01*
X80385302Y-121013436D01*
X80486564Y-121114698D01*
X80605636Y-121194259D01*
X80737942Y-121249062D01*
X80878397Y-121277000D01*
X81021603Y-121277000D01*
X81162058Y-121249062D01*
X81294364Y-121194259D01*
X81413436Y-121114698D01*
X81514698Y-121013436D01*
X81594259Y-120894364D01*
X81649062Y-120762058D01*
X81677000Y-120621603D01*
X81677000Y-120478397D01*
X81649062Y-120337942D01*
X81594259Y-120205636D01*
X81514698Y-120086564D01*
X81413436Y-119985302D01*
X81294364Y-119905741D01*
X81162058Y-119850938D01*
X81021603Y-119823000D01*
X80878397Y-119823000D01*
X80737942Y-119850938D01*
X80605636Y-119905741D01*
X80486564Y-119985302D01*
X80385302Y-120086564D01*
X80305741Y-120205636D01*
X80250938Y-120337942D01*
X80223000Y-120478397D01*
X79132482Y-120478397D01*
X79152084Y-120431074D01*
X79178100Y-120300279D01*
X79178100Y-120166921D01*
X79152084Y-120036126D01*
X79101050Y-119912920D01*
X79026960Y-119802037D01*
X78958523Y-119733600D01*
X79026960Y-119665163D01*
X79101050Y-119554280D01*
X79152084Y-119431074D01*
X79178100Y-119300279D01*
X79178100Y-119166921D01*
X79152084Y-119036126D01*
X79101050Y-118912920D01*
X79026960Y-118802037D01*
X78958523Y-118733600D01*
X79026960Y-118665163D01*
X79101050Y-118554280D01*
X79152084Y-118431074D01*
X79178100Y-118300279D01*
X79178100Y-118166921D01*
X79152084Y-118036126D01*
X79101050Y-117912920D01*
X79026960Y-117802037D01*
X78932663Y-117707740D01*
X78821780Y-117633650D01*
X78698574Y-117582616D01*
X78567779Y-117556600D01*
X78434421Y-117556600D01*
X78303626Y-117582616D01*
X78180420Y-117633650D01*
X78069537Y-117707740D01*
X78001100Y-117776177D01*
X77932663Y-117707740D01*
X77821780Y-117633650D01*
X77698574Y-117582616D01*
X77567779Y-117556600D01*
X77434421Y-117556600D01*
X77303626Y-117582616D01*
X77180420Y-117633650D01*
X77069537Y-117707740D01*
X77001100Y-117776177D01*
X76932663Y-117707740D01*
X76821780Y-117633650D01*
X76698574Y-117582616D01*
X76567779Y-117556600D01*
X76434421Y-117556600D01*
X76303626Y-117582616D01*
X76180420Y-117633650D01*
X76069537Y-117707740D01*
X75975240Y-117802037D01*
X75901150Y-117912920D01*
X75850116Y-118036126D01*
X75824100Y-118166921D01*
X73461209Y-118166921D01*
X73489693Y-118138437D01*
X73569254Y-118019365D01*
X73624057Y-117887059D01*
X73651995Y-117746604D01*
X73651995Y-117603398D01*
X73651717Y-117601998D01*
X73671635Y-117601998D01*
X73812090Y-117574060D01*
X73944396Y-117519257D01*
X74063468Y-117439696D01*
X74074767Y-117428397D01*
X80523014Y-117428397D01*
X80523014Y-117571603D01*
X80550952Y-117712058D01*
X80605755Y-117844364D01*
X80685316Y-117963436D01*
X80786578Y-118064698D01*
X80905650Y-118144259D01*
X81037956Y-118199062D01*
X81178411Y-118227000D01*
X81321617Y-118227000D01*
X81462072Y-118199062D01*
X81594378Y-118144259D01*
X81713450Y-118064698D01*
X81814712Y-117963436D01*
X81894273Y-117844364D01*
X81949076Y-117712058D01*
X81977014Y-117571603D01*
X81977014Y-117487363D01*
X81977186Y-117487363D01*
X82117641Y-117459425D01*
X82249947Y-117404622D01*
X82317926Y-117359200D01*
X82366668Y-117476873D01*
X82467603Y-117627932D01*
X82596068Y-117756397D01*
X82747127Y-117857332D01*
X82914975Y-117926857D01*
X83093161Y-117962300D01*
X83274839Y-117962300D01*
X83453025Y-117926857D01*
X83620873Y-117857332D01*
X83771932Y-117756397D01*
X83900397Y-117627932D01*
X84001332Y-117476873D01*
X84070857Y-117309025D01*
X84106300Y-117130839D01*
X84106300Y-116949161D01*
X84293700Y-116949161D01*
X84293700Y-117130839D01*
X84329143Y-117309025D01*
X84398668Y-117476873D01*
X84499603Y-117627932D01*
X84628068Y-117756397D01*
X84779127Y-117857332D01*
X84946975Y-117926857D01*
X85125161Y-117962300D01*
X85306839Y-117962300D01*
X85485025Y-117926857D01*
X85652873Y-117857332D01*
X85803932Y-117756397D01*
X85932397Y-117627932D01*
X86033332Y-117476873D01*
X86048000Y-117441461D01*
X86048000Y-119722204D01*
X86050254Y-119745089D01*
X86050254Y-119758069D01*
X86050914Y-119764346D01*
X86072669Y-119958296D01*
X86081182Y-119998344D01*
X86089144Y-120038556D01*
X86091010Y-120044585D01*
X86150023Y-120230615D01*
X86166181Y-120268314D01*
X86181773Y-120306143D01*
X86184771Y-120311687D01*
X86184775Y-120311697D01*
X86184781Y-120311705D01*
X86278797Y-120482720D01*
X86301936Y-120516514D01*
X86324612Y-120550644D01*
X86328632Y-120555503D01*
X86328635Y-120555508D01*
X86328639Y-120555512D01*
X86454084Y-120705012D01*
X86483370Y-120733692D01*
X86512222Y-120762746D01*
X86517101Y-120766724D01*
X86517111Y-120766734D01*
X86517122Y-120766741D01*
X86669213Y-120889025D01*
X86703492Y-120911457D01*
X86737453Y-120934364D01*
X86743020Y-120937324D01*
X86743028Y-120937329D01*
X86743036Y-120937332D01*
X86915981Y-121027747D01*
X86953982Y-121043101D01*
X86991734Y-121058970D01*
X86997764Y-121060790D01*
X86997773Y-121060794D01*
X86997782Y-121060796D01*
X87185002Y-121115897D01*
X87225206Y-121123566D01*
X87265370Y-121131811D01*
X87271652Y-121132427D01*
X87466013Y-121150116D01*
X87506981Y-121149830D01*
X87547948Y-121150116D01*
X87554229Y-121149500D01*
X87748326Y-121129099D01*
X87788470Y-121120859D01*
X87828696Y-121113185D01*
X87834736Y-121111362D01*
X87834742Y-121111360D01*
X88021176Y-121053649D01*
X88058982Y-121037757D01*
X88096925Y-121022427D01*
X88102493Y-121019467D01*
X88102498Y-121019465D01*
X88102502Y-121019462D01*
X88274174Y-120926640D01*
X88308138Y-120903732D01*
X88342419Y-120881298D01*
X88347300Y-120877317D01*
X88347308Y-120877311D01*
X88347315Y-120877304D01*
X88497687Y-120752906D01*
X88526554Y-120723836D01*
X88555823Y-120695174D01*
X88559846Y-120690311D01*
X88683196Y-120539069D01*
X88705862Y-120504954D01*
X88729012Y-120471144D01*
X88732014Y-120465593D01*
X88823639Y-120293270D01*
X88839260Y-120255370D01*
X88855388Y-120217741D01*
X88857251Y-120211722D01*
X88857255Y-120211712D01*
X88857257Y-120211702D01*
X88913664Y-120024876D01*
X88921626Y-119984663D01*
X88930138Y-119944618D01*
X88930798Y-119938342D01*
X88949843Y-119744108D01*
X88949843Y-119744105D01*
X88952000Y-119722205D01*
X88952000Y-107677795D01*
X88949746Y-107654910D01*
X88949746Y-107641930D01*
X88949086Y-107635654D01*
X88927331Y-107441704D01*
X88918818Y-107401656D01*
X88910856Y-107361444D01*
X88908990Y-107355415D01*
X88849977Y-107169385D01*
X88833836Y-107131726D01*
X88818227Y-107093857D01*
X88815226Y-107088305D01*
X88721203Y-106917280D01*
X88698082Y-106883513D01*
X88675389Y-106849356D01*
X88671366Y-106844494D01*
X88671365Y-106844492D01*
X88671361Y-106844488D01*
X88545916Y-106694988D01*
X88516630Y-106666308D01*
X88487778Y-106637254D01*
X88482893Y-106633270D01*
X88482889Y-106633266D01*
X88482885Y-106633263D01*
X88330787Y-106510975D01*
X88296517Y-106488549D01*
X88262546Y-106465635D01*
X88256980Y-106462676D01*
X88256972Y-106462671D01*
X88256964Y-106462668D01*
X88084018Y-106372253D01*
X88046017Y-106356899D01*
X88008265Y-106341030D01*
X88002236Y-106339210D01*
X88002227Y-106339206D01*
X88002218Y-106339204D01*
X87814998Y-106284103D01*
X87774786Y-106276432D01*
X87734629Y-106268189D01*
X87728348Y-106267573D01*
X87533986Y-106249884D01*
X87493019Y-106250170D01*
X87452052Y-106249884D01*
X87445771Y-106250500D01*
X87251674Y-106270901D01*
X87211530Y-106279141D01*
X87171304Y-106286815D01*
X87165264Y-106288638D01*
X87165258Y-106288640D01*
X86978824Y-106346351D01*
X86941018Y-106362243D01*
X86903075Y-106377573D01*
X86897511Y-106380531D01*
X86897502Y-106380535D01*
X86897495Y-106380540D01*
X86725826Y-106473360D01*
X86691862Y-106496268D01*
X86657581Y-106518702D01*
X86652690Y-106522691D01*
X86502313Y-106647095D01*
X86473448Y-106676161D01*
X86444177Y-106704826D01*
X86440159Y-106709683D01*
X86440153Y-106709689D01*
X86440149Y-106709696D01*
X86316804Y-106860931D01*
X86294150Y-106895028D01*
X86270988Y-106928855D01*
X86267991Y-106934399D01*
X86267986Y-106934407D01*
X86267983Y-106934415D01*
X86176361Y-107106729D01*
X86160739Y-107144631D01*
X86144612Y-107182259D01*
X86142749Y-107188278D01*
X86142745Y-107188288D01*
X86142743Y-107188298D01*
X86086337Y-107375124D01*
X86078380Y-107415307D01*
X86069862Y-107455382D01*
X86069202Y-107461659D01*
X86050157Y-107655892D01*
X86050157Y-107655905D01*
X86048001Y-107677795D01*
X86048000Y-113805472D01*
X86037054Y-113800938D01*
X85896599Y-113773000D01*
X85753393Y-113773000D01*
X85612938Y-113800938D01*
X85480632Y-113855741D01*
X85361560Y-113935302D01*
X85260298Y-114036564D01*
X85180737Y-114155636D01*
X85125934Y-114287942D01*
X85097996Y-114428397D01*
X85097996Y-114571603D01*
X85125934Y-114712058D01*
X85180737Y-114844364D01*
X85260298Y-114963436D01*
X85346864Y-115050002D01*
X85260302Y-115136564D01*
X85180741Y-115255636D01*
X85125938Y-115387942D01*
X85098000Y-115528397D01*
X85098000Y-115671603D01*
X85125938Y-115812058D01*
X85180741Y-115944364D01*
X85260302Y-116063436D01*
X85316485Y-116119619D01*
X85306839Y-116117700D01*
X85125161Y-116117700D01*
X84946975Y-116153143D01*
X84779127Y-116222668D01*
X84628068Y-116323603D01*
X84499603Y-116452068D01*
X84398668Y-116603127D01*
X84329143Y-116770975D01*
X84293700Y-116949161D01*
X84106300Y-116949161D01*
X84070857Y-116770975D01*
X84001332Y-116603127D01*
X83900397Y-116452068D01*
X83771932Y-116323603D01*
X83620873Y-116222668D01*
X83453025Y-116153143D01*
X83274839Y-116117700D01*
X83093161Y-116117700D01*
X82914975Y-116153143D01*
X82747127Y-116222668D01*
X82596068Y-116323603D01*
X82531349Y-116388322D01*
X82470281Y-116296927D01*
X82369019Y-116195665D01*
X82362094Y-116191038D01*
X82389696Y-116163436D01*
X82469257Y-116044364D01*
X82524060Y-115912058D01*
X82551998Y-115771603D01*
X82551998Y-115628397D01*
X82524060Y-115487942D01*
X82469257Y-115355636D01*
X82389696Y-115236564D01*
X82288434Y-115135302D01*
X82169362Y-115055741D01*
X82037056Y-115000938D01*
X81896601Y-114973000D01*
X81753395Y-114973000D01*
X81612940Y-115000938D01*
X81480634Y-115055741D01*
X81361562Y-115135302D01*
X81260300Y-115236564D01*
X81180739Y-115355636D01*
X81125936Y-115487942D01*
X81097998Y-115628397D01*
X81097998Y-115771603D01*
X81125936Y-115912058D01*
X81180739Y-116044364D01*
X81260300Y-116163436D01*
X81361562Y-116264698D01*
X81368487Y-116269325D01*
X81340885Y-116296927D01*
X81261324Y-116415999D01*
X81206521Y-116548305D01*
X81178583Y-116688760D01*
X81178583Y-116773000D01*
X81178411Y-116773000D01*
X81037956Y-116800938D01*
X80905650Y-116855741D01*
X80786578Y-116935302D01*
X80685316Y-117036564D01*
X80605755Y-117155636D01*
X80550952Y-117287942D01*
X80523014Y-117428397D01*
X74074767Y-117428397D01*
X74164730Y-117338434D01*
X74244291Y-117219362D01*
X74299094Y-117087056D01*
X74327032Y-116946601D01*
X74327032Y-116803395D01*
X74299094Y-116662940D01*
X74244291Y-116530634D01*
X74164730Y-116411562D01*
X74063468Y-116310300D01*
X73944396Y-116230739D01*
X73812090Y-116175936D01*
X73671635Y-116147998D01*
X73528429Y-116147998D01*
X73387974Y-116175936D01*
X73255668Y-116230739D01*
X73136596Y-116310300D01*
X73035334Y-116411562D01*
X72955773Y-116530634D01*
X72900970Y-116662940D01*
X72873032Y-116803395D01*
X72873032Y-116946601D01*
X72873310Y-116948001D01*
X72853392Y-116948001D01*
X72712937Y-116975939D01*
X72580631Y-117030742D01*
X72461559Y-117110303D01*
X72360297Y-117211565D01*
X72280736Y-117330637D01*
X72225933Y-117462943D01*
X72197995Y-117603398D01*
X72197995Y-117746604D01*
X72225933Y-117887059D01*
X72280736Y-118019365D01*
X72360297Y-118138437D01*
X72459363Y-118237503D01*
X72410302Y-118286564D01*
X72330741Y-118405636D01*
X72275938Y-118537942D01*
X72248000Y-118678397D01*
X72248000Y-118821603D01*
X72275938Y-118962058D01*
X72330741Y-119094364D01*
X72410302Y-119213436D01*
X72459366Y-119262500D01*
X72385302Y-119336564D01*
X72305741Y-119455636D01*
X72252142Y-119585036D01*
X72219252Y-119505633D01*
X72139691Y-119386561D01*
X72038429Y-119285299D01*
X71919357Y-119205738D01*
X71787051Y-119150935D01*
X71646596Y-119122997D01*
X71503390Y-119122997D01*
X71362935Y-119150935D01*
X71230629Y-119205738D01*
X71111557Y-119285299D01*
X71010295Y-119386561D01*
X70930734Y-119505633D01*
X70875931Y-119637939D01*
X70847993Y-119778394D01*
X70847993Y-119824075D01*
X70712942Y-119850938D01*
X70580636Y-119905741D01*
X70461564Y-119985302D01*
X70360302Y-120086564D01*
X70280741Y-120205636D01*
X70225938Y-120337942D01*
X70198000Y-120478397D01*
X69655518Y-120478397D01*
X69713436Y-120439698D01*
X69814698Y-120338436D01*
X69894259Y-120219364D01*
X69949062Y-120087058D01*
X69977000Y-119946603D01*
X69977000Y-119803397D01*
X69949062Y-119662942D01*
X69894259Y-119530636D01*
X69814698Y-119411564D01*
X69713436Y-119310302D01*
X69594364Y-119230741D01*
X69462058Y-119175938D01*
X69321603Y-119148000D01*
X69178397Y-119148000D01*
X69037942Y-119175938D01*
X68952000Y-119211536D01*
X68952000Y-115578397D01*
X69373000Y-115578397D01*
X69373000Y-115721603D01*
X69400938Y-115862058D01*
X69455741Y-115994364D01*
X69535302Y-116113436D01*
X69636564Y-116214698D01*
X69755636Y-116294259D01*
X69887942Y-116349062D01*
X70028397Y-116377000D01*
X70171603Y-116377000D01*
X70312058Y-116349062D01*
X70444364Y-116294259D01*
X70563436Y-116214698D01*
X70664698Y-116113436D01*
X70720890Y-116029338D01*
X70780636Y-116069259D01*
X70912942Y-116124062D01*
X71053397Y-116152000D01*
X71196603Y-116152000D01*
X71337058Y-116124062D01*
X71469364Y-116069259D01*
X71588436Y-115989698D01*
X71689698Y-115888436D01*
X71769259Y-115769364D01*
X71824062Y-115637058D01*
X71852000Y-115496603D01*
X71852000Y-115353397D01*
X71824062Y-115212942D01*
X71769259Y-115080636D01*
X71689698Y-114961564D01*
X71588436Y-114860302D01*
X71469364Y-114780741D01*
X71337058Y-114725938D01*
X71196603Y-114698000D01*
X71053397Y-114698000D01*
X70912942Y-114725938D01*
X70780636Y-114780741D01*
X70661564Y-114860302D01*
X70560302Y-114961564D01*
X70504110Y-115045662D01*
X70444364Y-115005741D01*
X70312058Y-114950938D01*
X70171603Y-114923000D01*
X70028397Y-114923000D01*
X69887942Y-114950938D01*
X69755636Y-115005741D01*
X69636564Y-115085302D01*
X69535302Y-115186564D01*
X69455741Y-115305636D01*
X69400938Y-115437942D01*
X69373000Y-115578397D01*
X68952000Y-115578397D01*
X68952000Y-114128397D01*
X73473010Y-114128397D01*
X73473010Y-114271603D01*
X73500948Y-114412058D01*
X73555751Y-114544364D01*
X73635312Y-114663436D01*
X73684488Y-114712612D01*
X73655741Y-114755636D01*
X73600938Y-114887942D01*
X73573000Y-115028397D01*
X73573000Y-115171603D01*
X73600938Y-115312058D01*
X73655741Y-115444364D01*
X73735302Y-115563436D01*
X73836564Y-115664698D01*
X73955636Y-115744259D01*
X74087942Y-115799062D01*
X74228397Y-115827000D01*
X74371603Y-115827000D01*
X74512058Y-115799062D01*
X74644364Y-115744259D01*
X74763436Y-115664698D01*
X74864698Y-115563436D01*
X74944259Y-115444364D01*
X74999062Y-115312058D01*
X75027000Y-115171603D01*
X75027000Y-115028397D01*
X74999062Y-114887942D01*
X74944259Y-114755636D01*
X74864698Y-114636564D01*
X74815522Y-114587388D01*
X74844269Y-114544364D01*
X74899072Y-114412058D01*
X74927010Y-114271603D01*
X74927010Y-114128397D01*
X74899072Y-113987942D01*
X74844269Y-113855636D01*
X74764708Y-113736564D01*
X74663446Y-113635302D01*
X74544374Y-113555741D01*
X74412068Y-113500938D01*
X74271613Y-113473000D01*
X74128407Y-113473000D01*
X73987952Y-113500938D01*
X73855646Y-113555741D01*
X73736574Y-113635302D01*
X73635312Y-113736564D01*
X73555751Y-113855636D01*
X73500948Y-113987942D01*
X73473010Y-114128397D01*
X68952000Y-114128397D01*
X68952000Y-107677795D01*
X68949746Y-107654910D01*
X68949746Y-107641930D01*
X68949086Y-107635654D01*
X68927331Y-107441704D01*
X68918818Y-107401656D01*
X68910856Y-107361444D01*
X68908990Y-107355415D01*
X68849977Y-107169385D01*
X68833836Y-107131726D01*
X68818227Y-107093857D01*
X68815226Y-107088305D01*
X68721203Y-106917280D01*
X68698082Y-106883513D01*
X68675389Y-106849356D01*
X68671366Y-106844494D01*
X68671365Y-106844492D01*
X68671361Y-106844488D01*
X68545916Y-106694988D01*
X68516630Y-106666308D01*
X68487778Y-106637254D01*
X68482893Y-106633270D01*
X68482889Y-106633266D01*
X68482885Y-106633263D01*
X68330787Y-106510975D01*
X68296517Y-106488549D01*
X68262546Y-106465635D01*
X68256980Y-106462676D01*
X68256972Y-106462671D01*
X68256964Y-106462668D01*
X68084018Y-106372253D01*
X68046017Y-106356899D01*
X68008265Y-106341030D01*
X68002236Y-106339210D01*
X68002227Y-106339206D01*
X68002218Y-106339204D01*
X67814998Y-106284103D01*
X67774786Y-106276432D01*
X67734629Y-106268189D01*
X67728348Y-106267573D01*
X67533986Y-106249884D01*
X67493019Y-106250170D01*
X67452052Y-106249884D01*
X67445771Y-106250500D01*
X67251674Y-106270901D01*
X67211530Y-106279141D01*
X67171304Y-106286815D01*
X67165264Y-106288638D01*
X67165258Y-106288640D01*
X66978824Y-106346351D01*
X66941018Y-106362243D01*
X66903075Y-106377573D01*
X66897511Y-106380531D01*
X66897502Y-106380535D01*
X66897495Y-106380540D01*
X66725826Y-106473360D01*
X66691862Y-106496268D01*
X66657581Y-106518702D01*
X66652690Y-106522691D01*
X66502313Y-106647095D01*
X66473448Y-106676161D01*
X66444177Y-106704826D01*
X66440159Y-106709683D01*
X66440153Y-106709689D01*
X66440149Y-106709696D01*
X66316804Y-106860931D01*
X66294150Y-106895028D01*
X66270988Y-106928855D01*
X66267991Y-106934399D01*
X66267986Y-106934407D01*
X66267983Y-106934415D01*
X66176361Y-107106729D01*
X66160739Y-107144631D01*
X66144612Y-107182259D01*
X66142749Y-107188278D01*
X66142745Y-107188288D01*
X66142743Y-107188298D01*
X66086337Y-107375124D01*
X66078380Y-107415307D01*
X66069862Y-107455382D01*
X66069202Y-107461659D01*
X66050157Y-107655892D01*
X66050157Y-107655905D01*
X66048001Y-107677795D01*
X66048000Y-119722204D01*
X65452364Y-119722204D01*
X65453099Y-106510898D01*
X65474085Y-106296861D01*
X65533080Y-106101463D01*
X65628903Y-105921247D01*
X65757908Y-105763070D01*
X65915178Y-105632966D01*
X66094725Y-105535885D01*
X66289706Y-105475528D01*
X66513568Y-105452000D01*
X70972394Y-105452000D01*
X71073000Y-105552606D01*
M02*
