G04 #@! TF.GenerationSoftware,KiCad,Pcbnew,(5.1.2)-1*
G04 #@! TF.CreationDate,2019-06-05T16:17:15+02:00*
G04 #@! TF.ProjectId,BodyTempUnit-e7,426f6479-5465-46d7-9055-6e69742d6537,rev?*
G04 #@! TF.SameCoordinates,Original*
G04 #@! TF.FileFunction,Profile,NP*
%FSLAX46Y46*%
G04 Gerber Fmt 4.6, Leading zero omitted, Abs format (unit mm)*
G04 Created by KiCad (PCBNEW (5.1.2)-1) date 2019-06-05 16:17:15*
%MOMM*%
%LPD*%
G04 APERTURE LIST*
%ADD10C,0.050000*%
G04 APERTURE END LIST*
D10*
X85516000Y-104000000D02*
G75*
G03X84516000Y-103000000I-1000000J0D01*
G01*
X86000008Y-104499744D02*
G75*
G02X85516000Y-104000000I15992J499744D01*
G01*
X84000000Y-108000000D02*
X84000000Y-111500000D01*
X83000000Y-108000000D02*
X84000000Y-108000000D01*
X83000000Y-108000000D02*
X83000000Y-110500000D01*
X71000000Y-108000000D02*
X71000000Y-111500000D01*
X72000000Y-108000000D02*
X71000000Y-108000000D01*
X72000000Y-110500000D02*
X72000000Y-108000000D01*
X84000000Y-111500000D02*
X71000000Y-111500000D01*
X66500000Y-106500000D02*
G75*
G03X65000000Y-108000000I0J-1500000D01*
G01*
X90000000Y-108000000D02*
G75*
G03X88500000Y-106500000I-1500000J0D01*
G01*
X90000000Y-108000000D02*
X90001100Y-133503600D01*
X88500000Y-106500000D02*
X83000000Y-106500000D01*
X71984000Y-106503600D02*
X66500000Y-106500000D01*
X71484000Y-104003600D02*
G75*
G02X70984000Y-104503600I-500000J0D01*
G01*
X65001100Y-108000000D02*
X65000000Y-133500000D01*
X73485100Y-105003600D02*
X81517100Y-105003600D01*
X72485100Y-103003600D02*
G75*
G03X71485100Y-104003600I0J-1000000D01*
G01*
X88500000Y-109000000D02*
X88500000Y-119500000D01*
X86500000Y-119500000D02*
X86500000Y-109000000D01*
X88500000Y-119500000D02*
G75*
G02X86500000Y-119500000I-1000000J0D01*
G01*
X86500000Y-109000000D02*
G75*
G02X88500000Y-109000000I1000000J0D01*
G01*
X68500000Y-109000000D02*
X68500000Y-119500000D01*
X66500000Y-109000000D02*
G75*
G02X68500000Y-109000000I1000000J0D01*
G01*
X68500000Y-119500000D02*
G75*
G02X66500000Y-119500000I-1000000J0D01*
G01*
X66500000Y-119500000D02*
X66500000Y-109000000D01*
X72000000Y-110503600D02*
X83000000Y-110500000D01*
X88501100Y-135003600D02*
G75*
G03X90001100Y-133503600I0J1500000D01*
G01*
X88501100Y-135003600D02*
X66501100Y-135003600D01*
X65001100Y-133503600D02*
G75*
G03X66501100Y-135003600I1500000J0D01*
G01*
M02*
