G04 #@! TF.GenerationSoftware,KiCad,Pcbnew,(5.1.2)-1*
G04 #@! TF.CreationDate,2019-06-05T16:17:15+02:00*
G04 #@! TF.ProjectId,BodyTempUnit-e7,426f6479-5465-46d7-9055-6e69742d6537,rev?*
G04 #@! TF.SameCoordinates,Original*
G04 #@! TF.FileFunction,Copper,L2,Inr*
G04 #@! TF.FilePolarity,Positive*
%FSLAX46Y46*%
G04 Gerber Fmt 4.6, Leading zero omitted, Abs format (unit mm)*
G04 Created by KiCad (PCBNEW (5.1.2)-1) date 2019-06-05 16:17:15*
%MOMM*%
%LPD*%
G04 APERTURE LIST*
%ADD10C,0.600000*%
%ADD11C,0.800000*%
%ADD12C,0.254000*%
G04 APERTURE END LIST*
D10*
X77481000Y-107569000D03*
X78028800Y-106807000D03*
X78028800Y-108331000D03*
X76962000Y-106807000D03*
D11*
X76708000Y-120650000D03*
X82169000Y-126492000D03*
X69596000Y-118364000D03*
X70473987Y-120904000D03*
X78486000Y-120650000D03*
X75501500Y-112204500D03*
D10*
X85344000Y-107696000D03*
D11*
X77724000Y-126873000D03*
X77216000Y-117983000D03*
X72390000Y-116586000D03*
X69596000Y-119380000D03*
X72812500Y-123510000D03*
X81788000Y-123444000D03*
X82550000Y-131064000D03*
X79502000Y-112125000D03*
D10*
X76962000Y-108331000D03*
X85344000Y-108712000D03*
X70567843Y-107802857D03*
X69924969Y-109104597D03*
D11*
X73406000Y-117602000D03*
X73406000Y-119380000D03*
D10*
X74041000Y-115083600D03*
X74041000Y-113665000D03*
X71882000Y-120893589D03*
X71374000Y-116586000D03*
D12*
G36*
X88662540Y-107179102D02*
G01*
X88818894Y-107226308D01*
X88963096Y-107302982D01*
X89089663Y-107406207D01*
X89193769Y-107532051D01*
X89271447Y-107675711D01*
X89319742Y-107831729D01*
X89340001Y-108024487D01*
X89341099Y-133471331D01*
X89321998Y-133666140D01*
X89274792Y-133822495D01*
X89198118Y-133966696D01*
X89094892Y-134093264D01*
X88969051Y-134197368D01*
X88825389Y-134275047D01*
X88669371Y-134323342D01*
X88476627Y-134343600D01*
X66533377Y-134343600D01*
X66338560Y-134324498D01*
X66182205Y-134277292D01*
X66038004Y-134200618D01*
X65911436Y-134097392D01*
X65807332Y-133971551D01*
X65729653Y-133827889D01*
X65681358Y-133671871D01*
X65660001Y-133468668D01*
X65660306Y-126390061D01*
X81134000Y-126390061D01*
X81134000Y-126593939D01*
X81173774Y-126793898D01*
X81251795Y-126982256D01*
X81365063Y-127151774D01*
X81509226Y-127295937D01*
X81678744Y-127409205D01*
X81867102Y-127487226D01*
X82067061Y-127527000D01*
X82270939Y-127527000D01*
X82470898Y-127487226D01*
X82659256Y-127409205D01*
X82828774Y-127295937D01*
X82972937Y-127151774D01*
X83086205Y-126982256D01*
X83164226Y-126793898D01*
X83204000Y-126593939D01*
X83204000Y-126390061D01*
X83164226Y-126190102D01*
X83086205Y-126001744D01*
X82972937Y-125832226D01*
X82828774Y-125688063D01*
X82659256Y-125574795D01*
X82470898Y-125496774D01*
X82270939Y-125457000D01*
X82067061Y-125457000D01*
X81867102Y-125496774D01*
X81678744Y-125574795D01*
X81509226Y-125688063D01*
X81365063Y-125832226D01*
X81251795Y-126001744D01*
X81173774Y-126190102D01*
X81134000Y-126390061D01*
X65660306Y-126390061D01*
X65661099Y-108021072D01*
X65679102Y-107837460D01*
X65726308Y-107681106D01*
X65802982Y-107536904D01*
X65906207Y-107410337D01*
X66032051Y-107306231D01*
X66175711Y-107228553D01*
X66331729Y-107180258D01*
X66524325Y-107160016D01*
X69886187Y-107162223D01*
X69841581Y-107206829D01*
X69739257Y-107359968D01*
X69668775Y-107530128D01*
X69632843Y-107710768D01*
X69632843Y-107894946D01*
X69668775Y-108075586D01*
X69717243Y-108192599D01*
X69652240Y-108205529D01*
X69482080Y-108276011D01*
X69328941Y-108378335D01*
X69198707Y-108508569D01*
X69116093Y-108632209D01*
X69109978Y-108601325D01*
X69107253Y-108592522D01*
X69048240Y-108406491D01*
X69024674Y-108351509D01*
X69001880Y-108296206D01*
X68997497Y-108288100D01*
X68903475Y-108117075D01*
X68869702Y-108067752D01*
X68836577Y-108017894D01*
X68830703Y-108010794D01*
X68705253Y-107861288D01*
X68662523Y-107819443D01*
X68620362Y-107776987D01*
X68613220Y-107771163D01*
X68461120Y-107648872D01*
X68411061Y-107616114D01*
X68361477Y-107582669D01*
X68353340Y-107578343D01*
X68353337Y-107578341D01*
X68353333Y-107578340D01*
X68180384Y-107487923D01*
X68124972Y-107465535D01*
X68069772Y-107442331D01*
X68060950Y-107439668D01*
X67873724Y-107384565D01*
X67814986Y-107373360D01*
X67756372Y-107361328D01*
X67747200Y-107360429D01*
X67552839Y-107342741D01*
X67493057Y-107343158D01*
X67433199Y-107342740D01*
X67424028Y-107343640D01*
X67229931Y-107364041D01*
X67171348Y-107376066D01*
X67112577Y-107387277D01*
X67103755Y-107389941D01*
X66917317Y-107447653D01*
X66862162Y-107470838D01*
X66806709Y-107493242D01*
X66798573Y-107497568D01*
X66626896Y-107590393D01*
X66577278Y-107623861D01*
X66527247Y-107656600D01*
X66520106Y-107662424D01*
X66369728Y-107786828D01*
X66327589Y-107829263D01*
X66284839Y-107871126D01*
X66278966Y-107878227D01*
X66155616Y-108029469D01*
X66122534Y-108079262D01*
X66088716Y-108128651D01*
X66084333Y-108136757D01*
X65992708Y-108309079D01*
X65969909Y-108364394D01*
X65946348Y-108419366D01*
X65943623Y-108428169D01*
X65887214Y-108615005D01*
X65875594Y-108673693D01*
X65863158Y-108732196D01*
X65862195Y-108741361D01*
X65843150Y-108935595D01*
X65843150Y-108935608D01*
X65840001Y-108967581D01*
X65840000Y-119532418D01*
X65843247Y-119565386D01*
X65843247Y-119578367D01*
X65844210Y-119587532D01*
X65865965Y-119781481D01*
X65878397Y-119839966D01*
X65890022Y-119898676D01*
X65892747Y-119907479D01*
X65951760Y-120093509D01*
X65975338Y-120148519D01*
X65998120Y-120203794D01*
X66002503Y-120211900D01*
X66096525Y-120382925D01*
X66130308Y-120432264D01*
X66163423Y-120482106D01*
X66169297Y-120489206D01*
X66294747Y-120638712D01*
X66337477Y-120680557D01*
X66379638Y-120723013D01*
X66386780Y-120728837D01*
X66538879Y-120851128D01*
X66588941Y-120883887D01*
X66638523Y-120917331D01*
X66646660Y-120921657D01*
X66646663Y-120921659D01*
X66646667Y-120921660D01*
X66819615Y-121012077D01*
X66875053Y-121034475D01*
X66930228Y-121057669D01*
X66939050Y-121060332D01*
X67126275Y-121115435D01*
X67184983Y-121126633D01*
X67243628Y-121138672D01*
X67252799Y-121139570D01*
X67447161Y-121157259D01*
X67506943Y-121156842D01*
X67566801Y-121157260D01*
X67575972Y-121156360D01*
X67770069Y-121135959D01*
X67828658Y-121123932D01*
X67887423Y-121112723D01*
X67896245Y-121110059D01*
X68082683Y-121052347D01*
X68137838Y-121029162D01*
X68193291Y-121006758D01*
X68201427Y-121002432D01*
X68373104Y-120909607D01*
X68422699Y-120876154D01*
X68472753Y-120843400D01*
X68479894Y-120837576D01*
X68522824Y-120802061D01*
X69438987Y-120802061D01*
X69438987Y-121005939D01*
X69478761Y-121205898D01*
X69556782Y-121394256D01*
X69670050Y-121563774D01*
X69814213Y-121707937D01*
X69983731Y-121821205D01*
X70172089Y-121899226D01*
X70372048Y-121939000D01*
X70575926Y-121939000D01*
X70775885Y-121899226D01*
X70964243Y-121821205D01*
X71133761Y-121707937D01*
X71253910Y-121587789D01*
X71285972Y-121619851D01*
X71439111Y-121722175D01*
X71609271Y-121792657D01*
X71789911Y-121828589D01*
X71974089Y-121828589D01*
X72154729Y-121792657D01*
X72324889Y-121722175D01*
X72478028Y-121619851D01*
X72608262Y-121489617D01*
X72710586Y-121336478D01*
X72781068Y-121166318D01*
X72817000Y-120985678D01*
X72817000Y-120801500D01*
X72781068Y-120620860D01*
X72750914Y-120548061D01*
X77451000Y-120548061D01*
X77451000Y-120751939D01*
X77490774Y-120951898D01*
X77568795Y-121140256D01*
X77682063Y-121309774D01*
X77826226Y-121453937D01*
X77995744Y-121567205D01*
X78184102Y-121645226D01*
X78384061Y-121685000D01*
X78587939Y-121685000D01*
X78787898Y-121645226D01*
X78976256Y-121567205D01*
X79145774Y-121453937D01*
X79289937Y-121309774D01*
X79403205Y-121140256D01*
X79481226Y-120951898D01*
X79521000Y-120751939D01*
X79521000Y-120548061D01*
X79481226Y-120348102D01*
X79403205Y-120159744D01*
X79289937Y-119990226D01*
X79145774Y-119846063D01*
X78976256Y-119732795D01*
X78787898Y-119654774D01*
X78587939Y-119615000D01*
X78384061Y-119615000D01*
X78184102Y-119654774D01*
X77995744Y-119732795D01*
X77826226Y-119846063D01*
X77682063Y-119990226D01*
X77568795Y-120159744D01*
X77490774Y-120348102D01*
X77451000Y-120548061D01*
X72750914Y-120548061D01*
X72710586Y-120450700D01*
X72608262Y-120297561D01*
X72478028Y-120167327D01*
X72324889Y-120065003D01*
X72154729Y-119994521D01*
X71974089Y-119958589D01*
X71789911Y-119958589D01*
X71609271Y-119994521D01*
X71439111Y-120065003D01*
X71285972Y-120167327D01*
X71243499Y-120209801D01*
X71133761Y-120100063D01*
X70964243Y-119986795D01*
X70775885Y-119908774D01*
X70575926Y-119869000D01*
X70372048Y-119869000D01*
X70172089Y-119908774D01*
X69983731Y-119986795D01*
X69814213Y-120100063D01*
X69670050Y-120244226D01*
X69556782Y-120413744D01*
X69478761Y-120602102D01*
X69438987Y-120802061D01*
X68522824Y-120802061D01*
X68630272Y-120713172D01*
X68672411Y-120670737D01*
X68715161Y-120628874D01*
X68721034Y-120621773D01*
X68844384Y-120470531D01*
X68877477Y-120420723D01*
X68911284Y-120371349D01*
X68915667Y-120363243D01*
X69007292Y-120190920D01*
X69030090Y-120135608D01*
X69053652Y-120080634D01*
X69056377Y-120071831D01*
X69112786Y-119884994D01*
X69124405Y-119826314D01*
X69136842Y-119767804D01*
X69137805Y-119758639D01*
X69156850Y-119564406D01*
X69156850Y-119564402D01*
X69160000Y-119532419D01*
X69160000Y-119303679D01*
X69294102Y-119359226D01*
X69494061Y-119399000D01*
X69697939Y-119399000D01*
X69897898Y-119359226D01*
X70086256Y-119281205D01*
X70255774Y-119167937D01*
X70399937Y-119023774D01*
X70513205Y-118854256D01*
X70591226Y-118665898D01*
X70631000Y-118465939D01*
X70631000Y-118262061D01*
X70591226Y-118062102D01*
X70513205Y-117873744D01*
X70399937Y-117704226D01*
X70255774Y-117560063D01*
X70086256Y-117446795D01*
X69897898Y-117368774D01*
X69697939Y-117329000D01*
X69494061Y-117329000D01*
X69294102Y-117368774D01*
X69160000Y-117424321D01*
X69160000Y-116493911D01*
X70439000Y-116493911D01*
X70439000Y-116678089D01*
X70474932Y-116858729D01*
X70545414Y-117028889D01*
X70647738Y-117182028D01*
X70777972Y-117312262D01*
X70931111Y-117414586D01*
X71101271Y-117485068D01*
X71281911Y-117521000D01*
X71466089Y-117521000D01*
X71571355Y-117500061D01*
X72371000Y-117500061D01*
X72371000Y-117703939D01*
X72410774Y-117903898D01*
X72488795Y-118092256D01*
X72602063Y-118261774D01*
X72746226Y-118405937D01*
X72873532Y-118491000D01*
X72746226Y-118576063D01*
X72602063Y-118720226D01*
X72488795Y-118889744D01*
X72410774Y-119078102D01*
X72371000Y-119278061D01*
X72371000Y-119481939D01*
X72410774Y-119681898D01*
X72488795Y-119870256D01*
X72602063Y-120039774D01*
X72746226Y-120183937D01*
X72915744Y-120297205D01*
X73104102Y-120375226D01*
X73304061Y-120415000D01*
X73507939Y-120415000D01*
X73707898Y-120375226D01*
X73896256Y-120297205D01*
X74065774Y-120183937D01*
X74209937Y-120039774D01*
X74323205Y-119870256D01*
X74401226Y-119681898D01*
X74441000Y-119481939D01*
X74441000Y-119278061D01*
X74401226Y-119078102D01*
X74323205Y-118889744D01*
X74209937Y-118720226D01*
X74065774Y-118576063D01*
X73938468Y-118491000D01*
X74065774Y-118405937D01*
X74209937Y-118261774D01*
X74323205Y-118092256D01*
X74401226Y-117903898D01*
X74441000Y-117703939D01*
X74441000Y-117500061D01*
X74401226Y-117300102D01*
X74323205Y-117111744D01*
X74209937Y-116942226D01*
X74065774Y-116798063D01*
X73896256Y-116684795D01*
X73707898Y-116606774D01*
X73507939Y-116567000D01*
X73304061Y-116567000D01*
X73104102Y-116606774D01*
X72915744Y-116684795D01*
X72746226Y-116798063D01*
X72602063Y-116942226D01*
X72488795Y-117111744D01*
X72410774Y-117300102D01*
X72371000Y-117500061D01*
X71571355Y-117500061D01*
X71646729Y-117485068D01*
X71816889Y-117414586D01*
X71970028Y-117312262D01*
X72100262Y-117182028D01*
X72202586Y-117028889D01*
X72273068Y-116858729D01*
X72309000Y-116678089D01*
X72309000Y-116493911D01*
X72273068Y-116313271D01*
X72202586Y-116143111D01*
X72100262Y-115989972D01*
X71970028Y-115859738D01*
X71816889Y-115757414D01*
X71646729Y-115686932D01*
X71466089Y-115651000D01*
X71281911Y-115651000D01*
X71101271Y-115686932D01*
X70931111Y-115757414D01*
X70777972Y-115859738D01*
X70647738Y-115989972D01*
X70545414Y-116143111D01*
X70474932Y-116313271D01*
X70439000Y-116493911D01*
X69160000Y-116493911D01*
X69160000Y-113572911D01*
X73106000Y-113572911D01*
X73106000Y-113757089D01*
X73141932Y-113937729D01*
X73212414Y-114107889D01*
X73314738Y-114261028D01*
X73428010Y-114374300D01*
X73314738Y-114487572D01*
X73212414Y-114640711D01*
X73141932Y-114810871D01*
X73106000Y-114991511D01*
X73106000Y-115175689D01*
X73141932Y-115356329D01*
X73212414Y-115526489D01*
X73314738Y-115679628D01*
X73444972Y-115809862D01*
X73598111Y-115912186D01*
X73768271Y-115982668D01*
X73948911Y-116018600D01*
X74133089Y-116018600D01*
X74313729Y-115982668D01*
X74483889Y-115912186D01*
X74637028Y-115809862D01*
X74767262Y-115679628D01*
X74869586Y-115526489D01*
X74940068Y-115356329D01*
X74976000Y-115175689D01*
X74976000Y-114991511D01*
X74940068Y-114810871D01*
X74869586Y-114640711D01*
X74767262Y-114487572D01*
X74653990Y-114374300D01*
X74767262Y-114261028D01*
X74869586Y-114107889D01*
X74940068Y-113937729D01*
X74976000Y-113757089D01*
X74976000Y-113572911D01*
X74940068Y-113392271D01*
X74869586Y-113222111D01*
X74767262Y-113068972D01*
X74637028Y-112938738D01*
X74483889Y-112836414D01*
X74313729Y-112765932D01*
X74133089Y-112730000D01*
X73948911Y-112730000D01*
X73768271Y-112765932D01*
X73598111Y-112836414D01*
X73444972Y-112938738D01*
X73314738Y-113068972D01*
X73212414Y-113222111D01*
X73141932Y-113392271D01*
X73106000Y-113572911D01*
X69160000Y-113572911D01*
X69160000Y-109642696D01*
X69198707Y-109700625D01*
X69328941Y-109830859D01*
X69482080Y-109933183D01*
X69652240Y-110003665D01*
X69832880Y-110039597D01*
X70017058Y-110039597D01*
X70197698Y-110003665D01*
X70340001Y-109944722D01*
X70340001Y-111467571D01*
X70336807Y-111500000D01*
X70349550Y-111629383D01*
X70387290Y-111753793D01*
X70448575Y-111868450D01*
X70531052Y-111968948D01*
X70631550Y-112051425D01*
X70746207Y-112112710D01*
X70870617Y-112150450D01*
X70967581Y-112160000D01*
X71000000Y-112163193D01*
X71032419Y-112160000D01*
X74466500Y-112160000D01*
X74466500Y-112306439D01*
X74506274Y-112506398D01*
X74584295Y-112694756D01*
X74697563Y-112864274D01*
X74841726Y-113008437D01*
X75011244Y-113121705D01*
X75199602Y-113199726D01*
X75399561Y-113239500D01*
X75603439Y-113239500D01*
X75803398Y-113199726D01*
X75991756Y-113121705D01*
X76161274Y-113008437D01*
X76305437Y-112864274D01*
X76418705Y-112694756D01*
X76496726Y-112506398D01*
X76536500Y-112306439D01*
X76536500Y-112160000D01*
X83967581Y-112160000D01*
X84000000Y-112163193D01*
X84032419Y-112160000D01*
X84129383Y-112150450D01*
X84253793Y-112112710D01*
X84368450Y-112051425D01*
X84468948Y-111968948D01*
X84551425Y-111868450D01*
X84612710Y-111753793D01*
X84650450Y-111629383D01*
X84663193Y-111500000D01*
X84660000Y-111467581D01*
X84660000Y-108334290D01*
X84747972Y-108422262D01*
X84901111Y-108524586D01*
X85071271Y-108595068D01*
X85251911Y-108631000D01*
X85436089Y-108631000D01*
X85616729Y-108595068D01*
X85786889Y-108524586D01*
X85940028Y-108422262D01*
X85948916Y-108413374D01*
X85946348Y-108419366D01*
X85943623Y-108428169D01*
X85887214Y-108615005D01*
X85875594Y-108673693D01*
X85863158Y-108732196D01*
X85862195Y-108741361D01*
X85843150Y-108935595D01*
X85843150Y-108935608D01*
X85840001Y-108967581D01*
X85840000Y-119532418D01*
X85843247Y-119565386D01*
X85843247Y-119578367D01*
X85844210Y-119587532D01*
X85865965Y-119781481D01*
X85878397Y-119839966D01*
X85890022Y-119898676D01*
X85892747Y-119907479D01*
X85951760Y-120093509D01*
X85975338Y-120148519D01*
X85998120Y-120203794D01*
X86002503Y-120211900D01*
X86096525Y-120382925D01*
X86130308Y-120432264D01*
X86163423Y-120482106D01*
X86169297Y-120489206D01*
X86294747Y-120638712D01*
X86337477Y-120680557D01*
X86379638Y-120723013D01*
X86386780Y-120728837D01*
X86538879Y-120851128D01*
X86588941Y-120883887D01*
X86638523Y-120917331D01*
X86646660Y-120921657D01*
X86646663Y-120921659D01*
X86646667Y-120921660D01*
X86819615Y-121012077D01*
X86875053Y-121034475D01*
X86930228Y-121057669D01*
X86939050Y-121060332D01*
X87126275Y-121115435D01*
X87184983Y-121126633D01*
X87243628Y-121138672D01*
X87252799Y-121139570D01*
X87447161Y-121157259D01*
X87506943Y-121156842D01*
X87566801Y-121157260D01*
X87575972Y-121156360D01*
X87770069Y-121135959D01*
X87828658Y-121123932D01*
X87887423Y-121112723D01*
X87896245Y-121110059D01*
X88082683Y-121052347D01*
X88137838Y-121029162D01*
X88193291Y-121006758D01*
X88201427Y-121002432D01*
X88373104Y-120909607D01*
X88422699Y-120876154D01*
X88472753Y-120843400D01*
X88479894Y-120837576D01*
X88630272Y-120713172D01*
X88672411Y-120670737D01*
X88715161Y-120628874D01*
X88721034Y-120621773D01*
X88844384Y-120470531D01*
X88877477Y-120420723D01*
X88911284Y-120371349D01*
X88915667Y-120363243D01*
X89007292Y-120190920D01*
X89030090Y-120135608D01*
X89053652Y-120080634D01*
X89056377Y-120071831D01*
X89112786Y-119884994D01*
X89124405Y-119826314D01*
X89136842Y-119767804D01*
X89137805Y-119758639D01*
X89156850Y-119564406D01*
X89156850Y-119564402D01*
X89160000Y-119532419D01*
X89160000Y-108967581D01*
X89156753Y-108934613D01*
X89156753Y-108921633D01*
X89155790Y-108912468D01*
X89134035Y-108718518D01*
X89121596Y-108660000D01*
X89109978Y-108601325D01*
X89107253Y-108592522D01*
X89048240Y-108406491D01*
X89024674Y-108351509D01*
X89001880Y-108296206D01*
X88997497Y-108288100D01*
X88903475Y-108117075D01*
X88869702Y-108067752D01*
X88836577Y-108017894D01*
X88830703Y-108010794D01*
X88705253Y-107861288D01*
X88662523Y-107819443D01*
X88620362Y-107776987D01*
X88613220Y-107771163D01*
X88461120Y-107648872D01*
X88411061Y-107616114D01*
X88361477Y-107582669D01*
X88353340Y-107578343D01*
X88353337Y-107578341D01*
X88353333Y-107578340D01*
X88180384Y-107487923D01*
X88124972Y-107465535D01*
X88069772Y-107442331D01*
X88060950Y-107439668D01*
X87873724Y-107384565D01*
X87814986Y-107373360D01*
X87756372Y-107361328D01*
X87747200Y-107360429D01*
X87552839Y-107342741D01*
X87493057Y-107343158D01*
X87433199Y-107342740D01*
X87424028Y-107343640D01*
X87229931Y-107364041D01*
X87171348Y-107376066D01*
X87112577Y-107387277D01*
X87103755Y-107389941D01*
X86917317Y-107447653D01*
X86862162Y-107470838D01*
X86806709Y-107493242D01*
X86798573Y-107497568D01*
X86626896Y-107590393D01*
X86577278Y-107623861D01*
X86527247Y-107656600D01*
X86520106Y-107662424D01*
X86369728Y-107786828D01*
X86327589Y-107829263D01*
X86284839Y-107871126D01*
X86278966Y-107878227D01*
X86255298Y-107907247D01*
X86279000Y-107788089D01*
X86279000Y-107603911D01*
X86243068Y-107423271D01*
X86172586Y-107253111D01*
X86110371Y-107160000D01*
X88467723Y-107160000D01*
X88662540Y-107179102D01*
X88662540Y-107179102D01*
G37*
X88662540Y-107179102D02*
X88818894Y-107226308D01*
X88963096Y-107302982D01*
X89089663Y-107406207D01*
X89193769Y-107532051D01*
X89271447Y-107675711D01*
X89319742Y-107831729D01*
X89340001Y-108024487D01*
X89341099Y-133471331D01*
X89321998Y-133666140D01*
X89274792Y-133822495D01*
X89198118Y-133966696D01*
X89094892Y-134093264D01*
X88969051Y-134197368D01*
X88825389Y-134275047D01*
X88669371Y-134323342D01*
X88476627Y-134343600D01*
X66533377Y-134343600D01*
X66338560Y-134324498D01*
X66182205Y-134277292D01*
X66038004Y-134200618D01*
X65911436Y-134097392D01*
X65807332Y-133971551D01*
X65729653Y-133827889D01*
X65681358Y-133671871D01*
X65660001Y-133468668D01*
X65660306Y-126390061D01*
X81134000Y-126390061D01*
X81134000Y-126593939D01*
X81173774Y-126793898D01*
X81251795Y-126982256D01*
X81365063Y-127151774D01*
X81509226Y-127295937D01*
X81678744Y-127409205D01*
X81867102Y-127487226D01*
X82067061Y-127527000D01*
X82270939Y-127527000D01*
X82470898Y-127487226D01*
X82659256Y-127409205D01*
X82828774Y-127295937D01*
X82972937Y-127151774D01*
X83086205Y-126982256D01*
X83164226Y-126793898D01*
X83204000Y-126593939D01*
X83204000Y-126390061D01*
X83164226Y-126190102D01*
X83086205Y-126001744D01*
X82972937Y-125832226D01*
X82828774Y-125688063D01*
X82659256Y-125574795D01*
X82470898Y-125496774D01*
X82270939Y-125457000D01*
X82067061Y-125457000D01*
X81867102Y-125496774D01*
X81678744Y-125574795D01*
X81509226Y-125688063D01*
X81365063Y-125832226D01*
X81251795Y-126001744D01*
X81173774Y-126190102D01*
X81134000Y-126390061D01*
X65660306Y-126390061D01*
X65661099Y-108021072D01*
X65679102Y-107837460D01*
X65726308Y-107681106D01*
X65802982Y-107536904D01*
X65906207Y-107410337D01*
X66032051Y-107306231D01*
X66175711Y-107228553D01*
X66331729Y-107180258D01*
X66524325Y-107160016D01*
X69886187Y-107162223D01*
X69841581Y-107206829D01*
X69739257Y-107359968D01*
X69668775Y-107530128D01*
X69632843Y-107710768D01*
X69632843Y-107894946D01*
X69668775Y-108075586D01*
X69717243Y-108192599D01*
X69652240Y-108205529D01*
X69482080Y-108276011D01*
X69328941Y-108378335D01*
X69198707Y-108508569D01*
X69116093Y-108632209D01*
X69109978Y-108601325D01*
X69107253Y-108592522D01*
X69048240Y-108406491D01*
X69024674Y-108351509D01*
X69001880Y-108296206D01*
X68997497Y-108288100D01*
X68903475Y-108117075D01*
X68869702Y-108067752D01*
X68836577Y-108017894D01*
X68830703Y-108010794D01*
X68705253Y-107861288D01*
X68662523Y-107819443D01*
X68620362Y-107776987D01*
X68613220Y-107771163D01*
X68461120Y-107648872D01*
X68411061Y-107616114D01*
X68361477Y-107582669D01*
X68353340Y-107578343D01*
X68353337Y-107578341D01*
X68353333Y-107578340D01*
X68180384Y-107487923D01*
X68124972Y-107465535D01*
X68069772Y-107442331D01*
X68060950Y-107439668D01*
X67873724Y-107384565D01*
X67814986Y-107373360D01*
X67756372Y-107361328D01*
X67747200Y-107360429D01*
X67552839Y-107342741D01*
X67493057Y-107343158D01*
X67433199Y-107342740D01*
X67424028Y-107343640D01*
X67229931Y-107364041D01*
X67171348Y-107376066D01*
X67112577Y-107387277D01*
X67103755Y-107389941D01*
X66917317Y-107447653D01*
X66862162Y-107470838D01*
X66806709Y-107493242D01*
X66798573Y-107497568D01*
X66626896Y-107590393D01*
X66577278Y-107623861D01*
X66527247Y-107656600D01*
X66520106Y-107662424D01*
X66369728Y-107786828D01*
X66327589Y-107829263D01*
X66284839Y-107871126D01*
X66278966Y-107878227D01*
X66155616Y-108029469D01*
X66122534Y-108079262D01*
X66088716Y-108128651D01*
X66084333Y-108136757D01*
X65992708Y-108309079D01*
X65969909Y-108364394D01*
X65946348Y-108419366D01*
X65943623Y-108428169D01*
X65887214Y-108615005D01*
X65875594Y-108673693D01*
X65863158Y-108732196D01*
X65862195Y-108741361D01*
X65843150Y-108935595D01*
X65843150Y-108935608D01*
X65840001Y-108967581D01*
X65840000Y-119532418D01*
X65843247Y-119565386D01*
X65843247Y-119578367D01*
X65844210Y-119587532D01*
X65865965Y-119781481D01*
X65878397Y-119839966D01*
X65890022Y-119898676D01*
X65892747Y-119907479D01*
X65951760Y-120093509D01*
X65975338Y-120148519D01*
X65998120Y-120203794D01*
X66002503Y-120211900D01*
X66096525Y-120382925D01*
X66130308Y-120432264D01*
X66163423Y-120482106D01*
X66169297Y-120489206D01*
X66294747Y-120638712D01*
X66337477Y-120680557D01*
X66379638Y-120723013D01*
X66386780Y-120728837D01*
X66538879Y-120851128D01*
X66588941Y-120883887D01*
X66638523Y-120917331D01*
X66646660Y-120921657D01*
X66646663Y-120921659D01*
X66646667Y-120921660D01*
X66819615Y-121012077D01*
X66875053Y-121034475D01*
X66930228Y-121057669D01*
X66939050Y-121060332D01*
X67126275Y-121115435D01*
X67184983Y-121126633D01*
X67243628Y-121138672D01*
X67252799Y-121139570D01*
X67447161Y-121157259D01*
X67506943Y-121156842D01*
X67566801Y-121157260D01*
X67575972Y-121156360D01*
X67770069Y-121135959D01*
X67828658Y-121123932D01*
X67887423Y-121112723D01*
X67896245Y-121110059D01*
X68082683Y-121052347D01*
X68137838Y-121029162D01*
X68193291Y-121006758D01*
X68201427Y-121002432D01*
X68373104Y-120909607D01*
X68422699Y-120876154D01*
X68472753Y-120843400D01*
X68479894Y-120837576D01*
X68522824Y-120802061D01*
X69438987Y-120802061D01*
X69438987Y-121005939D01*
X69478761Y-121205898D01*
X69556782Y-121394256D01*
X69670050Y-121563774D01*
X69814213Y-121707937D01*
X69983731Y-121821205D01*
X70172089Y-121899226D01*
X70372048Y-121939000D01*
X70575926Y-121939000D01*
X70775885Y-121899226D01*
X70964243Y-121821205D01*
X71133761Y-121707937D01*
X71253910Y-121587789D01*
X71285972Y-121619851D01*
X71439111Y-121722175D01*
X71609271Y-121792657D01*
X71789911Y-121828589D01*
X71974089Y-121828589D01*
X72154729Y-121792657D01*
X72324889Y-121722175D01*
X72478028Y-121619851D01*
X72608262Y-121489617D01*
X72710586Y-121336478D01*
X72781068Y-121166318D01*
X72817000Y-120985678D01*
X72817000Y-120801500D01*
X72781068Y-120620860D01*
X72750914Y-120548061D01*
X77451000Y-120548061D01*
X77451000Y-120751939D01*
X77490774Y-120951898D01*
X77568795Y-121140256D01*
X77682063Y-121309774D01*
X77826226Y-121453937D01*
X77995744Y-121567205D01*
X78184102Y-121645226D01*
X78384061Y-121685000D01*
X78587939Y-121685000D01*
X78787898Y-121645226D01*
X78976256Y-121567205D01*
X79145774Y-121453937D01*
X79289937Y-121309774D01*
X79403205Y-121140256D01*
X79481226Y-120951898D01*
X79521000Y-120751939D01*
X79521000Y-120548061D01*
X79481226Y-120348102D01*
X79403205Y-120159744D01*
X79289937Y-119990226D01*
X79145774Y-119846063D01*
X78976256Y-119732795D01*
X78787898Y-119654774D01*
X78587939Y-119615000D01*
X78384061Y-119615000D01*
X78184102Y-119654774D01*
X77995744Y-119732795D01*
X77826226Y-119846063D01*
X77682063Y-119990226D01*
X77568795Y-120159744D01*
X77490774Y-120348102D01*
X77451000Y-120548061D01*
X72750914Y-120548061D01*
X72710586Y-120450700D01*
X72608262Y-120297561D01*
X72478028Y-120167327D01*
X72324889Y-120065003D01*
X72154729Y-119994521D01*
X71974089Y-119958589D01*
X71789911Y-119958589D01*
X71609271Y-119994521D01*
X71439111Y-120065003D01*
X71285972Y-120167327D01*
X71243499Y-120209801D01*
X71133761Y-120100063D01*
X70964243Y-119986795D01*
X70775885Y-119908774D01*
X70575926Y-119869000D01*
X70372048Y-119869000D01*
X70172089Y-119908774D01*
X69983731Y-119986795D01*
X69814213Y-120100063D01*
X69670050Y-120244226D01*
X69556782Y-120413744D01*
X69478761Y-120602102D01*
X69438987Y-120802061D01*
X68522824Y-120802061D01*
X68630272Y-120713172D01*
X68672411Y-120670737D01*
X68715161Y-120628874D01*
X68721034Y-120621773D01*
X68844384Y-120470531D01*
X68877477Y-120420723D01*
X68911284Y-120371349D01*
X68915667Y-120363243D01*
X69007292Y-120190920D01*
X69030090Y-120135608D01*
X69053652Y-120080634D01*
X69056377Y-120071831D01*
X69112786Y-119884994D01*
X69124405Y-119826314D01*
X69136842Y-119767804D01*
X69137805Y-119758639D01*
X69156850Y-119564406D01*
X69156850Y-119564402D01*
X69160000Y-119532419D01*
X69160000Y-119303679D01*
X69294102Y-119359226D01*
X69494061Y-119399000D01*
X69697939Y-119399000D01*
X69897898Y-119359226D01*
X70086256Y-119281205D01*
X70255774Y-119167937D01*
X70399937Y-119023774D01*
X70513205Y-118854256D01*
X70591226Y-118665898D01*
X70631000Y-118465939D01*
X70631000Y-118262061D01*
X70591226Y-118062102D01*
X70513205Y-117873744D01*
X70399937Y-117704226D01*
X70255774Y-117560063D01*
X70086256Y-117446795D01*
X69897898Y-117368774D01*
X69697939Y-117329000D01*
X69494061Y-117329000D01*
X69294102Y-117368774D01*
X69160000Y-117424321D01*
X69160000Y-116493911D01*
X70439000Y-116493911D01*
X70439000Y-116678089D01*
X70474932Y-116858729D01*
X70545414Y-117028889D01*
X70647738Y-117182028D01*
X70777972Y-117312262D01*
X70931111Y-117414586D01*
X71101271Y-117485068D01*
X71281911Y-117521000D01*
X71466089Y-117521000D01*
X71571355Y-117500061D01*
X72371000Y-117500061D01*
X72371000Y-117703939D01*
X72410774Y-117903898D01*
X72488795Y-118092256D01*
X72602063Y-118261774D01*
X72746226Y-118405937D01*
X72873532Y-118491000D01*
X72746226Y-118576063D01*
X72602063Y-118720226D01*
X72488795Y-118889744D01*
X72410774Y-119078102D01*
X72371000Y-119278061D01*
X72371000Y-119481939D01*
X72410774Y-119681898D01*
X72488795Y-119870256D01*
X72602063Y-120039774D01*
X72746226Y-120183937D01*
X72915744Y-120297205D01*
X73104102Y-120375226D01*
X73304061Y-120415000D01*
X73507939Y-120415000D01*
X73707898Y-120375226D01*
X73896256Y-120297205D01*
X74065774Y-120183937D01*
X74209937Y-120039774D01*
X74323205Y-119870256D01*
X74401226Y-119681898D01*
X74441000Y-119481939D01*
X74441000Y-119278061D01*
X74401226Y-119078102D01*
X74323205Y-118889744D01*
X74209937Y-118720226D01*
X74065774Y-118576063D01*
X73938468Y-118491000D01*
X74065774Y-118405937D01*
X74209937Y-118261774D01*
X74323205Y-118092256D01*
X74401226Y-117903898D01*
X74441000Y-117703939D01*
X74441000Y-117500061D01*
X74401226Y-117300102D01*
X74323205Y-117111744D01*
X74209937Y-116942226D01*
X74065774Y-116798063D01*
X73896256Y-116684795D01*
X73707898Y-116606774D01*
X73507939Y-116567000D01*
X73304061Y-116567000D01*
X73104102Y-116606774D01*
X72915744Y-116684795D01*
X72746226Y-116798063D01*
X72602063Y-116942226D01*
X72488795Y-117111744D01*
X72410774Y-117300102D01*
X72371000Y-117500061D01*
X71571355Y-117500061D01*
X71646729Y-117485068D01*
X71816889Y-117414586D01*
X71970028Y-117312262D01*
X72100262Y-117182028D01*
X72202586Y-117028889D01*
X72273068Y-116858729D01*
X72309000Y-116678089D01*
X72309000Y-116493911D01*
X72273068Y-116313271D01*
X72202586Y-116143111D01*
X72100262Y-115989972D01*
X71970028Y-115859738D01*
X71816889Y-115757414D01*
X71646729Y-115686932D01*
X71466089Y-115651000D01*
X71281911Y-115651000D01*
X71101271Y-115686932D01*
X70931111Y-115757414D01*
X70777972Y-115859738D01*
X70647738Y-115989972D01*
X70545414Y-116143111D01*
X70474932Y-116313271D01*
X70439000Y-116493911D01*
X69160000Y-116493911D01*
X69160000Y-113572911D01*
X73106000Y-113572911D01*
X73106000Y-113757089D01*
X73141932Y-113937729D01*
X73212414Y-114107889D01*
X73314738Y-114261028D01*
X73428010Y-114374300D01*
X73314738Y-114487572D01*
X73212414Y-114640711D01*
X73141932Y-114810871D01*
X73106000Y-114991511D01*
X73106000Y-115175689D01*
X73141932Y-115356329D01*
X73212414Y-115526489D01*
X73314738Y-115679628D01*
X73444972Y-115809862D01*
X73598111Y-115912186D01*
X73768271Y-115982668D01*
X73948911Y-116018600D01*
X74133089Y-116018600D01*
X74313729Y-115982668D01*
X74483889Y-115912186D01*
X74637028Y-115809862D01*
X74767262Y-115679628D01*
X74869586Y-115526489D01*
X74940068Y-115356329D01*
X74976000Y-115175689D01*
X74976000Y-114991511D01*
X74940068Y-114810871D01*
X74869586Y-114640711D01*
X74767262Y-114487572D01*
X74653990Y-114374300D01*
X74767262Y-114261028D01*
X74869586Y-114107889D01*
X74940068Y-113937729D01*
X74976000Y-113757089D01*
X74976000Y-113572911D01*
X74940068Y-113392271D01*
X74869586Y-113222111D01*
X74767262Y-113068972D01*
X74637028Y-112938738D01*
X74483889Y-112836414D01*
X74313729Y-112765932D01*
X74133089Y-112730000D01*
X73948911Y-112730000D01*
X73768271Y-112765932D01*
X73598111Y-112836414D01*
X73444972Y-112938738D01*
X73314738Y-113068972D01*
X73212414Y-113222111D01*
X73141932Y-113392271D01*
X73106000Y-113572911D01*
X69160000Y-113572911D01*
X69160000Y-109642696D01*
X69198707Y-109700625D01*
X69328941Y-109830859D01*
X69482080Y-109933183D01*
X69652240Y-110003665D01*
X69832880Y-110039597D01*
X70017058Y-110039597D01*
X70197698Y-110003665D01*
X70340001Y-109944722D01*
X70340001Y-111467571D01*
X70336807Y-111500000D01*
X70349550Y-111629383D01*
X70387290Y-111753793D01*
X70448575Y-111868450D01*
X70531052Y-111968948D01*
X70631550Y-112051425D01*
X70746207Y-112112710D01*
X70870617Y-112150450D01*
X70967581Y-112160000D01*
X71000000Y-112163193D01*
X71032419Y-112160000D01*
X74466500Y-112160000D01*
X74466500Y-112306439D01*
X74506274Y-112506398D01*
X74584295Y-112694756D01*
X74697563Y-112864274D01*
X74841726Y-113008437D01*
X75011244Y-113121705D01*
X75199602Y-113199726D01*
X75399561Y-113239500D01*
X75603439Y-113239500D01*
X75803398Y-113199726D01*
X75991756Y-113121705D01*
X76161274Y-113008437D01*
X76305437Y-112864274D01*
X76418705Y-112694756D01*
X76496726Y-112506398D01*
X76536500Y-112306439D01*
X76536500Y-112160000D01*
X83967581Y-112160000D01*
X84000000Y-112163193D01*
X84032419Y-112160000D01*
X84129383Y-112150450D01*
X84253793Y-112112710D01*
X84368450Y-112051425D01*
X84468948Y-111968948D01*
X84551425Y-111868450D01*
X84612710Y-111753793D01*
X84650450Y-111629383D01*
X84663193Y-111500000D01*
X84660000Y-111467581D01*
X84660000Y-108334290D01*
X84747972Y-108422262D01*
X84901111Y-108524586D01*
X85071271Y-108595068D01*
X85251911Y-108631000D01*
X85436089Y-108631000D01*
X85616729Y-108595068D01*
X85786889Y-108524586D01*
X85940028Y-108422262D01*
X85948916Y-108413374D01*
X85946348Y-108419366D01*
X85943623Y-108428169D01*
X85887214Y-108615005D01*
X85875594Y-108673693D01*
X85863158Y-108732196D01*
X85862195Y-108741361D01*
X85843150Y-108935595D01*
X85843150Y-108935608D01*
X85840001Y-108967581D01*
X85840000Y-119532418D01*
X85843247Y-119565386D01*
X85843247Y-119578367D01*
X85844210Y-119587532D01*
X85865965Y-119781481D01*
X85878397Y-119839966D01*
X85890022Y-119898676D01*
X85892747Y-119907479D01*
X85951760Y-120093509D01*
X85975338Y-120148519D01*
X85998120Y-120203794D01*
X86002503Y-120211900D01*
X86096525Y-120382925D01*
X86130308Y-120432264D01*
X86163423Y-120482106D01*
X86169297Y-120489206D01*
X86294747Y-120638712D01*
X86337477Y-120680557D01*
X86379638Y-120723013D01*
X86386780Y-120728837D01*
X86538879Y-120851128D01*
X86588941Y-120883887D01*
X86638523Y-120917331D01*
X86646660Y-120921657D01*
X86646663Y-120921659D01*
X86646667Y-120921660D01*
X86819615Y-121012077D01*
X86875053Y-121034475D01*
X86930228Y-121057669D01*
X86939050Y-121060332D01*
X87126275Y-121115435D01*
X87184983Y-121126633D01*
X87243628Y-121138672D01*
X87252799Y-121139570D01*
X87447161Y-121157259D01*
X87506943Y-121156842D01*
X87566801Y-121157260D01*
X87575972Y-121156360D01*
X87770069Y-121135959D01*
X87828658Y-121123932D01*
X87887423Y-121112723D01*
X87896245Y-121110059D01*
X88082683Y-121052347D01*
X88137838Y-121029162D01*
X88193291Y-121006758D01*
X88201427Y-121002432D01*
X88373104Y-120909607D01*
X88422699Y-120876154D01*
X88472753Y-120843400D01*
X88479894Y-120837576D01*
X88630272Y-120713172D01*
X88672411Y-120670737D01*
X88715161Y-120628874D01*
X88721034Y-120621773D01*
X88844384Y-120470531D01*
X88877477Y-120420723D01*
X88911284Y-120371349D01*
X88915667Y-120363243D01*
X89007292Y-120190920D01*
X89030090Y-120135608D01*
X89053652Y-120080634D01*
X89056377Y-120071831D01*
X89112786Y-119884994D01*
X89124405Y-119826314D01*
X89136842Y-119767804D01*
X89137805Y-119758639D01*
X89156850Y-119564406D01*
X89156850Y-119564402D01*
X89160000Y-119532419D01*
X89160000Y-108967581D01*
X89156753Y-108934613D01*
X89156753Y-108921633D01*
X89155790Y-108912468D01*
X89134035Y-108718518D01*
X89121596Y-108660000D01*
X89109978Y-108601325D01*
X89107253Y-108592522D01*
X89048240Y-108406491D01*
X89024674Y-108351509D01*
X89001880Y-108296206D01*
X88997497Y-108288100D01*
X88903475Y-108117075D01*
X88869702Y-108067752D01*
X88836577Y-108017894D01*
X88830703Y-108010794D01*
X88705253Y-107861288D01*
X88662523Y-107819443D01*
X88620362Y-107776987D01*
X88613220Y-107771163D01*
X88461120Y-107648872D01*
X88411061Y-107616114D01*
X88361477Y-107582669D01*
X88353340Y-107578343D01*
X88353337Y-107578341D01*
X88353333Y-107578340D01*
X88180384Y-107487923D01*
X88124972Y-107465535D01*
X88069772Y-107442331D01*
X88060950Y-107439668D01*
X87873724Y-107384565D01*
X87814986Y-107373360D01*
X87756372Y-107361328D01*
X87747200Y-107360429D01*
X87552839Y-107342741D01*
X87493057Y-107343158D01*
X87433199Y-107342740D01*
X87424028Y-107343640D01*
X87229931Y-107364041D01*
X87171348Y-107376066D01*
X87112577Y-107387277D01*
X87103755Y-107389941D01*
X86917317Y-107447653D01*
X86862162Y-107470838D01*
X86806709Y-107493242D01*
X86798573Y-107497568D01*
X86626896Y-107590393D01*
X86577278Y-107623861D01*
X86527247Y-107656600D01*
X86520106Y-107662424D01*
X86369728Y-107786828D01*
X86327589Y-107829263D01*
X86284839Y-107871126D01*
X86278966Y-107878227D01*
X86255298Y-107907247D01*
X86279000Y-107788089D01*
X86279000Y-107603911D01*
X86243068Y-107423271D01*
X86172586Y-107253111D01*
X86110371Y-107160000D01*
X88467723Y-107160000D01*
X88662540Y-107179102D01*
M02*
