G04 #@! TF.GenerationSoftware,KiCad,Pcbnew,(5.1.2)-1*
G04 #@! TF.CreationDate,2019-06-05T16:17:15+02:00*
G04 #@! TF.ProjectId,BodyTempUnit-e7,426f6479-5465-46d7-9055-6e69742d6537,rev?*
G04 #@! TF.SameCoordinates,Original*
G04 #@! TF.FileFunction,Copper,L4,Bot*
G04 #@! TF.FilePolarity,Positive*
%FSLAX46Y46*%
G04 Gerber Fmt 4.6, Leading zero omitted, Abs format (unit mm)*
G04 Created by KiCad (PCBNEW (5.1.2)-1) date 2019-06-05 16:17:15*
%MOMM*%
%LPD*%
G04 APERTURE LIST*
%ADD10C,0.600000*%
%ADD11C,0.800000*%
%ADD12C,0.250000*%
%ADD13C,0.150000*%
%ADD14C,0.254000*%
G04 APERTURE END LIST*
D10*
X77481000Y-107569000D03*
X78028800Y-106807000D03*
X78028800Y-108331000D03*
X76962000Y-106807000D03*
D11*
X76708000Y-120650000D03*
X82169000Y-126492000D03*
X69596000Y-118364000D03*
X70473987Y-120904000D03*
X78486000Y-120650000D03*
X75501500Y-112204500D03*
D10*
X85344000Y-107696000D03*
D11*
X77724000Y-126873000D03*
X77216000Y-117983000D03*
X72390000Y-116586000D03*
X69596000Y-119380000D03*
X72812500Y-123510000D03*
X81788000Y-123444000D03*
X82550000Y-131064000D03*
X79502000Y-112125000D03*
D10*
X76962000Y-108331000D03*
X85344000Y-108712000D03*
X70567843Y-107802857D03*
X69924969Y-109104597D03*
D11*
X73406000Y-117602000D03*
X73406000Y-119380000D03*
D10*
X74041000Y-115083600D03*
X74041000Y-113665000D03*
X71882000Y-120893589D03*
X71374000Y-116586000D03*
D12*
X84281990Y-107649990D02*
X79802010Y-107649990D01*
X85344000Y-108712000D02*
X84281990Y-107649990D01*
D13*
X70567843Y-107802857D02*
X70104000Y-108266700D01*
X70104000Y-108266700D02*
X69924969Y-108445731D01*
X69924969Y-108445731D02*
X69924969Y-109104597D01*
X73406000Y-117602000D02*
X73406000Y-119380000D01*
X74041000Y-113665000D02*
X74041000Y-115083600D01*
X71882000Y-120893589D02*
X71882000Y-117094000D01*
X71882000Y-117094000D02*
X71374000Y-116586000D01*
D14*
G36*
X79873000Y-109841024D02*
G01*
X75127000Y-109842577D01*
X75127000Y-105663600D01*
X79873000Y-105663600D01*
X79873000Y-109841024D01*
X79873000Y-109841024D01*
G37*
X79873000Y-109841024D02*
X75127000Y-109842577D01*
X75127000Y-105663600D01*
X79873000Y-105663600D01*
X79873000Y-109841024D01*
M02*
