G04 #@! TF.GenerationSoftware,KiCad,Pcbnew,(5.1.2)-1*
G04 #@! TF.CreationDate,2019-06-05T16:17:15+02:00*
G04 #@! TF.ProjectId,BodyTempUnit-e7,426f6479-5465-46d7-9055-6e69742d6537,rev?*
G04 #@! TF.SameCoordinates,Original*
G04 #@! TF.FileFunction,Copper,L1,Top*
G04 #@! TF.FilePolarity,Positive*
%FSLAX46Y46*%
G04 Gerber Fmt 4.6, Leading zero omitted, Abs format (unit mm)*
G04 Created by KiCad (PCBNEW (5.1.2)-1) date 2019-06-05 16:17:15*
%MOMM*%
%LPD*%
G04 APERTURE LIST*
%ADD10R,1.080000X1.050000*%
%ADD11R,1.060000X0.650000*%
%ADD12R,1.200000X0.450000*%
%ADD13R,1.600200X2.387600*%
%ADD14R,0.799996X0.275600*%
%ADD15R,3.000000X2.100000*%
%ADD16R,2.000000X0.800000*%
%ADD17R,0.450000X0.250000*%
%ADD18R,0.250000X0.450000*%
%ADD19R,1.050000X1.080000*%
%ADD20R,1.100000X1.000000*%
%ADD21R,1.000000X1.100000*%
%ADD22C,0.100000*%
%ADD23C,0.300000*%
%ADD24R,0.800000X0.800000*%
%ADD25C,0.600000*%
%ADD26C,0.800000*%
%ADD27C,0.500000*%
%ADD28C,0.250000*%
%ADD29C,0.300000*%
%ADD30C,0.150000*%
%ADD31C,0.400000*%
G04 APERTURE END LIST*
D10*
X80800000Y-127687000D03*
X80800000Y-125937000D03*
X74704000Y-127687000D03*
X74704000Y-125937000D03*
D11*
X78852000Y-125862000D03*
X78852000Y-127762000D03*
X76652000Y-127762000D03*
X76652000Y-126812000D03*
X76652000Y-125862000D03*
D12*
X79927000Y-131425000D03*
X79927000Y-132075000D03*
X79927000Y-132725000D03*
X79927000Y-133375000D03*
X75577000Y-133375000D03*
X75577000Y-132725000D03*
X75577000Y-132075000D03*
X75577000Y-131425000D03*
D13*
X77501100Y-107569000D03*
D14*
X79050500Y-106578400D03*
X79050500Y-107238800D03*
X79050500Y-107899200D03*
X79050500Y-108559600D03*
X75951700Y-108559600D03*
X75951700Y-107899200D03*
X75951700Y-107238800D03*
X75951700Y-106578400D03*
D15*
X87626100Y-123503600D03*
X87626100Y-133503600D03*
D16*
X84501100Y-126003600D03*
X84501100Y-127253600D03*
X84501100Y-128503600D03*
X84501100Y-129753600D03*
X84501100Y-131003600D03*
D15*
X67376100Y-133503600D03*
X67376100Y-123503600D03*
D16*
X70501100Y-131003600D03*
X70501100Y-129753600D03*
X70501100Y-128503600D03*
X70501100Y-127253600D03*
X70501100Y-126003600D03*
D12*
X79927000Y-131425000D03*
X79927000Y-132075000D03*
X79927000Y-132725000D03*
X79927000Y-133375000D03*
X75577000Y-133375000D03*
X75577000Y-132725000D03*
X75577000Y-132075000D03*
X75577000Y-131425000D03*
D17*
X72426100Y-118233600D03*
X72426100Y-118733600D03*
X72426100Y-119233600D03*
D18*
X72251100Y-119908600D03*
X71751100Y-119908600D03*
X71251100Y-119908600D03*
X70751100Y-119908600D03*
D17*
X70576100Y-119233600D03*
X70576100Y-118733600D03*
X70576100Y-118233600D03*
D18*
X70751100Y-117558600D03*
X71251100Y-117558600D03*
X71751100Y-117558600D03*
X72251100Y-117558600D03*
D10*
X73406000Y-133275000D03*
X73406000Y-131525000D03*
X79501100Y-113358600D03*
X79501100Y-115108600D03*
D19*
X74845000Y-123510000D03*
X76595000Y-123510000D03*
D10*
X81001100Y-108378600D03*
X81001100Y-106628600D03*
D20*
X75501100Y-113383600D03*
X75501100Y-115083600D03*
D21*
X78602000Y-129860000D03*
X76902000Y-129860000D03*
D20*
X77735300Y-113383600D03*
X77735300Y-115083600D03*
D22*
G36*
X75433451Y-120833961D02*
G01*
X75440732Y-120835041D01*
X75447871Y-120836829D01*
X75454801Y-120839309D01*
X75461455Y-120842456D01*
X75467768Y-120846240D01*
X75473679Y-120850624D01*
X75479133Y-120855567D01*
X75484076Y-120861021D01*
X75488460Y-120866932D01*
X75492244Y-120873245D01*
X75495391Y-120879899D01*
X75497871Y-120886829D01*
X75499659Y-120893968D01*
X75500739Y-120901249D01*
X75501100Y-120908600D01*
X75501100Y-121058600D01*
X75500739Y-121065951D01*
X75499659Y-121073232D01*
X75497871Y-121080371D01*
X75495391Y-121087301D01*
X75492244Y-121093955D01*
X75488460Y-121100268D01*
X75484076Y-121106179D01*
X75479133Y-121111633D01*
X75473679Y-121116576D01*
X75467768Y-121120960D01*
X75461455Y-121124744D01*
X75454801Y-121127891D01*
X75447871Y-121130371D01*
X75440732Y-121132159D01*
X75433451Y-121133239D01*
X75426100Y-121133600D01*
X74876100Y-121133600D01*
X74868749Y-121133239D01*
X74861468Y-121132159D01*
X74854329Y-121130371D01*
X74847399Y-121127891D01*
X74840745Y-121124744D01*
X74834432Y-121120960D01*
X74828521Y-121116576D01*
X74823067Y-121111633D01*
X74818124Y-121106179D01*
X74813740Y-121100268D01*
X74809956Y-121093955D01*
X74806809Y-121087301D01*
X74804329Y-121080371D01*
X74802541Y-121073232D01*
X74801461Y-121065951D01*
X74801100Y-121058600D01*
X74801100Y-120908600D01*
X74801461Y-120901249D01*
X74802541Y-120893968D01*
X74804329Y-120886829D01*
X74806809Y-120879899D01*
X74809956Y-120873245D01*
X74813740Y-120866932D01*
X74818124Y-120861021D01*
X74823067Y-120855567D01*
X74828521Y-120850624D01*
X74834432Y-120846240D01*
X74840745Y-120842456D01*
X74847399Y-120839309D01*
X74854329Y-120836829D01*
X74861468Y-120835041D01*
X74868749Y-120833961D01*
X74876100Y-120833600D01*
X75426100Y-120833600D01*
X75433451Y-120833961D01*
X75433451Y-120833961D01*
G37*
D23*
X75151100Y-120983600D03*
D22*
G36*
X75433451Y-120333961D02*
G01*
X75440732Y-120335041D01*
X75447871Y-120336829D01*
X75454801Y-120339309D01*
X75461455Y-120342456D01*
X75467768Y-120346240D01*
X75473679Y-120350624D01*
X75479133Y-120355567D01*
X75484076Y-120361021D01*
X75488460Y-120366932D01*
X75492244Y-120373245D01*
X75495391Y-120379899D01*
X75497871Y-120386829D01*
X75499659Y-120393968D01*
X75500739Y-120401249D01*
X75501100Y-120408600D01*
X75501100Y-120558600D01*
X75500739Y-120565951D01*
X75499659Y-120573232D01*
X75497871Y-120580371D01*
X75495391Y-120587301D01*
X75492244Y-120593955D01*
X75488460Y-120600268D01*
X75484076Y-120606179D01*
X75479133Y-120611633D01*
X75473679Y-120616576D01*
X75467768Y-120620960D01*
X75461455Y-120624744D01*
X75454801Y-120627891D01*
X75447871Y-120630371D01*
X75440732Y-120632159D01*
X75433451Y-120633239D01*
X75426100Y-120633600D01*
X74876100Y-120633600D01*
X74868749Y-120633239D01*
X74861468Y-120632159D01*
X74854329Y-120630371D01*
X74847399Y-120627891D01*
X74840745Y-120624744D01*
X74834432Y-120620960D01*
X74828521Y-120616576D01*
X74823067Y-120611633D01*
X74818124Y-120606179D01*
X74813740Y-120600268D01*
X74809956Y-120593955D01*
X74806809Y-120587301D01*
X74804329Y-120580371D01*
X74802541Y-120573232D01*
X74801461Y-120565951D01*
X74801100Y-120558600D01*
X74801100Y-120408600D01*
X74801461Y-120401249D01*
X74802541Y-120393968D01*
X74804329Y-120386829D01*
X74806809Y-120379899D01*
X74809956Y-120373245D01*
X74813740Y-120366932D01*
X74818124Y-120361021D01*
X74823067Y-120355567D01*
X74828521Y-120350624D01*
X74834432Y-120346240D01*
X74840745Y-120342456D01*
X74847399Y-120339309D01*
X74854329Y-120336829D01*
X74861468Y-120335041D01*
X74868749Y-120333961D01*
X74876100Y-120333600D01*
X75426100Y-120333600D01*
X75433451Y-120333961D01*
X75433451Y-120333961D01*
G37*
D23*
X75151100Y-120483600D03*
D22*
G36*
X75433451Y-119833961D02*
G01*
X75440732Y-119835041D01*
X75447871Y-119836829D01*
X75454801Y-119839309D01*
X75461455Y-119842456D01*
X75467768Y-119846240D01*
X75473679Y-119850624D01*
X75479133Y-119855567D01*
X75484076Y-119861021D01*
X75488460Y-119866932D01*
X75492244Y-119873245D01*
X75495391Y-119879899D01*
X75497871Y-119886829D01*
X75499659Y-119893968D01*
X75500739Y-119901249D01*
X75501100Y-119908600D01*
X75501100Y-120058600D01*
X75500739Y-120065951D01*
X75499659Y-120073232D01*
X75497871Y-120080371D01*
X75495391Y-120087301D01*
X75492244Y-120093955D01*
X75488460Y-120100268D01*
X75484076Y-120106179D01*
X75479133Y-120111633D01*
X75473679Y-120116576D01*
X75467768Y-120120960D01*
X75461455Y-120124744D01*
X75454801Y-120127891D01*
X75447871Y-120130371D01*
X75440732Y-120132159D01*
X75433451Y-120133239D01*
X75426100Y-120133600D01*
X74876100Y-120133600D01*
X74868749Y-120133239D01*
X74861468Y-120132159D01*
X74854329Y-120130371D01*
X74847399Y-120127891D01*
X74840745Y-120124744D01*
X74834432Y-120120960D01*
X74828521Y-120116576D01*
X74823067Y-120111633D01*
X74818124Y-120106179D01*
X74813740Y-120100268D01*
X74809956Y-120093955D01*
X74806809Y-120087301D01*
X74804329Y-120080371D01*
X74802541Y-120073232D01*
X74801461Y-120065951D01*
X74801100Y-120058600D01*
X74801100Y-119908600D01*
X74801461Y-119901249D01*
X74802541Y-119893968D01*
X74804329Y-119886829D01*
X74806809Y-119879899D01*
X74809956Y-119873245D01*
X74813740Y-119866932D01*
X74818124Y-119861021D01*
X74823067Y-119855567D01*
X74828521Y-119850624D01*
X74834432Y-119846240D01*
X74840745Y-119842456D01*
X74847399Y-119839309D01*
X74854329Y-119836829D01*
X74861468Y-119835041D01*
X74868749Y-119833961D01*
X74876100Y-119833600D01*
X75426100Y-119833600D01*
X75433451Y-119833961D01*
X75433451Y-119833961D01*
G37*
D23*
X75151100Y-119983600D03*
D22*
G36*
X75433451Y-119333961D02*
G01*
X75440732Y-119335041D01*
X75447871Y-119336829D01*
X75454801Y-119339309D01*
X75461455Y-119342456D01*
X75467768Y-119346240D01*
X75473679Y-119350624D01*
X75479133Y-119355567D01*
X75484076Y-119361021D01*
X75488460Y-119366932D01*
X75492244Y-119373245D01*
X75495391Y-119379899D01*
X75497871Y-119386829D01*
X75499659Y-119393968D01*
X75500739Y-119401249D01*
X75501100Y-119408600D01*
X75501100Y-119558600D01*
X75500739Y-119565951D01*
X75499659Y-119573232D01*
X75497871Y-119580371D01*
X75495391Y-119587301D01*
X75492244Y-119593955D01*
X75488460Y-119600268D01*
X75484076Y-119606179D01*
X75479133Y-119611633D01*
X75473679Y-119616576D01*
X75467768Y-119620960D01*
X75461455Y-119624744D01*
X75454801Y-119627891D01*
X75447871Y-119630371D01*
X75440732Y-119632159D01*
X75433451Y-119633239D01*
X75426100Y-119633600D01*
X74876100Y-119633600D01*
X74868749Y-119633239D01*
X74861468Y-119632159D01*
X74854329Y-119630371D01*
X74847399Y-119627891D01*
X74840745Y-119624744D01*
X74834432Y-119620960D01*
X74828521Y-119616576D01*
X74823067Y-119611633D01*
X74818124Y-119606179D01*
X74813740Y-119600268D01*
X74809956Y-119593955D01*
X74806809Y-119587301D01*
X74804329Y-119580371D01*
X74802541Y-119573232D01*
X74801461Y-119565951D01*
X74801100Y-119558600D01*
X74801100Y-119408600D01*
X74801461Y-119401249D01*
X74802541Y-119393968D01*
X74804329Y-119386829D01*
X74806809Y-119379899D01*
X74809956Y-119373245D01*
X74813740Y-119366932D01*
X74818124Y-119361021D01*
X74823067Y-119355567D01*
X74828521Y-119350624D01*
X74834432Y-119346240D01*
X74840745Y-119342456D01*
X74847399Y-119339309D01*
X74854329Y-119336829D01*
X74861468Y-119335041D01*
X74868749Y-119333961D01*
X74876100Y-119333600D01*
X75426100Y-119333600D01*
X75433451Y-119333961D01*
X75433451Y-119333961D01*
G37*
D23*
X75151100Y-119483600D03*
D22*
G36*
X75433451Y-118833961D02*
G01*
X75440732Y-118835041D01*
X75447871Y-118836829D01*
X75454801Y-118839309D01*
X75461455Y-118842456D01*
X75467768Y-118846240D01*
X75473679Y-118850624D01*
X75479133Y-118855567D01*
X75484076Y-118861021D01*
X75488460Y-118866932D01*
X75492244Y-118873245D01*
X75495391Y-118879899D01*
X75497871Y-118886829D01*
X75499659Y-118893968D01*
X75500739Y-118901249D01*
X75501100Y-118908600D01*
X75501100Y-119058600D01*
X75500739Y-119065951D01*
X75499659Y-119073232D01*
X75497871Y-119080371D01*
X75495391Y-119087301D01*
X75492244Y-119093955D01*
X75488460Y-119100268D01*
X75484076Y-119106179D01*
X75479133Y-119111633D01*
X75473679Y-119116576D01*
X75467768Y-119120960D01*
X75461455Y-119124744D01*
X75454801Y-119127891D01*
X75447871Y-119130371D01*
X75440732Y-119132159D01*
X75433451Y-119133239D01*
X75426100Y-119133600D01*
X74876100Y-119133600D01*
X74868749Y-119133239D01*
X74861468Y-119132159D01*
X74854329Y-119130371D01*
X74847399Y-119127891D01*
X74840745Y-119124744D01*
X74834432Y-119120960D01*
X74828521Y-119116576D01*
X74823067Y-119111633D01*
X74818124Y-119106179D01*
X74813740Y-119100268D01*
X74809956Y-119093955D01*
X74806809Y-119087301D01*
X74804329Y-119080371D01*
X74802541Y-119073232D01*
X74801461Y-119065951D01*
X74801100Y-119058600D01*
X74801100Y-118908600D01*
X74801461Y-118901249D01*
X74802541Y-118893968D01*
X74804329Y-118886829D01*
X74806809Y-118879899D01*
X74809956Y-118873245D01*
X74813740Y-118866932D01*
X74818124Y-118861021D01*
X74823067Y-118855567D01*
X74828521Y-118850624D01*
X74834432Y-118846240D01*
X74840745Y-118842456D01*
X74847399Y-118839309D01*
X74854329Y-118836829D01*
X74861468Y-118835041D01*
X74868749Y-118833961D01*
X74876100Y-118833600D01*
X75426100Y-118833600D01*
X75433451Y-118833961D01*
X75433451Y-118833961D01*
G37*
D23*
X75151100Y-118983600D03*
D22*
G36*
X75433451Y-118333961D02*
G01*
X75440732Y-118335041D01*
X75447871Y-118336829D01*
X75454801Y-118339309D01*
X75461455Y-118342456D01*
X75467768Y-118346240D01*
X75473679Y-118350624D01*
X75479133Y-118355567D01*
X75484076Y-118361021D01*
X75488460Y-118366932D01*
X75492244Y-118373245D01*
X75495391Y-118379899D01*
X75497871Y-118386829D01*
X75499659Y-118393968D01*
X75500739Y-118401249D01*
X75501100Y-118408600D01*
X75501100Y-118558600D01*
X75500739Y-118565951D01*
X75499659Y-118573232D01*
X75497871Y-118580371D01*
X75495391Y-118587301D01*
X75492244Y-118593955D01*
X75488460Y-118600268D01*
X75484076Y-118606179D01*
X75479133Y-118611633D01*
X75473679Y-118616576D01*
X75467768Y-118620960D01*
X75461455Y-118624744D01*
X75454801Y-118627891D01*
X75447871Y-118630371D01*
X75440732Y-118632159D01*
X75433451Y-118633239D01*
X75426100Y-118633600D01*
X74876100Y-118633600D01*
X74868749Y-118633239D01*
X74861468Y-118632159D01*
X74854329Y-118630371D01*
X74847399Y-118627891D01*
X74840745Y-118624744D01*
X74834432Y-118620960D01*
X74828521Y-118616576D01*
X74823067Y-118611633D01*
X74818124Y-118606179D01*
X74813740Y-118600268D01*
X74809956Y-118593955D01*
X74806809Y-118587301D01*
X74804329Y-118580371D01*
X74802541Y-118573232D01*
X74801461Y-118565951D01*
X74801100Y-118558600D01*
X74801100Y-118408600D01*
X74801461Y-118401249D01*
X74802541Y-118393968D01*
X74804329Y-118386829D01*
X74806809Y-118379899D01*
X74809956Y-118373245D01*
X74813740Y-118366932D01*
X74818124Y-118361021D01*
X74823067Y-118355567D01*
X74828521Y-118350624D01*
X74834432Y-118346240D01*
X74840745Y-118342456D01*
X74847399Y-118339309D01*
X74854329Y-118336829D01*
X74861468Y-118335041D01*
X74868749Y-118333961D01*
X74876100Y-118333600D01*
X75426100Y-118333600D01*
X75433451Y-118333961D01*
X75433451Y-118333961D01*
G37*
D23*
X75151100Y-118483600D03*
D22*
G36*
X75433451Y-117833961D02*
G01*
X75440732Y-117835041D01*
X75447871Y-117836829D01*
X75454801Y-117839309D01*
X75461455Y-117842456D01*
X75467768Y-117846240D01*
X75473679Y-117850624D01*
X75479133Y-117855567D01*
X75484076Y-117861021D01*
X75488460Y-117866932D01*
X75492244Y-117873245D01*
X75495391Y-117879899D01*
X75497871Y-117886829D01*
X75499659Y-117893968D01*
X75500739Y-117901249D01*
X75501100Y-117908600D01*
X75501100Y-118058600D01*
X75500739Y-118065951D01*
X75499659Y-118073232D01*
X75497871Y-118080371D01*
X75495391Y-118087301D01*
X75492244Y-118093955D01*
X75488460Y-118100268D01*
X75484076Y-118106179D01*
X75479133Y-118111633D01*
X75473679Y-118116576D01*
X75467768Y-118120960D01*
X75461455Y-118124744D01*
X75454801Y-118127891D01*
X75447871Y-118130371D01*
X75440732Y-118132159D01*
X75433451Y-118133239D01*
X75426100Y-118133600D01*
X74876100Y-118133600D01*
X74868749Y-118133239D01*
X74861468Y-118132159D01*
X74854329Y-118130371D01*
X74847399Y-118127891D01*
X74840745Y-118124744D01*
X74834432Y-118120960D01*
X74828521Y-118116576D01*
X74823067Y-118111633D01*
X74818124Y-118106179D01*
X74813740Y-118100268D01*
X74809956Y-118093955D01*
X74806809Y-118087301D01*
X74804329Y-118080371D01*
X74802541Y-118073232D01*
X74801461Y-118065951D01*
X74801100Y-118058600D01*
X74801100Y-117908600D01*
X74801461Y-117901249D01*
X74802541Y-117893968D01*
X74804329Y-117886829D01*
X74806809Y-117879899D01*
X74809956Y-117873245D01*
X74813740Y-117866932D01*
X74818124Y-117861021D01*
X74823067Y-117855567D01*
X74828521Y-117850624D01*
X74834432Y-117846240D01*
X74840745Y-117842456D01*
X74847399Y-117839309D01*
X74854329Y-117836829D01*
X74861468Y-117835041D01*
X74868749Y-117833961D01*
X74876100Y-117833600D01*
X75426100Y-117833600D01*
X75433451Y-117833961D01*
X75433451Y-117833961D01*
G37*
D23*
X75151100Y-117983600D03*
D22*
G36*
X75433451Y-117333961D02*
G01*
X75440732Y-117335041D01*
X75447871Y-117336829D01*
X75454801Y-117339309D01*
X75461455Y-117342456D01*
X75467768Y-117346240D01*
X75473679Y-117350624D01*
X75479133Y-117355567D01*
X75484076Y-117361021D01*
X75488460Y-117366932D01*
X75492244Y-117373245D01*
X75495391Y-117379899D01*
X75497871Y-117386829D01*
X75499659Y-117393968D01*
X75500739Y-117401249D01*
X75501100Y-117408600D01*
X75501100Y-117558600D01*
X75500739Y-117565951D01*
X75499659Y-117573232D01*
X75497871Y-117580371D01*
X75495391Y-117587301D01*
X75492244Y-117593955D01*
X75488460Y-117600268D01*
X75484076Y-117606179D01*
X75479133Y-117611633D01*
X75473679Y-117616576D01*
X75467768Y-117620960D01*
X75461455Y-117624744D01*
X75454801Y-117627891D01*
X75447871Y-117630371D01*
X75440732Y-117632159D01*
X75433451Y-117633239D01*
X75426100Y-117633600D01*
X74876100Y-117633600D01*
X74868749Y-117633239D01*
X74861468Y-117632159D01*
X74854329Y-117630371D01*
X74847399Y-117627891D01*
X74840745Y-117624744D01*
X74834432Y-117620960D01*
X74828521Y-117616576D01*
X74823067Y-117611633D01*
X74818124Y-117606179D01*
X74813740Y-117600268D01*
X74809956Y-117593955D01*
X74806809Y-117587301D01*
X74804329Y-117580371D01*
X74802541Y-117573232D01*
X74801461Y-117565951D01*
X74801100Y-117558600D01*
X74801100Y-117408600D01*
X74801461Y-117401249D01*
X74802541Y-117393968D01*
X74804329Y-117386829D01*
X74806809Y-117379899D01*
X74809956Y-117373245D01*
X74813740Y-117366932D01*
X74818124Y-117361021D01*
X74823067Y-117355567D01*
X74828521Y-117350624D01*
X74834432Y-117346240D01*
X74840745Y-117342456D01*
X74847399Y-117339309D01*
X74854329Y-117336829D01*
X74861468Y-117335041D01*
X74868749Y-117333961D01*
X74876100Y-117333600D01*
X75426100Y-117333600D01*
X75433451Y-117333961D01*
X75433451Y-117333961D01*
G37*
D23*
X75151100Y-117483600D03*
D22*
G36*
X75833451Y-116533961D02*
G01*
X75840732Y-116535041D01*
X75847871Y-116536829D01*
X75854801Y-116539309D01*
X75861455Y-116542456D01*
X75867768Y-116546240D01*
X75873679Y-116550624D01*
X75879133Y-116555567D01*
X75884076Y-116561021D01*
X75888460Y-116566932D01*
X75892244Y-116573245D01*
X75895391Y-116579899D01*
X75897871Y-116586829D01*
X75899659Y-116593968D01*
X75900739Y-116601249D01*
X75901100Y-116608600D01*
X75901100Y-117158600D01*
X75900739Y-117165951D01*
X75899659Y-117173232D01*
X75897871Y-117180371D01*
X75895391Y-117187301D01*
X75892244Y-117193955D01*
X75888460Y-117200268D01*
X75884076Y-117206179D01*
X75879133Y-117211633D01*
X75873679Y-117216576D01*
X75867768Y-117220960D01*
X75861455Y-117224744D01*
X75854801Y-117227891D01*
X75847871Y-117230371D01*
X75840732Y-117232159D01*
X75833451Y-117233239D01*
X75826100Y-117233600D01*
X75676100Y-117233600D01*
X75668749Y-117233239D01*
X75661468Y-117232159D01*
X75654329Y-117230371D01*
X75647399Y-117227891D01*
X75640745Y-117224744D01*
X75634432Y-117220960D01*
X75628521Y-117216576D01*
X75623067Y-117211633D01*
X75618124Y-117206179D01*
X75613740Y-117200268D01*
X75609956Y-117193955D01*
X75606809Y-117187301D01*
X75604329Y-117180371D01*
X75602541Y-117173232D01*
X75601461Y-117165951D01*
X75601100Y-117158600D01*
X75601100Y-116608600D01*
X75601461Y-116601249D01*
X75602541Y-116593968D01*
X75604329Y-116586829D01*
X75606809Y-116579899D01*
X75609956Y-116573245D01*
X75613740Y-116566932D01*
X75618124Y-116561021D01*
X75623067Y-116555567D01*
X75628521Y-116550624D01*
X75634432Y-116546240D01*
X75640745Y-116542456D01*
X75647399Y-116539309D01*
X75654329Y-116536829D01*
X75661468Y-116535041D01*
X75668749Y-116533961D01*
X75676100Y-116533600D01*
X75826100Y-116533600D01*
X75833451Y-116533961D01*
X75833451Y-116533961D01*
G37*
D23*
X75751100Y-116883600D03*
D22*
G36*
X76333451Y-116533961D02*
G01*
X76340732Y-116535041D01*
X76347871Y-116536829D01*
X76354801Y-116539309D01*
X76361455Y-116542456D01*
X76367768Y-116546240D01*
X76373679Y-116550624D01*
X76379133Y-116555567D01*
X76384076Y-116561021D01*
X76388460Y-116566932D01*
X76392244Y-116573245D01*
X76395391Y-116579899D01*
X76397871Y-116586829D01*
X76399659Y-116593968D01*
X76400739Y-116601249D01*
X76401100Y-116608600D01*
X76401100Y-117158600D01*
X76400739Y-117165951D01*
X76399659Y-117173232D01*
X76397871Y-117180371D01*
X76395391Y-117187301D01*
X76392244Y-117193955D01*
X76388460Y-117200268D01*
X76384076Y-117206179D01*
X76379133Y-117211633D01*
X76373679Y-117216576D01*
X76367768Y-117220960D01*
X76361455Y-117224744D01*
X76354801Y-117227891D01*
X76347871Y-117230371D01*
X76340732Y-117232159D01*
X76333451Y-117233239D01*
X76326100Y-117233600D01*
X76176100Y-117233600D01*
X76168749Y-117233239D01*
X76161468Y-117232159D01*
X76154329Y-117230371D01*
X76147399Y-117227891D01*
X76140745Y-117224744D01*
X76134432Y-117220960D01*
X76128521Y-117216576D01*
X76123067Y-117211633D01*
X76118124Y-117206179D01*
X76113740Y-117200268D01*
X76109956Y-117193955D01*
X76106809Y-117187301D01*
X76104329Y-117180371D01*
X76102541Y-117173232D01*
X76101461Y-117165951D01*
X76101100Y-117158600D01*
X76101100Y-116608600D01*
X76101461Y-116601249D01*
X76102541Y-116593968D01*
X76104329Y-116586829D01*
X76106809Y-116579899D01*
X76109956Y-116573245D01*
X76113740Y-116566932D01*
X76118124Y-116561021D01*
X76123067Y-116555567D01*
X76128521Y-116550624D01*
X76134432Y-116546240D01*
X76140745Y-116542456D01*
X76147399Y-116539309D01*
X76154329Y-116536829D01*
X76161468Y-116535041D01*
X76168749Y-116533961D01*
X76176100Y-116533600D01*
X76326100Y-116533600D01*
X76333451Y-116533961D01*
X76333451Y-116533961D01*
G37*
D23*
X76251100Y-116883600D03*
D22*
G36*
X76833451Y-116533961D02*
G01*
X76840732Y-116535041D01*
X76847871Y-116536829D01*
X76854801Y-116539309D01*
X76861455Y-116542456D01*
X76867768Y-116546240D01*
X76873679Y-116550624D01*
X76879133Y-116555567D01*
X76884076Y-116561021D01*
X76888460Y-116566932D01*
X76892244Y-116573245D01*
X76895391Y-116579899D01*
X76897871Y-116586829D01*
X76899659Y-116593968D01*
X76900739Y-116601249D01*
X76901100Y-116608600D01*
X76901100Y-117158600D01*
X76900739Y-117165951D01*
X76899659Y-117173232D01*
X76897871Y-117180371D01*
X76895391Y-117187301D01*
X76892244Y-117193955D01*
X76888460Y-117200268D01*
X76884076Y-117206179D01*
X76879133Y-117211633D01*
X76873679Y-117216576D01*
X76867768Y-117220960D01*
X76861455Y-117224744D01*
X76854801Y-117227891D01*
X76847871Y-117230371D01*
X76840732Y-117232159D01*
X76833451Y-117233239D01*
X76826100Y-117233600D01*
X76676100Y-117233600D01*
X76668749Y-117233239D01*
X76661468Y-117232159D01*
X76654329Y-117230371D01*
X76647399Y-117227891D01*
X76640745Y-117224744D01*
X76634432Y-117220960D01*
X76628521Y-117216576D01*
X76623067Y-117211633D01*
X76618124Y-117206179D01*
X76613740Y-117200268D01*
X76609956Y-117193955D01*
X76606809Y-117187301D01*
X76604329Y-117180371D01*
X76602541Y-117173232D01*
X76601461Y-117165951D01*
X76601100Y-117158600D01*
X76601100Y-116608600D01*
X76601461Y-116601249D01*
X76602541Y-116593968D01*
X76604329Y-116586829D01*
X76606809Y-116579899D01*
X76609956Y-116573245D01*
X76613740Y-116566932D01*
X76618124Y-116561021D01*
X76623067Y-116555567D01*
X76628521Y-116550624D01*
X76634432Y-116546240D01*
X76640745Y-116542456D01*
X76647399Y-116539309D01*
X76654329Y-116536829D01*
X76661468Y-116535041D01*
X76668749Y-116533961D01*
X76676100Y-116533600D01*
X76826100Y-116533600D01*
X76833451Y-116533961D01*
X76833451Y-116533961D01*
G37*
D23*
X76751100Y-116883600D03*
D22*
G36*
X77333451Y-116533961D02*
G01*
X77340732Y-116535041D01*
X77347871Y-116536829D01*
X77354801Y-116539309D01*
X77361455Y-116542456D01*
X77367768Y-116546240D01*
X77373679Y-116550624D01*
X77379133Y-116555567D01*
X77384076Y-116561021D01*
X77388460Y-116566932D01*
X77392244Y-116573245D01*
X77395391Y-116579899D01*
X77397871Y-116586829D01*
X77399659Y-116593968D01*
X77400739Y-116601249D01*
X77401100Y-116608600D01*
X77401100Y-117158600D01*
X77400739Y-117165951D01*
X77399659Y-117173232D01*
X77397871Y-117180371D01*
X77395391Y-117187301D01*
X77392244Y-117193955D01*
X77388460Y-117200268D01*
X77384076Y-117206179D01*
X77379133Y-117211633D01*
X77373679Y-117216576D01*
X77367768Y-117220960D01*
X77361455Y-117224744D01*
X77354801Y-117227891D01*
X77347871Y-117230371D01*
X77340732Y-117232159D01*
X77333451Y-117233239D01*
X77326100Y-117233600D01*
X77176100Y-117233600D01*
X77168749Y-117233239D01*
X77161468Y-117232159D01*
X77154329Y-117230371D01*
X77147399Y-117227891D01*
X77140745Y-117224744D01*
X77134432Y-117220960D01*
X77128521Y-117216576D01*
X77123067Y-117211633D01*
X77118124Y-117206179D01*
X77113740Y-117200268D01*
X77109956Y-117193955D01*
X77106809Y-117187301D01*
X77104329Y-117180371D01*
X77102541Y-117173232D01*
X77101461Y-117165951D01*
X77101100Y-117158600D01*
X77101100Y-116608600D01*
X77101461Y-116601249D01*
X77102541Y-116593968D01*
X77104329Y-116586829D01*
X77106809Y-116579899D01*
X77109956Y-116573245D01*
X77113740Y-116566932D01*
X77118124Y-116561021D01*
X77123067Y-116555567D01*
X77128521Y-116550624D01*
X77134432Y-116546240D01*
X77140745Y-116542456D01*
X77147399Y-116539309D01*
X77154329Y-116536829D01*
X77161468Y-116535041D01*
X77168749Y-116533961D01*
X77176100Y-116533600D01*
X77326100Y-116533600D01*
X77333451Y-116533961D01*
X77333451Y-116533961D01*
G37*
D23*
X77251100Y-116883600D03*
D22*
G36*
X77833451Y-116533961D02*
G01*
X77840732Y-116535041D01*
X77847871Y-116536829D01*
X77854801Y-116539309D01*
X77861455Y-116542456D01*
X77867768Y-116546240D01*
X77873679Y-116550624D01*
X77879133Y-116555567D01*
X77884076Y-116561021D01*
X77888460Y-116566932D01*
X77892244Y-116573245D01*
X77895391Y-116579899D01*
X77897871Y-116586829D01*
X77899659Y-116593968D01*
X77900739Y-116601249D01*
X77901100Y-116608600D01*
X77901100Y-117158600D01*
X77900739Y-117165951D01*
X77899659Y-117173232D01*
X77897871Y-117180371D01*
X77895391Y-117187301D01*
X77892244Y-117193955D01*
X77888460Y-117200268D01*
X77884076Y-117206179D01*
X77879133Y-117211633D01*
X77873679Y-117216576D01*
X77867768Y-117220960D01*
X77861455Y-117224744D01*
X77854801Y-117227891D01*
X77847871Y-117230371D01*
X77840732Y-117232159D01*
X77833451Y-117233239D01*
X77826100Y-117233600D01*
X77676100Y-117233600D01*
X77668749Y-117233239D01*
X77661468Y-117232159D01*
X77654329Y-117230371D01*
X77647399Y-117227891D01*
X77640745Y-117224744D01*
X77634432Y-117220960D01*
X77628521Y-117216576D01*
X77623067Y-117211633D01*
X77618124Y-117206179D01*
X77613740Y-117200268D01*
X77609956Y-117193955D01*
X77606809Y-117187301D01*
X77604329Y-117180371D01*
X77602541Y-117173232D01*
X77601461Y-117165951D01*
X77601100Y-117158600D01*
X77601100Y-116608600D01*
X77601461Y-116601249D01*
X77602541Y-116593968D01*
X77604329Y-116586829D01*
X77606809Y-116579899D01*
X77609956Y-116573245D01*
X77613740Y-116566932D01*
X77618124Y-116561021D01*
X77623067Y-116555567D01*
X77628521Y-116550624D01*
X77634432Y-116546240D01*
X77640745Y-116542456D01*
X77647399Y-116539309D01*
X77654329Y-116536829D01*
X77661468Y-116535041D01*
X77668749Y-116533961D01*
X77676100Y-116533600D01*
X77826100Y-116533600D01*
X77833451Y-116533961D01*
X77833451Y-116533961D01*
G37*
D23*
X77751100Y-116883600D03*
D22*
G36*
X78333451Y-116533961D02*
G01*
X78340732Y-116535041D01*
X78347871Y-116536829D01*
X78354801Y-116539309D01*
X78361455Y-116542456D01*
X78367768Y-116546240D01*
X78373679Y-116550624D01*
X78379133Y-116555567D01*
X78384076Y-116561021D01*
X78388460Y-116566932D01*
X78392244Y-116573245D01*
X78395391Y-116579899D01*
X78397871Y-116586829D01*
X78399659Y-116593968D01*
X78400739Y-116601249D01*
X78401100Y-116608600D01*
X78401100Y-117158600D01*
X78400739Y-117165951D01*
X78399659Y-117173232D01*
X78397871Y-117180371D01*
X78395391Y-117187301D01*
X78392244Y-117193955D01*
X78388460Y-117200268D01*
X78384076Y-117206179D01*
X78379133Y-117211633D01*
X78373679Y-117216576D01*
X78367768Y-117220960D01*
X78361455Y-117224744D01*
X78354801Y-117227891D01*
X78347871Y-117230371D01*
X78340732Y-117232159D01*
X78333451Y-117233239D01*
X78326100Y-117233600D01*
X78176100Y-117233600D01*
X78168749Y-117233239D01*
X78161468Y-117232159D01*
X78154329Y-117230371D01*
X78147399Y-117227891D01*
X78140745Y-117224744D01*
X78134432Y-117220960D01*
X78128521Y-117216576D01*
X78123067Y-117211633D01*
X78118124Y-117206179D01*
X78113740Y-117200268D01*
X78109956Y-117193955D01*
X78106809Y-117187301D01*
X78104329Y-117180371D01*
X78102541Y-117173232D01*
X78101461Y-117165951D01*
X78101100Y-117158600D01*
X78101100Y-116608600D01*
X78101461Y-116601249D01*
X78102541Y-116593968D01*
X78104329Y-116586829D01*
X78106809Y-116579899D01*
X78109956Y-116573245D01*
X78113740Y-116566932D01*
X78118124Y-116561021D01*
X78123067Y-116555567D01*
X78128521Y-116550624D01*
X78134432Y-116546240D01*
X78140745Y-116542456D01*
X78147399Y-116539309D01*
X78154329Y-116536829D01*
X78161468Y-116535041D01*
X78168749Y-116533961D01*
X78176100Y-116533600D01*
X78326100Y-116533600D01*
X78333451Y-116533961D01*
X78333451Y-116533961D01*
G37*
D23*
X78251100Y-116883600D03*
D22*
G36*
X78833451Y-116533961D02*
G01*
X78840732Y-116535041D01*
X78847871Y-116536829D01*
X78854801Y-116539309D01*
X78861455Y-116542456D01*
X78867768Y-116546240D01*
X78873679Y-116550624D01*
X78879133Y-116555567D01*
X78884076Y-116561021D01*
X78888460Y-116566932D01*
X78892244Y-116573245D01*
X78895391Y-116579899D01*
X78897871Y-116586829D01*
X78899659Y-116593968D01*
X78900739Y-116601249D01*
X78901100Y-116608600D01*
X78901100Y-117158600D01*
X78900739Y-117165951D01*
X78899659Y-117173232D01*
X78897871Y-117180371D01*
X78895391Y-117187301D01*
X78892244Y-117193955D01*
X78888460Y-117200268D01*
X78884076Y-117206179D01*
X78879133Y-117211633D01*
X78873679Y-117216576D01*
X78867768Y-117220960D01*
X78861455Y-117224744D01*
X78854801Y-117227891D01*
X78847871Y-117230371D01*
X78840732Y-117232159D01*
X78833451Y-117233239D01*
X78826100Y-117233600D01*
X78676100Y-117233600D01*
X78668749Y-117233239D01*
X78661468Y-117232159D01*
X78654329Y-117230371D01*
X78647399Y-117227891D01*
X78640745Y-117224744D01*
X78634432Y-117220960D01*
X78628521Y-117216576D01*
X78623067Y-117211633D01*
X78618124Y-117206179D01*
X78613740Y-117200268D01*
X78609956Y-117193955D01*
X78606809Y-117187301D01*
X78604329Y-117180371D01*
X78602541Y-117173232D01*
X78601461Y-117165951D01*
X78601100Y-117158600D01*
X78601100Y-116608600D01*
X78601461Y-116601249D01*
X78602541Y-116593968D01*
X78604329Y-116586829D01*
X78606809Y-116579899D01*
X78609956Y-116573245D01*
X78613740Y-116566932D01*
X78618124Y-116561021D01*
X78623067Y-116555567D01*
X78628521Y-116550624D01*
X78634432Y-116546240D01*
X78640745Y-116542456D01*
X78647399Y-116539309D01*
X78654329Y-116536829D01*
X78661468Y-116535041D01*
X78668749Y-116533961D01*
X78676100Y-116533600D01*
X78826100Y-116533600D01*
X78833451Y-116533961D01*
X78833451Y-116533961D01*
G37*
D23*
X78751100Y-116883600D03*
D22*
G36*
X79333451Y-116533961D02*
G01*
X79340732Y-116535041D01*
X79347871Y-116536829D01*
X79354801Y-116539309D01*
X79361455Y-116542456D01*
X79367768Y-116546240D01*
X79373679Y-116550624D01*
X79379133Y-116555567D01*
X79384076Y-116561021D01*
X79388460Y-116566932D01*
X79392244Y-116573245D01*
X79395391Y-116579899D01*
X79397871Y-116586829D01*
X79399659Y-116593968D01*
X79400739Y-116601249D01*
X79401100Y-116608600D01*
X79401100Y-117158600D01*
X79400739Y-117165951D01*
X79399659Y-117173232D01*
X79397871Y-117180371D01*
X79395391Y-117187301D01*
X79392244Y-117193955D01*
X79388460Y-117200268D01*
X79384076Y-117206179D01*
X79379133Y-117211633D01*
X79373679Y-117216576D01*
X79367768Y-117220960D01*
X79361455Y-117224744D01*
X79354801Y-117227891D01*
X79347871Y-117230371D01*
X79340732Y-117232159D01*
X79333451Y-117233239D01*
X79326100Y-117233600D01*
X79176100Y-117233600D01*
X79168749Y-117233239D01*
X79161468Y-117232159D01*
X79154329Y-117230371D01*
X79147399Y-117227891D01*
X79140745Y-117224744D01*
X79134432Y-117220960D01*
X79128521Y-117216576D01*
X79123067Y-117211633D01*
X79118124Y-117206179D01*
X79113740Y-117200268D01*
X79109956Y-117193955D01*
X79106809Y-117187301D01*
X79104329Y-117180371D01*
X79102541Y-117173232D01*
X79101461Y-117165951D01*
X79101100Y-117158600D01*
X79101100Y-116608600D01*
X79101461Y-116601249D01*
X79102541Y-116593968D01*
X79104329Y-116586829D01*
X79106809Y-116579899D01*
X79109956Y-116573245D01*
X79113740Y-116566932D01*
X79118124Y-116561021D01*
X79123067Y-116555567D01*
X79128521Y-116550624D01*
X79134432Y-116546240D01*
X79140745Y-116542456D01*
X79147399Y-116539309D01*
X79154329Y-116536829D01*
X79161468Y-116535041D01*
X79168749Y-116533961D01*
X79176100Y-116533600D01*
X79326100Y-116533600D01*
X79333451Y-116533961D01*
X79333451Y-116533961D01*
G37*
D23*
X79251100Y-116883600D03*
D22*
G36*
X80133451Y-117333961D02*
G01*
X80140732Y-117335041D01*
X80147871Y-117336829D01*
X80154801Y-117339309D01*
X80161455Y-117342456D01*
X80167768Y-117346240D01*
X80173679Y-117350624D01*
X80179133Y-117355567D01*
X80184076Y-117361021D01*
X80188460Y-117366932D01*
X80192244Y-117373245D01*
X80195391Y-117379899D01*
X80197871Y-117386829D01*
X80199659Y-117393968D01*
X80200739Y-117401249D01*
X80201100Y-117408600D01*
X80201100Y-117558600D01*
X80200739Y-117565951D01*
X80199659Y-117573232D01*
X80197871Y-117580371D01*
X80195391Y-117587301D01*
X80192244Y-117593955D01*
X80188460Y-117600268D01*
X80184076Y-117606179D01*
X80179133Y-117611633D01*
X80173679Y-117616576D01*
X80167768Y-117620960D01*
X80161455Y-117624744D01*
X80154801Y-117627891D01*
X80147871Y-117630371D01*
X80140732Y-117632159D01*
X80133451Y-117633239D01*
X80126100Y-117633600D01*
X79576100Y-117633600D01*
X79568749Y-117633239D01*
X79561468Y-117632159D01*
X79554329Y-117630371D01*
X79547399Y-117627891D01*
X79540745Y-117624744D01*
X79534432Y-117620960D01*
X79528521Y-117616576D01*
X79523067Y-117611633D01*
X79518124Y-117606179D01*
X79513740Y-117600268D01*
X79509956Y-117593955D01*
X79506809Y-117587301D01*
X79504329Y-117580371D01*
X79502541Y-117573232D01*
X79501461Y-117565951D01*
X79501100Y-117558600D01*
X79501100Y-117408600D01*
X79501461Y-117401249D01*
X79502541Y-117393968D01*
X79504329Y-117386829D01*
X79506809Y-117379899D01*
X79509956Y-117373245D01*
X79513740Y-117366932D01*
X79518124Y-117361021D01*
X79523067Y-117355567D01*
X79528521Y-117350624D01*
X79534432Y-117346240D01*
X79540745Y-117342456D01*
X79547399Y-117339309D01*
X79554329Y-117336829D01*
X79561468Y-117335041D01*
X79568749Y-117333961D01*
X79576100Y-117333600D01*
X80126100Y-117333600D01*
X80133451Y-117333961D01*
X80133451Y-117333961D01*
G37*
D23*
X79851100Y-117483600D03*
D22*
G36*
X80133451Y-117833961D02*
G01*
X80140732Y-117835041D01*
X80147871Y-117836829D01*
X80154801Y-117839309D01*
X80161455Y-117842456D01*
X80167768Y-117846240D01*
X80173679Y-117850624D01*
X80179133Y-117855567D01*
X80184076Y-117861021D01*
X80188460Y-117866932D01*
X80192244Y-117873245D01*
X80195391Y-117879899D01*
X80197871Y-117886829D01*
X80199659Y-117893968D01*
X80200739Y-117901249D01*
X80201100Y-117908600D01*
X80201100Y-118058600D01*
X80200739Y-118065951D01*
X80199659Y-118073232D01*
X80197871Y-118080371D01*
X80195391Y-118087301D01*
X80192244Y-118093955D01*
X80188460Y-118100268D01*
X80184076Y-118106179D01*
X80179133Y-118111633D01*
X80173679Y-118116576D01*
X80167768Y-118120960D01*
X80161455Y-118124744D01*
X80154801Y-118127891D01*
X80147871Y-118130371D01*
X80140732Y-118132159D01*
X80133451Y-118133239D01*
X80126100Y-118133600D01*
X79576100Y-118133600D01*
X79568749Y-118133239D01*
X79561468Y-118132159D01*
X79554329Y-118130371D01*
X79547399Y-118127891D01*
X79540745Y-118124744D01*
X79534432Y-118120960D01*
X79528521Y-118116576D01*
X79523067Y-118111633D01*
X79518124Y-118106179D01*
X79513740Y-118100268D01*
X79509956Y-118093955D01*
X79506809Y-118087301D01*
X79504329Y-118080371D01*
X79502541Y-118073232D01*
X79501461Y-118065951D01*
X79501100Y-118058600D01*
X79501100Y-117908600D01*
X79501461Y-117901249D01*
X79502541Y-117893968D01*
X79504329Y-117886829D01*
X79506809Y-117879899D01*
X79509956Y-117873245D01*
X79513740Y-117866932D01*
X79518124Y-117861021D01*
X79523067Y-117855567D01*
X79528521Y-117850624D01*
X79534432Y-117846240D01*
X79540745Y-117842456D01*
X79547399Y-117839309D01*
X79554329Y-117836829D01*
X79561468Y-117835041D01*
X79568749Y-117833961D01*
X79576100Y-117833600D01*
X80126100Y-117833600D01*
X80133451Y-117833961D01*
X80133451Y-117833961D01*
G37*
D23*
X79851100Y-117983600D03*
D22*
G36*
X80133451Y-118333961D02*
G01*
X80140732Y-118335041D01*
X80147871Y-118336829D01*
X80154801Y-118339309D01*
X80161455Y-118342456D01*
X80167768Y-118346240D01*
X80173679Y-118350624D01*
X80179133Y-118355567D01*
X80184076Y-118361021D01*
X80188460Y-118366932D01*
X80192244Y-118373245D01*
X80195391Y-118379899D01*
X80197871Y-118386829D01*
X80199659Y-118393968D01*
X80200739Y-118401249D01*
X80201100Y-118408600D01*
X80201100Y-118558600D01*
X80200739Y-118565951D01*
X80199659Y-118573232D01*
X80197871Y-118580371D01*
X80195391Y-118587301D01*
X80192244Y-118593955D01*
X80188460Y-118600268D01*
X80184076Y-118606179D01*
X80179133Y-118611633D01*
X80173679Y-118616576D01*
X80167768Y-118620960D01*
X80161455Y-118624744D01*
X80154801Y-118627891D01*
X80147871Y-118630371D01*
X80140732Y-118632159D01*
X80133451Y-118633239D01*
X80126100Y-118633600D01*
X79576100Y-118633600D01*
X79568749Y-118633239D01*
X79561468Y-118632159D01*
X79554329Y-118630371D01*
X79547399Y-118627891D01*
X79540745Y-118624744D01*
X79534432Y-118620960D01*
X79528521Y-118616576D01*
X79523067Y-118611633D01*
X79518124Y-118606179D01*
X79513740Y-118600268D01*
X79509956Y-118593955D01*
X79506809Y-118587301D01*
X79504329Y-118580371D01*
X79502541Y-118573232D01*
X79501461Y-118565951D01*
X79501100Y-118558600D01*
X79501100Y-118408600D01*
X79501461Y-118401249D01*
X79502541Y-118393968D01*
X79504329Y-118386829D01*
X79506809Y-118379899D01*
X79509956Y-118373245D01*
X79513740Y-118366932D01*
X79518124Y-118361021D01*
X79523067Y-118355567D01*
X79528521Y-118350624D01*
X79534432Y-118346240D01*
X79540745Y-118342456D01*
X79547399Y-118339309D01*
X79554329Y-118336829D01*
X79561468Y-118335041D01*
X79568749Y-118333961D01*
X79576100Y-118333600D01*
X80126100Y-118333600D01*
X80133451Y-118333961D01*
X80133451Y-118333961D01*
G37*
D23*
X79851100Y-118483600D03*
D22*
G36*
X80133451Y-118833961D02*
G01*
X80140732Y-118835041D01*
X80147871Y-118836829D01*
X80154801Y-118839309D01*
X80161455Y-118842456D01*
X80167768Y-118846240D01*
X80173679Y-118850624D01*
X80179133Y-118855567D01*
X80184076Y-118861021D01*
X80188460Y-118866932D01*
X80192244Y-118873245D01*
X80195391Y-118879899D01*
X80197871Y-118886829D01*
X80199659Y-118893968D01*
X80200739Y-118901249D01*
X80201100Y-118908600D01*
X80201100Y-119058600D01*
X80200739Y-119065951D01*
X80199659Y-119073232D01*
X80197871Y-119080371D01*
X80195391Y-119087301D01*
X80192244Y-119093955D01*
X80188460Y-119100268D01*
X80184076Y-119106179D01*
X80179133Y-119111633D01*
X80173679Y-119116576D01*
X80167768Y-119120960D01*
X80161455Y-119124744D01*
X80154801Y-119127891D01*
X80147871Y-119130371D01*
X80140732Y-119132159D01*
X80133451Y-119133239D01*
X80126100Y-119133600D01*
X79576100Y-119133600D01*
X79568749Y-119133239D01*
X79561468Y-119132159D01*
X79554329Y-119130371D01*
X79547399Y-119127891D01*
X79540745Y-119124744D01*
X79534432Y-119120960D01*
X79528521Y-119116576D01*
X79523067Y-119111633D01*
X79518124Y-119106179D01*
X79513740Y-119100268D01*
X79509956Y-119093955D01*
X79506809Y-119087301D01*
X79504329Y-119080371D01*
X79502541Y-119073232D01*
X79501461Y-119065951D01*
X79501100Y-119058600D01*
X79501100Y-118908600D01*
X79501461Y-118901249D01*
X79502541Y-118893968D01*
X79504329Y-118886829D01*
X79506809Y-118879899D01*
X79509956Y-118873245D01*
X79513740Y-118866932D01*
X79518124Y-118861021D01*
X79523067Y-118855567D01*
X79528521Y-118850624D01*
X79534432Y-118846240D01*
X79540745Y-118842456D01*
X79547399Y-118839309D01*
X79554329Y-118836829D01*
X79561468Y-118835041D01*
X79568749Y-118833961D01*
X79576100Y-118833600D01*
X80126100Y-118833600D01*
X80133451Y-118833961D01*
X80133451Y-118833961D01*
G37*
D23*
X79851100Y-118983600D03*
D22*
G36*
X80133451Y-119333961D02*
G01*
X80140732Y-119335041D01*
X80147871Y-119336829D01*
X80154801Y-119339309D01*
X80161455Y-119342456D01*
X80167768Y-119346240D01*
X80173679Y-119350624D01*
X80179133Y-119355567D01*
X80184076Y-119361021D01*
X80188460Y-119366932D01*
X80192244Y-119373245D01*
X80195391Y-119379899D01*
X80197871Y-119386829D01*
X80199659Y-119393968D01*
X80200739Y-119401249D01*
X80201100Y-119408600D01*
X80201100Y-119558600D01*
X80200739Y-119565951D01*
X80199659Y-119573232D01*
X80197871Y-119580371D01*
X80195391Y-119587301D01*
X80192244Y-119593955D01*
X80188460Y-119600268D01*
X80184076Y-119606179D01*
X80179133Y-119611633D01*
X80173679Y-119616576D01*
X80167768Y-119620960D01*
X80161455Y-119624744D01*
X80154801Y-119627891D01*
X80147871Y-119630371D01*
X80140732Y-119632159D01*
X80133451Y-119633239D01*
X80126100Y-119633600D01*
X79576100Y-119633600D01*
X79568749Y-119633239D01*
X79561468Y-119632159D01*
X79554329Y-119630371D01*
X79547399Y-119627891D01*
X79540745Y-119624744D01*
X79534432Y-119620960D01*
X79528521Y-119616576D01*
X79523067Y-119611633D01*
X79518124Y-119606179D01*
X79513740Y-119600268D01*
X79509956Y-119593955D01*
X79506809Y-119587301D01*
X79504329Y-119580371D01*
X79502541Y-119573232D01*
X79501461Y-119565951D01*
X79501100Y-119558600D01*
X79501100Y-119408600D01*
X79501461Y-119401249D01*
X79502541Y-119393968D01*
X79504329Y-119386829D01*
X79506809Y-119379899D01*
X79509956Y-119373245D01*
X79513740Y-119366932D01*
X79518124Y-119361021D01*
X79523067Y-119355567D01*
X79528521Y-119350624D01*
X79534432Y-119346240D01*
X79540745Y-119342456D01*
X79547399Y-119339309D01*
X79554329Y-119336829D01*
X79561468Y-119335041D01*
X79568749Y-119333961D01*
X79576100Y-119333600D01*
X80126100Y-119333600D01*
X80133451Y-119333961D01*
X80133451Y-119333961D01*
G37*
D23*
X79851100Y-119483600D03*
D22*
G36*
X80133451Y-119833961D02*
G01*
X80140732Y-119835041D01*
X80147871Y-119836829D01*
X80154801Y-119839309D01*
X80161455Y-119842456D01*
X80167768Y-119846240D01*
X80173679Y-119850624D01*
X80179133Y-119855567D01*
X80184076Y-119861021D01*
X80188460Y-119866932D01*
X80192244Y-119873245D01*
X80195391Y-119879899D01*
X80197871Y-119886829D01*
X80199659Y-119893968D01*
X80200739Y-119901249D01*
X80201100Y-119908600D01*
X80201100Y-120058600D01*
X80200739Y-120065951D01*
X80199659Y-120073232D01*
X80197871Y-120080371D01*
X80195391Y-120087301D01*
X80192244Y-120093955D01*
X80188460Y-120100268D01*
X80184076Y-120106179D01*
X80179133Y-120111633D01*
X80173679Y-120116576D01*
X80167768Y-120120960D01*
X80161455Y-120124744D01*
X80154801Y-120127891D01*
X80147871Y-120130371D01*
X80140732Y-120132159D01*
X80133451Y-120133239D01*
X80126100Y-120133600D01*
X79576100Y-120133600D01*
X79568749Y-120133239D01*
X79561468Y-120132159D01*
X79554329Y-120130371D01*
X79547399Y-120127891D01*
X79540745Y-120124744D01*
X79534432Y-120120960D01*
X79528521Y-120116576D01*
X79523067Y-120111633D01*
X79518124Y-120106179D01*
X79513740Y-120100268D01*
X79509956Y-120093955D01*
X79506809Y-120087301D01*
X79504329Y-120080371D01*
X79502541Y-120073232D01*
X79501461Y-120065951D01*
X79501100Y-120058600D01*
X79501100Y-119908600D01*
X79501461Y-119901249D01*
X79502541Y-119893968D01*
X79504329Y-119886829D01*
X79506809Y-119879899D01*
X79509956Y-119873245D01*
X79513740Y-119866932D01*
X79518124Y-119861021D01*
X79523067Y-119855567D01*
X79528521Y-119850624D01*
X79534432Y-119846240D01*
X79540745Y-119842456D01*
X79547399Y-119839309D01*
X79554329Y-119836829D01*
X79561468Y-119835041D01*
X79568749Y-119833961D01*
X79576100Y-119833600D01*
X80126100Y-119833600D01*
X80133451Y-119833961D01*
X80133451Y-119833961D01*
G37*
D23*
X79851100Y-119983600D03*
D22*
G36*
X80133451Y-120333961D02*
G01*
X80140732Y-120335041D01*
X80147871Y-120336829D01*
X80154801Y-120339309D01*
X80161455Y-120342456D01*
X80167768Y-120346240D01*
X80173679Y-120350624D01*
X80179133Y-120355567D01*
X80184076Y-120361021D01*
X80188460Y-120366932D01*
X80192244Y-120373245D01*
X80195391Y-120379899D01*
X80197871Y-120386829D01*
X80199659Y-120393968D01*
X80200739Y-120401249D01*
X80201100Y-120408600D01*
X80201100Y-120558600D01*
X80200739Y-120565951D01*
X80199659Y-120573232D01*
X80197871Y-120580371D01*
X80195391Y-120587301D01*
X80192244Y-120593955D01*
X80188460Y-120600268D01*
X80184076Y-120606179D01*
X80179133Y-120611633D01*
X80173679Y-120616576D01*
X80167768Y-120620960D01*
X80161455Y-120624744D01*
X80154801Y-120627891D01*
X80147871Y-120630371D01*
X80140732Y-120632159D01*
X80133451Y-120633239D01*
X80126100Y-120633600D01*
X79576100Y-120633600D01*
X79568749Y-120633239D01*
X79561468Y-120632159D01*
X79554329Y-120630371D01*
X79547399Y-120627891D01*
X79540745Y-120624744D01*
X79534432Y-120620960D01*
X79528521Y-120616576D01*
X79523067Y-120611633D01*
X79518124Y-120606179D01*
X79513740Y-120600268D01*
X79509956Y-120593955D01*
X79506809Y-120587301D01*
X79504329Y-120580371D01*
X79502541Y-120573232D01*
X79501461Y-120565951D01*
X79501100Y-120558600D01*
X79501100Y-120408600D01*
X79501461Y-120401249D01*
X79502541Y-120393968D01*
X79504329Y-120386829D01*
X79506809Y-120379899D01*
X79509956Y-120373245D01*
X79513740Y-120366932D01*
X79518124Y-120361021D01*
X79523067Y-120355567D01*
X79528521Y-120350624D01*
X79534432Y-120346240D01*
X79540745Y-120342456D01*
X79547399Y-120339309D01*
X79554329Y-120336829D01*
X79561468Y-120335041D01*
X79568749Y-120333961D01*
X79576100Y-120333600D01*
X80126100Y-120333600D01*
X80133451Y-120333961D01*
X80133451Y-120333961D01*
G37*
D23*
X79851100Y-120483600D03*
D22*
G36*
X80133451Y-120833961D02*
G01*
X80140732Y-120835041D01*
X80147871Y-120836829D01*
X80154801Y-120839309D01*
X80161455Y-120842456D01*
X80167768Y-120846240D01*
X80173679Y-120850624D01*
X80179133Y-120855567D01*
X80184076Y-120861021D01*
X80188460Y-120866932D01*
X80192244Y-120873245D01*
X80195391Y-120879899D01*
X80197871Y-120886829D01*
X80199659Y-120893968D01*
X80200739Y-120901249D01*
X80201100Y-120908600D01*
X80201100Y-121058600D01*
X80200739Y-121065951D01*
X80199659Y-121073232D01*
X80197871Y-121080371D01*
X80195391Y-121087301D01*
X80192244Y-121093955D01*
X80188460Y-121100268D01*
X80184076Y-121106179D01*
X80179133Y-121111633D01*
X80173679Y-121116576D01*
X80167768Y-121120960D01*
X80161455Y-121124744D01*
X80154801Y-121127891D01*
X80147871Y-121130371D01*
X80140732Y-121132159D01*
X80133451Y-121133239D01*
X80126100Y-121133600D01*
X79576100Y-121133600D01*
X79568749Y-121133239D01*
X79561468Y-121132159D01*
X79554329Y-121130371D01*
X79547399Y-121127891D01*
X79540745Y-121124744D01*
X79534432Y-121120960D01*
X79528521Y-121116576D01*
X79523067Y-121111633D01*
X79518124Y-121106179D01*
X79513740Y-121100268D01*
X79509956Y-121093955D01*
X79506809Y-121087301D01*
X79504329Y-121080371D01*
X79502541Y-121073232D01*
X79501461Y-121065951D01*
X79501100Y-121058600D01*
X79501100Y-120908600D01*
X79501461Y-120901249D01*
X79502541Y-120893968D01*
X79504329Y-120886829D01*
X79506809Y-120879899D01*
X79509956Y-120873245D01*
X79513740Y-120866932D01*
X79518124Y-120861021D01*
X79523067Y-120855567D01*
X79528521Y-120850624D01*
X79534432Y-120846240D01*
X79540745Y-120842456D01*
X79547399Y-120839309D01*
X79554329Y-120836829D01*
X79561468Y-120835041D01*
X79568749Y-120833961D01*
X79576100Y-120833600D01*
X80126100Y-120833600D01*
X80133451Y-120833961D01*
X80133451Y-120833961D01*
G37*
D23*
X79851100Y-120983600D03*
D22*
G36*
X79333451Y-121233961D02*
G01*
X79340732Y-121235041D01*
X79347871Y-121236829D01*
X79354801Y-121239309D01*
X79361455Y-121242456D01*
X79367768Y-121246240D01*
X79373679Y-121250624D01*
X79379133Y-121255567D01*
X79384076Y-121261021D01*
X79388460Y-121266932D01*
X79392244Y-121273245D01*
X79395391Y-121279899D01*
X79397871Y-121286829D01*
X79399659Y-121293968D01*
X79400739Y-121301249D01*
X79401100Y-121308600D01*
X79401100Y-121858600D01*
X79400739Y-121865951D01*
X79399659Y-121873232D01*
X79397871Y-121880371D01*
X79395391Y-121887301D01*
X79392244Y-121893955D01*
X79388460Y-121900268D01*
X79384076Y-121906179D01*
X79379133Y-121911633D01*
X79373679Y-121916576D01*
X79367768Y-121920960D01*
X79361455Y-121924744D01*
X79354801Y-121927891D01*
X79347871Y-121930371D01*
X79340732Y-121932159D01*
X79333451Y-121933239D01*
X79326100Y-121933600D01*
X79176100Y-121933600D01*
X79168749Y-121933239D01*
X79161468Y-121932159D01*
X79154329Y-121930371D01*
X79147399Y-121927891D01*
X79140745Y-121924744D01*
X79134432Y-121920960D01*
X79128521Y-121916576D01*
X79123067Y-121911633D01*
X79118124Y-121906179D01*
X79113740Y-121900268D01*
X79109956Y-121893955D01*
X79106809Y-121887301D01*
X79104329Y-121880371D01*
X79102541Y-121873232D01*
X79101461Y-121865951D01*
X79101100Y-121858600D01*
X79101100Y-121308600D01*
X79101461Y-121301249D01*
X79102541Y-121293968D01*
X79104329Y-121286829D01*
X79106809Y-121279899D01*
X79109956Y-121273245D01*
X79113740Y-121266932D01*
X79118124Y-121261021D01*
X79123067Y-121255567D01*
X79128521Y-121250624D01*
X79134432Y-121246240D01*
X79140745Y-121242456D01*
X79147399Y-121239309D01*
X79154329Y-121236829D01*
X79161468Y-121235041D01*
X79168749Y-121233961D01*
X79176100Y-121233600D01*
X79326100Y-121233600D01*
X79333451Y-121233961D01*
X79333451Y-121233961D01*
G37*
D23*
X79251100Y-121583600D03*
D22*
G36*
X78833451Y-121233961D02*
G01*
X78840732Y-121235041D01*
X78847871Y-121236829D01*
X78854801Y-121239309D01*
X78861455Y-121242456D01*
X78867768Y-121246240D01*
X78873679Y-121250624D01*
X78879133Y-121255567D01*
X78884076Y-121261021D01*
X78888460Y-121266932D01*
X78892244Y-121273245D01*
X78895391Y-121279899D01*
X78897871Y-121286829D01*
X78899659Y-121293968D01*
X78900739Y-121301249D01*
X78901100Y-121308600D01*
X78901100Y-121858600D01*
X78900739Y-121865951D01*
X78899659Y-121873232D01*
X78897871Y-121880371D01*
X78895391Y-121887301D01*
X78892244Y-121893955D01*
X78888460Y-121900268D01*
X78884076Y-121906179D01*
X78879133Y-121911633D01*
X78873679Y-121916576D01*
X78867768Y-121920960D01*
X78861455Y-121924744D01*
X78854801Y-121927891D01*
X78847871Y-121930371D01*
X78840732Y-121932159D01*
X78833451Y-121933239D01*
X78826100Y-121933600D01*
X78676100Y-121933600D01*
X78668749Y-121933239D01*
X78661468Y-121932159D01*
X78654329Y-121930371D01*
X78647399Y-121927891D01*
X78640745Y-121924744D01*
X78634432Y-121920960D01*
X78628521Y-121916576D01*
X78623067Y-121911633D01*
X78618124Y-121906179D01*
X78613740Y-121900268D01*
X78609956Y-121893955D01*
X78606809Y-121887301D01*
X78604329Y-121880371D01*
X78602541Y-121873232D01*
X78601461Y-121865951D01*
X78601100Y-121858600D01*
X78601100Y-121308600D01*
X78601461Y-121301249D01*
X78602541Y-121293968D01*
X78604329Y-121286829D01*
X78606809Y-121279899D01*
X78609956Y-121273245D01*
X78613740Y-121266932D01*
X78618124Y-121261021D01*
X78623067Y-121255567D01*
X78628521Y-121250624D01*
X78634432Y-121246240D01*
X78640745Y-121242456D01*
X78647399Y-121239309D01*
X78654329Y-121236829D01*
X78661468Y-121235041D01*
X78668749Y-121233961D01*
X78676100Y-121233600D01*
X78826100Y-121233600D01*
X78833451Y-121233961D01*
X78833451Y-121233961D01*
G37*
D23*
X78751100Y-121583600D03*
D22*
G36*
X78333451Y-121233961D02*
G01*
X78340732Y-121235041D01*
X78347871Y-121236829D01*
X78354801Y-121239309D01*
X78361455Y-121242456D01*
X78367768Y-121246240D01*
X78373679Y-121250624D01*
X78379133Y-121255567D01*
X78384076Y-121261021D01*
X78388460Y-121266932D01*
X78392244Y-121273245D01*
X78395391Y-121279899D01*
X78397871Y-121286829D01*
X78399659Y-121293968D01*
X78400739Y-121301249D01*
X78401100Y-121308600D01*
X78401100Y-121858600D01*
X78400739Y-121865951D01*
X78399659Y-121873232D01*
X78397871Y-121880371D01*
X78395391Y-121887301D01*
X78392244Y-121893955D01*
X78388460Y-121900268D01*
X78384076Y-121906179D01*
X78379133Y-121911633D01*
X78373679Y-121916576D01*
X78367768Y-121920960D01*
X78361455Y-121924744D01*
X78354801Y-121927891D01*
X78347871Y-121930371D01*
X78340732Y-121932159D01*
X78333451Y-121933239D01*
X78326100Y-121933600D01*
X78176100Y-121933600D01*
X78168749Y-121933239D01*
X78161468Y-121932159D01*
X78154329Y-121930371D01*
X78147399Y-121927891D01*
X78140745Y-121924744D01*
X78134432Y-121920960D01*
X78128521Y-121916576D01*
X78123067Y-121911633D01*
X78118124Y-121906179D01*
X78113740Y-121900268D01*
X78109956Y-121893955D01*
X78106809Y-121887301D01*
X78104329Y-121880371D01*
X78102541Y-121873232D01*
X78101461Y-121865951D01*
X78101100Y-121858600D01*
X78101100Y-121308600D01*
X78101461Y-121301249D01*
X78102541Y-121293968D01*
X78104329Y-121286829D01*
X78106809Y-121279899D01*
X78109956Y-121273245D01*
X78113740Y-121266932D01*
X78118124Y-121261021D01*
X78123067Y-121255567D01*
X78128521Y-121250624D01*
X78134432Y-121246240D01*
X78140745Y-121242456D01*
X78147399Y-121239309D01*
X78154329Y-121236829D01*
X78161468Y-121235041D01*
X78168749Y-121233961D01*
X78176100Y-121233600D01*
X78326100Y-121233600D01*
X78333451Y-121233961D01*
X78333451Y-121233961D01*
G37*
D23*
X78251100Y-121583600D03*
D22*
G36*
X77833451Y-121233961D02*
G01*
X77840732Y-121235041D01*
X77847871Y-121236829D01*
X77854801Y-121239309D01*
X77861455Y-121242456D01*
X77867768Y-121246240D01*
X77873679Y-121250624D01*
X77879133Y-121255567D01*
X77884076Y-121261021D01*
X77888460Y-121266932D01*
X77892244Y-121273245D01*
X77895391Y-121279899D01*
X77897871Y-121286829D01*
X77899659Y-121293968D01*
X77900739Y-121301249D01*
X77901100Y-121308600D01*
X77901100Y-121858600D01*
X77900739Y-121865951D01*
X77899659Y-121873232D01*
X77897871Y-121880371D01*
X77895391Y-121887301D01*
X77892244Y-121893955D01*
X77888460Y-121900268D01*
X77884076Y-121906179D01*
X77879133Y-121911633D01*
X77873679Y-121916576D01*
X77867768Y-121920960D01*
X77861455Y-121924744D01*
X77854801Y-121927891D01*
X77847871Y-121930371D01*
X77840732Y-121932159D01*
X77833451Y-121933239D01*
X77826100Y-121933600D01*
X77676100Y-121933600D01*
X77668749Y-121933239D01*
X77661468Y-121932159D01*
X77654329Y-121930371D01*
X77647399Y-121927891D01*
X77640745Y-121924744D01*
X77634432Y-121920960D01*
X77628521Y-121916576D01*
X77623067Y-121911633D01*
X77618124Y-121906179D01*
X77613740Y-121900268D01*
X77609956Y-121893955D01*
X77606809Y-121887301D01*
X77604329Y-121880371D01*
X77602541Y-121873232D01*
X77601461Y-121865951D01*
X77601100Y-121858600D01*
X77601100Y-121308600D01*
X77601461Y-121301249D01*
X77602541Y-121293968D01*
X77604329Y-121286829D01*
X77606809Y-121279899D01*
X77609956Y-121273245D01*
X77613740Y-121266932D01*
X77618124Y-121261021D01*
X77623067Y-121255567D01*
X77628521Y-121250624D01*
X77634432Y-121246240D01*
X77640745Y-121242456D01*
X77647399Y-121239309D01*
X77654329Y-121236829D01*
X77661468Y-121235041D01*
X77668749Y-121233961D01*
X77676100Y-121233600D01*
X77826100Y-121233600D01*
X77833451Y-121233961D01*
X77833451Y-121233961D01*
G37*
D23*
X77751100Y-121583600D03*
D22*
G36*
X77333451Y-121233961D02*
G01*
X77340732Y-121235041D01*
X77347871Y-121236829D01*
X77354801Y-121239309D01*
X77361455Y-121242456D01*
X77367768Y-121246240D01*
X77373679Y-121250624D01*
X77379133Y-121255567D01*
X77384076Y-121261021D01*
X77388460Y-121266932D01*
X77392244Y-121273245D01*
X77395391Y-121279899D01*
X77397871Y-121286829D01*
X77399659Y-121293968D01*
X77400739Y-121301249D01*
X77401100Y-121308600D01*
X77401100Y-121858600D01*
X77400739Y-121865951D01*
X77399659Y-121873232D01*
X77397871Y-121880371D01*
X77395391Y-121887301D01*
X77392244Y-121893955D01*
X77388460Y-121900268D01*
X77384076Y-121906179D01*
X77379133Y-121911633D01*
X77373679Y-121916576D01*
X77367768Y-121920960D01*
X77361455Y-121924744D01*
X77354801Y-121927891D01*
X77347871Y-121930371D01*
X77340732Y-121932159D01*
X77333451Y-121933239D01*
X77326100Y-121933600D01*
X77176100Y-121933600D01*
X77168749Y-121933239D01*
X77161468Y-121932159D01*
X77154329Y-121930371D01*
X77147399Y-121927891D01*
X77140745Y-121924744D01*
X77134432Y-121920960D01*
X77128521Y-121916576D01*
X77123067Y-121911633D01*
X77118124Y-121906179D01*
X77113740Y-121900268D01*
X77109956Y-121893955D01*
X77106809Y-121887301D01*
X77104329Y-121880371D01*
X77102541Y-121873232D01*
X77101461Y-121865951D01*
X77101100Y-121858600D01*
X77101100Y-121308600D01*
X77101461Y-121301249D01*
X77102541Y-121293968D01*
X77104329Y-121286829D01*
X77106809Y-121279899D01*
X77109956Y-121273245D01*
X77113740Y-121266932D01*
X77118124Y-121261021D01*
X77123067Y-121255567D01*
X77128521Y-121250624D01*
X77134432Y-121246240D01*
X77140745Y-121242456D01*
X77147399Y-121239309D01*
X77154329Y-121236829D01*
X77161468Y-121235041D01*
X77168749Y-121233961D01*
X77176100Y-121233600D01*
X77326100Y-121233600D01*
X77333451Y-121233961D01*
X77333451Y-121233961D01*
G37*
D23*
X77251100Y-121583600D03*
D22*
G36*
X76833451Y-121233961D02*
G01*
X76840732Y-121235041D01*
X76847871Y-121236829D01*
X76854801Y-121239309D01*
X76861455Y-121242456D01*
X76867768Y-121246240D01*
X76873679Y-121250624D01*
X76879133Y-121255567D01*
X76884076Y-121261021D01*
X76888460Y-121266932D01*
X76892244Y-121273245D01*
X76895391Y-121279899D01*
X76897871Y-121286829D01*
X76899659Y-121293968D01*
X76900739Y-121301249D01*
X76901100Y-121308600D01*
X76901100Y-121858600D01*
X76900739Y-121865951D01*
X76899659Y-121873232D01*
X76897871Y-121880371D01*
X76895391Y-121887301D01*
X76892244Y-121893955D01*
X76888460Y-121900268D01*
X76884076Y-121906179D01*
X76879133Y-121911633D01*
X76873679Y-121916576D01*
X76867768Y-121920960D01*
X76861455Y-121924744D01*
X76854801Y-121927891D01*
X76847871Y-121930371D01*
X76840732Y-121932159D01*
X76833451Y-121933239D01*
X76826100Y-121933600D01*
X76676100Y-121933600D01*
X76668749Y-121933239D01*
X76661468Y-121932159D01*
X76654329Y-121930371D01*
X76647399Y-121927891D01*
X76640745Y-121924744D01*
X76634432Y-121920960D01*
X76628521Y-121916576D01*
X76623067Y-121911633D01*
X76618124Y-121906179D01*
X76613740Y-121900268D01*
X76609956Y-121893955D01*
X76606809Y-121887301D01*
X76604329Y-121880371D01*
X76602541Y-121873232D01*
X76601461Y-121865951D01*
X76601100Y-121858600D01*
X76601100Y-121308600D01*
X76601461Y-121301249D01*
X76602541Y-121293968D01*
X76604329Y-121286829D01*
X76606809Y-121279899D01*
X76609956Y-121273245D01*
X76613740Y-121266932D01*
X76618124Y-121261021D01*
X76623067Y-121255567D01*
X76628521Y-121250624D01*
X76634432Y-121246240D01*
X76640745Y-121242456D01*
X76647399Y-121239309D01*
X76654329Y-121236829D01*
X76661468Y-121235041D01*
X76668749Y-121233961D01*
X76676100Y-121233600D01*
X76826100Y-121233600D01*
X76833451Y-121233961D01*
X76833451Y-121233961D01*
G37*
D23*
X76751100Y-121583600D03*
D22*
G36*
X76333451Y-121233961D02*
G01*
X76340732Y-121235041D01*
X76347871Y-121236829D01*
X76354801Y-121239309D01*
X76361455Y-121242456D01*
X76367768Y-121246240D01*
X76373679Y-121250624D01*
X76379133Y-121255567D01*
X76384076Y-121261021D01*
X76388460Y-121266932D01*
X76392244Y-121273245D01*
X76395391Y-121279899D01*
X76397871Y-121286829D01*
X76399659Y-121293968D01*
X76400739Y-121301249D01*
X76401100Y-121308600D01*
X76401100Y-121858600D01*
X76400739Y-121865951D01*
X76399659Y-121873232D01*
X76397871Y-121880371D01*
X76395391Y-121887301D01*
X76392244Y-121893955D01*
X76388460Y-121900268D01*
X76384076Y-121906179D01*
X76379133Y-121911633D01*
X76373679Y-121916576D01*
X76367768Y-121920960D01*
X76361455Y-121924744D01*
X76354801Y-121927891D01*
X76347871Y-121930371D01*
X76340732Y-121932159D01*
X76333451Y-121933239D01*
X76326100Y-121933600D01*
X76176100Y-121933600D01*
X76168749Y-121933239D01*
X76161468Y-121932159D01*
X76154329Y-121930371D01*
X76147399Y-121927891D01*
X76140745Y-121924744D01*
X76134432Y-121920960D01*
X76128521Y-121916576D01*
X76123067Y-121911633D01*
X76118124Y-121906179D01*
X76113740Y-121900268D01*
X76109956Y-121893955D01*
X76106809Y-121887301D01*
X76104329Y-121880371D01*
X76102541Y-121873232D01*
X76101461Y-121865951D01*
X76101100Y-121858600D01*
X76101100Y-121308600D01*
X76101461Y-121301249D01*
X76102541Y-121293968D01*
X76104329Y-121286829D01*
X76106809Y-121279899D01*
X76109956Y-121273245D01*
X76113740Y-121266932D01*
X76118124Y-121261021D01*
X76123067Y-121255567D01*
X76128521Y-121250624D01*
X76134432Y-121246240D01*
X76140745Y-121242456D01*
X76147399Y-121239309D01*
X76154329Y-121236829D01*
X76161468Y-121235041D01*
X76168749Y-121233961D01*
X76176100Y-121233600D01*
X76326100Y-121233600D01*
X76333451Y-121233961D01*
X76333451Y-121233961D01*
G37*
D23*
X76251100Y-121583600D03*
D22*
G36*
X75833451Y-121233961D02*
G01*
X75840732Y-121235041D01*
X75847871Y-121236829D01*
X75854801Y-121239309D01*
X75861455Y-121242456D01*
X75867768Y-121246240D01*
X75873679Y-121250624D01*
X75879133Y-121255567D01*
X75884076Y-121261021D01*
X75888460Y-121266932D01*
X75892244Y-121273245D01*
X75895391Y-121279899D01*
X75897871Y-121286829D01*
X75899659Y-121293968D01*
X75900739Y-121301249D01*
X75901100Y-121308600D01*
X75901100Y-121858600D01*
X75900739Y-121865951D01*
X75899659Y-121873232D01*
X75897871Y-121880371D01*
X75895391Y-121887301D01*
X75892244Y-121893955D01*
X75888460Y-121900268D01*
X75884076Y-121906179D01*
X75879133Y-121911633D01*
X75873679Y-121916576D01*
X75867768Y-121920960D01*
X75861455Y-121924744D01*
X75854801Y-121927891D01*
X75847871Y-121930371D01*
X75840732Y-121932159D01*
X75833451Y-121933239D01*
X75826100Y-121933600D01*
X75676100Y-121933600D01*
X75668749Y-121933239D01*
X75661468Y-121932159D01*
X75654329Y-121930371D01*
X75647399Y-121927891D01*
X75640745Y-121924744D01*
X75634432Y-121920960D01*
X75628521Y-121916576D01*
X75623067Y-121911633D01*
X75618124Y-121906179D01*
X75613740Y-121900268D01*
X75609956Y-121893955D01*
X75606809Y-121887301D01*
X75604329Y-121880371D01*
X75602541Y-121873232D01*
X75601461Y-121865951D01*
X75601100Y-121858600D01*
X75601100Y-121308600D01*
X75601461Y-121301249D01*
X75602541Y-121293968D01*
X75604329Y-121286829D01*
X75606809Y-121279899D01*
X75609956Y-121273245D01*
X75613740Y-121266932D01*
X75618124Y-121261021D01*
X75623067Y-121255567D01*
X75628521Y-121250624D01*
X75634432Y-121246240D01*
X75640745Y-121242456D01*
X75647399Y-121239309D01*
X75654329Y-121236829D01*
X75661468Y-121235041D01*
X75668749Y-121233961D01*
X75676100Y-121233600D01*
X75826100Y-121233600D01*
X75833451Y-121233961D01*
X75833451Y-121233961D01*
G37*
D23*
X75751100Y-121583600D03*
D21*
X70651000Y-113538000D03*
X72351000Y-113538000D03*
D19*
X72376100Y-122233600D03*
X70626100Y-122233600D03*
X72376100Y-115233600D03*
X70626100Y-115233600D03*
X80405000Y-123510000D03*
X78655000Y-123510000D03*
D24*
X83135500Y-114735000D03*
X83135500Y-113235000D03*
D21*
X83555000Y-119233600D03*
X81855000Y-119233600D03*
D24*
X81435000Y-114735000D03*
X81435000Y-113235000D03*
D21*
X83555000Y-117233600D03*
X81855000Y-117233600D03*
X83555000Y-121233600D03*
X81855000Y-121233600D03*
D24*
X84836000Y-114735000D03*
X84836000Y-113235000D03*
D25*
X77481000Y-107569000D03*
X78028800Y-106807000D03*
X78028800Y-108331000D03*
X76962000Y-106807000D03*
D26*
X76708000Y-120650000D03*
X82169000Y-126492000D03*
X69596000Y-118364000D03*
X70473987Y-120904000D03*
X78486000Y-120650000D03*
X75501500Y-112204500D03*
D25*
X85344000Y-107696000D03*
D26*
X77724000Y-126873000D03*
X77216000Y-117983000D03*
X72390000Y-116586000D03*
X69596000Y-119380000D03*
X72812500Y-123510000D03*
X81788000Y-123444000D03*
X82550000Y-131064000D03*
X79502000Y-112125000D03*
D25*
X76962000Y-108331000D03*
X85344000Y-108712000D03*
X70567843Y-107802857D03*
X69924969Y-109104597D03*
D26*
X73406000Y-117602000D03*
X73406000Y-119380000D03*
D25*
X74041000Y-115083600D03*
X74041000Y-113665000D03*
X71882000Y-120893589D03*
X71374000Y-116586000D03*
D27*
X80725000Y-125862000D02*
X80800000Y-125937000D01*
X78852000Y-125862000D02*
X80725000Y-125862000D01*
X80800000Y-125937000D02*
X81360000Y-125937000D01*
X81360000Y-125937000D02*
X81614000Y-125937000D01*
X81614000Y-125937000D02*
X82169000Y-126492000D01*
D28*
X78655000Y-122565250D02*
X78655000Y-123510000D01*
X78251100Y-121583600D02*
X78251100Y-122161350D01*
X78251100Y-122161350D02*
X78655000Y-122565250D01*
X76595000Y-122795000D02*
X76595000Y-123510000D01*
X77251100Y-121583600D02*
X77251100Y-122138900D01*
X77251100Y-122138900D02*
X76595000Y-122795000D01*
X70576100Y-118233600D02*
X69726400Y-118233600D01*
X69726400Y-118233600D02*
X69596000Y-118364000D01*
X72051100Y-119233600D02*
X72426100Y-119233600D01*
X71051100Y-118233600D02*
X72051100Y-119233600D01*
X70576100Y-118233600D02*
X71051100Y-118233600D01*
X70626100Y-121056113D02*
X70473987Y-120904000D01*
X70751100Y-120626887D02*
X70473987Y-120904000D01*
X70626100Y-122233600D02*
X70626100Y-121056113D01*
X70751100Y-119908600D02*
X70751100Y-120626887D01*
X78751100Y-115858600D02*
X79501100Y-115108600D01*
X78751100Y-116883600D02*
X78751100Y-115858600D01*
X75501100Y-113383600D02*
X77735300Y-113383600D01*
X77776100Y-113383600D02*
X79501100Y-115108600D01*
X77735300Y-113383600D02*
X77776100Y-113383600D01*
D29*
X78251100Y-121583600D02*
X78251100Y-120884900D01*
X78251100Y-120884900D02*
X78486000Y-120650000D01*
X76595000Y-123510000D02*
X78655000Y-123510000D01*
D28*
X75501500Y-113383200D02*
X75501100Y-113383600D01*
X75501500Y-112204500D02*
X75501500Y-113383200D01*
X79100700Y-106628600D02*
X79050500Y-106578400D01*
X81001100Y-106628600D02*
X79100700Y-106628600D01*
X84836000Y-107188000D02*
X85344000Y-107696000D01*
X82550000Y-107188000D02*
X84836000Y-107188000D01*
X81001100Y-106628600D02*
X81990600Y-106628600D01*
X81990600Y-106628600D02*
X82550000Y-107188000D01*
D29*
X76652000Y-126812000D02*
X77663000Y-126812000D01*
D27*
X77663000Y-126812000D02*
X77724000Y-126873000D01*
D28*
X77251100Y-116883600D02*
X77251100Y-117947900D01*
X77251100Y-117947900D02*
X77216000Y-117983000D01*
X77751100Y-121133600D02*
X77751100Y-121583600D01*
X77751100Y-121127415D02*
X77751100Y-121133600D01*
X77273685Y-120650000D02*
X77751100Y-121127415D01*
X76708000Y-120650000D02*
X77273685Y-120650000D01*
X76751100Y-120693100D02*
X76708000Y-120650000D01*
X76751100Y-121583600D02*
X76751100Y-120693100D01*
D29*
X72376100Y-115233600D02*
X72376100Y-116345900D01*
X72376100Y-116345900D02*
X72390000Y-116359800D01*
X72390000Y-116359800D02*
X72390000Y-116586000D01*
X72251100Y-116724900D02*
X72390000Y-116586000D01*
X72251100Y-117558600D02*
X72251100Y-116724900D01*
X71251100Y-117558600D02*
X71751100Y-117558600D01*
X72251100Y-117558600D02*
X71751100Y-117558600D01*
D28*
X70576100Y-118733600D02*
X70576100Y-119233600D01*
X70576100Y-119233600D02*
X69742400Y-119233600D01*
X69742400Y-119233600D02*
X69596000Y-119380000D01*
D29*
X74020000Y-123510000D02*
X74845000Y-123510000D01*
X72812500Y-123510000D02*
X74020000Y-123510000D01*
X72376100Y-123073600D02*
X72812500Y-123510000D01*
X72376100Y-122233600D02*
X72376100Y-123073600D01*
X80405000Y-123510000D02*
X81722000Y-123510000D01*
X81722000Y-123510000D02*
X81788000Y-123444000D01*
X78289685Y-126873000D02*
X77724000Y-126873000D01*
X79971000Y-126873000D02*
X78289685Y-126873000D01*
X80785000Y-127687000D02*
X79971000Y-126873000D01*
X80800000Y-127687000D02*
X80785000Y-127687000D01*
X84501100Y-131003600D02*
X82610400Y-131003600D01*
X82610400Y-131003600D02*
X82550000Y-131064000D01*
X81539000Y-132075000D02*
X82550000Y-131064000D01*
X79927000Y-132075000D02*
X81539000Y-132075000D01*
X84836000Y-113235000D02*
X83135500Y-113235000D01*
X81435000Y-113235000D02*
X83135500Y-113235000D01*
X79624700Y-113235000D02*
X79501100Y-113358600D01*
X81435000Y-113235000D02*
X79624700Y-113235000D01*
X79501100Y-113358600D02*
X79501100Y-112125900D01*
X79501100Y-112125900D02*
X79502000Y-112125000D01*
D28*
X79050500Y-107238800D02*
X79050500Y-107899200D01*
X79050500Y-107899200D02*
X79050500Y-108559600D01*
X80820100Y-108559600D02*
X81001100Y-108378600D01*
X79050500Y-108559600D02*
X80820100Y-108559600D01*
X76733400Y-108559600D02*
X76962000Y-108331000D01*
X75951700Y-108559600D02*
X76733400Y-108559600D01*
X78257400Y-108559600D02*
X78028800Y-108331000D01*
X79050500Y-108559600D02*
X78257400Y-108559600D01*
X82519710Y-107649990D02*
X84281990Y-107649990D01*
X81001100Y-108378600D02*
X81791100Y-108378600D01*
X81791100Y-108378600D02*
X82519710Y-107649990D01*
X84281990Y-107649990D02*
X85344000Y-108712000D01*
D30*
X69924969Y-109104597D02*
X69924969Y-111627094D01*
X69924969Y-111627094D02*
X70647907Y-112350032D01*
X72351000Y-113488000D02*
X72351000Y-113538000D01*
X70821032Y-112350032D02*
X71163032Y-112350032D01*
X72351000Y-112838000D02*
X71863032Y-112350032D01*
X70647907Y-112350032D02*
X70821032Y-112350032D01*
X72351000Y-113538000D02*
X72351000Y-112838000D01*
X71863032Y-112350032D02*
X70821032Y-112350032D01*
X70674700Y-107696000D02*
X70567843Y-107802857D01*
X74422000Y-107696000D02*
X70674700Y-107696000D01*
X75951700Y-107899200D02*
X74625200Y-107899200D01*
X74625200Y-107899200D02*
X74422000Y-107696000D01*
X75151100Y-118983600D02*
X74406600Y-118983600D01*
X74156600Y-118733600D02*
X72426100Y-118733600D01*
X74406600Y-118983600D02*
X74156600Y-118733600D01*
X77501100Y-115083600D02*
X77451100Y-115083600D01*
X74010200Y-119380000D02*
X74406600Y-118983600D01*
X73406000Y-119380000D02*
X74010200Y-119380000D01*
X73406000Y-117036315D02*
X73406000Y-117602000D01*
X73406000Y-114665990D02*
X73406000Y-117036315D01*
X73812423Y-114259567D02*
X73406000Y-114665990D01*
X77735300Y-115083600D02*
X76983600Y-115083600D01*
X76983600Y-115083600D02*
X76159567Y-114259567D01*
X74589433Y-114259567D02*
X73812423Y-114259567D01*
X76159567Y-114259567D02*
X74589433Y-114259567D01*
X70042841Y-108054859D02*
X70749990Y-108762009D01*
X70042841Y-107550855D02*
X70042841Y-108054859D01*
X73142010Y-111750010D02*
X74589433Y-113197433D01*
X70749990Y-108762009D02*
X70749990Y-111603557D01*
X70896443Y-111750010D02*
X73142010Y-111750010D01*
X74589433Y-113197433D02*
X74589433Y-114259567D01*
X70749990Y-111603557D02*
X70896443Y-111750010D01*
X70354896Y-107238800D02*
X70042841Y-107550855D01*
X75951700Y-107238800D02*
X70354896Y-107238800D01*
X75151100Y-118483600D02*
X74414600Y-118483600D01*
X74164600Y-118233600D02*
X72426100Y-118233600D01*
X74414600Y-118483600D02*
X74164600Y-118233600D01*
X74164600Y-117070100D02*
X74164600Y-118233600D01*
X75501100Y-115733600D02*
X74164600Y-117070100D01*
X75501100Y-115083600D02*
X75501100Y-115733600D01*
X75951700Y-106513000D02*
X75689502Y-106513000D01*
X75501100Y-115083600D02*
X74273418Y-115083600D01*
X73741001Y-113365001D02*
X74041000Y-113665000D01*
X70772175Y-112050021D02*
X72426021Y-112050021D01*
X70449979Y-111727825D02*
X70772175Y-112050021D01*
X70449979Y-108886277D02*
X70449979Y-111727825D01*
X75951700Y-106578400D02*
X74734321Y-106578400D01*
X74404337Y-106908384D02*
X70230604Y-106908384D01*
X74734321Y-106578400D02*
X74404337Y-106908384D01*
X70230604Y-106908384D02*
X69742830Y-107396158D01*
X69742830Y-107396158D02*
X69742831Y-108179129D01*
X72426021Y-112050021D02*
X73741001Y-113365001D01*
X69742831Y-108179129D02*
X70449979Y-108886277D01*
X71251100Y-121038600D02*
X71631099Y-121418599D01*
X71631099Y-121418599D02*
X73121101Y-121418599D01*
X73121101Y-121418599D02*
X73176101Y-121473599D01*
X73176101Y-121473599D02*
X73176101Y-121883611D01*
X76126090Y-122158610D02*
X76251100Y-122033600D01*
X73176101Y-121883611D02*
X73451100Y-122158610D01*
X71251100Y-119908600D02*
X71251100Y-121038600D01*
X76251100Y-122033600D02*
X76251100Y-121583600D01*
X73451100Y-122158610D02*
X76126090Y-122158610D01*
X72106999Y-121118588D02*
X71882000Y-120893589D01*
X73245369Y-121118588D02*
X72106999Y-121118588D01*
X75751100Y-121583600D02*
X73710381Y-121583600D01*
X73710381Y-121583600D02*
X73245369Y-121118588D01*
X70751100Y-117208900D02*
X70751100Y-117558600D01*
X71374000Y-116586000D02*
X70751100Y-117208900D01*
X80725989Y-119558711D02*
X80725989Y-118412611D01*
X81855000Y-117283600D02*
X81855000Y-117233600D01*
X80301100Y-119983600D02*
X80725989Y-119558711D01*
X80725989Y-118412611D02*
X81855000Y-117283600D01*
X79851100Y-119983600D02*
X80301100Y-119983600D01*
X81172400Y-119233600D02*
X81855000Y-119233600D01*
X81026000Y-119380000D02*
X81172400Y-119233600D01*
X81026000Y-119888000D02*
X81026000Y-119380000D01*
X79851100Y-120483600D02*
X80430400Y-120483600D01*
X80430400Y-120483600D02*
X81026000Y-119888000D01*
X79851100Y-120983600D02*
X80438400Y-120983600D01*
X80688400Y-121233600D02*
X81855000Y-121233600D01*
X80438400Y-120983600D02*
X80688400Y-121233600D01*
X84535989Y-116685489D02*
X83135500Y-115285000D01*
X83135500Y-115285000D02*
X83135500Y-114735000D01*
X84535989Y-118202611D02*
X84535989Y-116685489D01*
X83555000Y-119183600D02*
X84535989Y-118202611D01*
X83555000Y-119233600D02*
X83555000Y-119183600D01*
X83555000Y-116321000D02*
X83555000Y-117233600D01*
X83312000Y-116078000D02*
X83555000Y-116321000D01*
X82228000Y-116078000D02*
X83312000Y-116078000D01*
X81435000Y-114735000D02*
X81435000Y-115285000D01*
X81435000Y-115285000D02*
X82228000Y-116078000D01*
X84836000Y-120602600D02*
X84836000Y-115285000D01*
X84205000Y-121233600D02*
X84836000Y-120602600D01*
X83555000Y-121233600D02*
X84205000Y-121233600D01*
X84836000Y-115285000D02*
X84836000Y-114735000D01*
D27*
X74637400Y-126003600D02*
X74704000Y-125937000D01*
X70501100Y-126003600D02*
X74637400Y-126003600D01*
X76577000Y-125937000D02*
X76652000Y-125862000D01*
X77857001Y-124861999D02*
X76857000Y-125862000D01*
X76857000Y-125862000D02*
X76652000Y-125862000D01*
X82759499Y-124861999D02*
X77857001Y-124861999D01*
X83901100Y-126003600D02*
X82759499Y-124861999D01*
X84501100Y-126003600D02*
X83901100Y-126003600D01*
D31*
X75645000Y-127685000D02*
X75645000Y-125937000D01*
X75721999Y-127761999D02*
X75645000Y-127685000D01*
X76652000Y-127762000D02*
X75721999Y-127761999D01*
D27*
X74704000Y-125937000D02*
X75645000Y-125937000D01*
X75645000Y-125937000D02*
X76577000Y-125937000D01*
M02*
